<svg xmlns="http://www.w3.org/2000/svg" xmlns:xlink="http://www.w3.org/1999/xlink" viewBox="0 0 135.19 72.35"><defs><style>.cls-1{fill:#231f20;}.cls-2{isolation:isolate;}.cls-3{clip-path:url(#clip-path);}.cls-4{clip-path:url(#clip-path-2);}.cls-5{clip-path:url(#clip-path-3);}.cls-6{clip-path:url(#clip-path-4);}.cls-7{clip-path:url(#clip-path-5);}.cls-8{clip-path:url(#clip-path-6);}.cls-9{opacity:0.55;}.cls-10{clip-path:url(#clip-path-7);}.cls-11{clip-path:url(#clip-path-8);}.cls-12{clip-path:url(#clip-path-9);}.cls-13{clip-path:url(#clip-path-10);}.cls-14{clip-path:url(#clip-path-11);}.cls-15{mix-blend-mode:multiply;}.cls-16{clip-path:url(#clip-path-12);}.cls-17{clip-path:url(#clip-path-13);}.cls-18{clip-path:url(#clip-path-14);}.cls-19{clip-path:url(#clip-path-15);}.cls-20{clip-path:url(#clip-path-16);}.cls-21{clip-path:url(#clip-path-17);}.cls-22{clip-path:url(#clip-path-18);}.cls-23{clip-path:url(#clip-path-19);}.cls-24{clip-path:url(#clip-path-20);}</style><clipPath id="clip-path" transform="translate(-783.73 -199.8)"><path class="cls-1" d="M854.79,246.43l-.2.07a1.25,1.25,0,0,0,.49.81,8.05,8.05,0,0,0,4.95,1.54s-2.74,1.34-3.61,1.82a6.12,6.12,0,0,0-1.12.72s.83.84,6.74-.2a33.42,33.42,0,0,0-4,3c0,.11,3.11,1.18,6.71-1.31,0,0-.72.73-1.33,1.51-.14.19-.28.39-.38.55a.89.89,0,0,0-.12.24s0,0,0,0h.11a6.11,6.11,0,0,0,3.55-1.54c-.08.14-.66,1.82,1.54,0,0,0,.56.83,3-2.19s2.26-3.83,2.26-3.83l-2.57-4.09s-13.13,2-16.12,2.92"/></clipPath><clipPath id="clip-path-2" transform="translate(-783.73 -199.8)"><path class="cls-1" d="M860.53,253.48Zm-3.25-6.55a8.44,8.44,0,0,0,5,1.26c-1,.58-4.37,2.3-4.74,2.72a37.81,37.81,0,0,0,6.56-.69c-1,.88-2.82,2.38-3.58,3.26a11.4,11.4,0,0,0,5.6-2,12.41,12.41,0,0,1-1.9,2.91,9.24,9.24,0,0,0,3.43-2.29c-.07.11-1.27,2.78,1.37.14,0,.13.08,1.4,2.55-2,1.92-2.78,1.16-3.59,1.16-3.59l-1.44-2.89s-11.85,2.34-14,3.12"/></clipPath><clipPath id="clip-path-3" transform="translate(-783.73 -199.8)"><path class="cls-1" d="M875.75,246.76l1.64.22a4,4,0,0,0,1.75.49,3.16,3.16,0,0,0,.61,0l.49,0a.65.65,0,0,1,.47.09,1.71,1.71,0,0,0,1,.37,1.91,1.91,0,0,0,.67-.07.84.84,0,0,1,.6,0,2.54,2.54,0,0,0,1.71.24.8.8,0,0,1,.55,0,9.15,9.15,0,0,0,2.17.63,10.87,10.87,0,0,0,1.48.2,12.14,12.14,0,0,0,1.89,0c1,0,1.85-.41,1.7-.47-2.42-.24-3.19-.9-2.88-.83,5.88,1.46,7.59.48,7.33.33-3-.64-3.66-1.11-3.55-1.16,4.93,1.37,7.77.89,7.45.66a34.58,34.58,0,0,1-5.32-2c7,2.25,10,1.89,11.08,1.52a1.39,1.39,0,0,0,.54-.28c-6.73-.95-7.88-2.09-7.88-2.13,7.94,2,11.38,1.57,12.75,1.13a2.93,2.93,0,0,0,.81-.37c-8.61-1.22-8.73-1.74-8.86-1.79,11.56,2.24,13.39-.65,13.32-.65a61.24,61.24,0,0,1-10.76-1c11.1,1.08,11.92-1.67,11.92-1.67a68.46,68.46,0,0,1-11.36,0,35.32,35.32,0,0,0-9.33.43c-8.9,1.21-8.63-.86-8.63-.86-1.89,1.94-12.54,6.39-13.32,7"/></clipPath><clipPath id="clip-path-4" transform="translate(-783.73 -199.8)"><path class="cls-1" d="M905.5,246.67h0m-28.62-.62,6.66,1.17c4.09,1.8,8.17,1.45,7.86,1.32-3.06-.47-4-1.91-3.54-1.71,5.37,1.66,8.56,1.34,8.32,1.21-4-.78-3.72-1.84-3.83-1.9,2.54,1.08,7.37,1.42,7.07,1.21-4.67-1.31-4.85-2.42-4.85-2.42,7.29,1.94,10,1.86,10.71,1.77l.22,0c-7.18-1-7.83-2.84-7.83-2.88,7.79,1.83,11.86,1.71,13.21,1.58l.53-.06c-8.71-.79-9.09-2.4-9.22-2.44a36.92,36.92,0,0,0,13.25.24c-9.13-.12-11.28-1.67-11.4-1.73,8.82.88,12.49-.7,12.49-.7-1.61.36-9.57-.36-12.56-.55s-2.74-.12-7.09.45c-6.47.63-7.78-.62-7.78-.62-.69.72-10.39,4.65-12.22,6.09"/></clipPath><clipPath id="clip-path-5" transform="translate(-783.73 -199.8)"><path class="cls-1" d="M840.08,221.71Zm17.17,4.64c-.5-.16-9.83-2.5-15.75-8.83,0,0,3.27,7,10.61,8.77a26.36,26.36,0,0,1-12-4.58c.16.14,2.35,5.08,11.92,6.45,0,0-4.44.52-11.61-2.5A16.2,16.2,0,0,0,851.57,230a25.86,25.86,0,0,1-9.47-1c-.16.11,4,2.51,9.6,2.46.07,0-1.85.58-7.9-.43-.25,0,3.25,2,8.61,2.11.06,0-2.45,1-6.67-.43-.17.08,3.38,2.58,7.46,2.56l.7.65s2.8,2.94,3.93,2.81a.4.4,0,0,1,.44.22.34.34,0,0,0,.19.23.37.37,0,0,0,.25,0,.52.52,0,0,1,.3,0c.25.12.18.29.31.4a.59.59,0,0,0,.53.1c.31-.06.41.21.51.41s.33.23.63.14a.38.38,0,0,1,.43.21c.07.14.07.31.19.42a.66.66,0,0,0,.51.11.48.48,0,0,1,.39,0c.14.1.15.29.23.41s.24.33.81.24c.34-.05.46.27.58.53s.91.82,1.15,1a13.39,13.39,0,0,0,1.78.89l.84-.12h0s2,.76-1.83,3.9c.67,1.14,13.37,1,20.66-5.23.59-.51,1.27-1.24,1.9-1.82,0-.09.16-4.62-.71-6.63,0,0-7.95,5.07-17.13-5.53a4.44,4.44,0,0,0-1.54,0c-1.24.1-2.84.2-3.5-.45,0,0-15.38-7.3-20.17-13.51,0,0,2.52,7.28,11.66,11.61"/></clipPath><clipPath id="clip-path-6" transform="translate(-783.73 -199.8)"><path class="cls-1" d="M881.7,241.08c-3.19,3.88-12.89,5.95-13.59,6.09.68,0,.53.29.53.29.18.6-.06.81-.06.81a4.23,4.23,0,0,0,2.41-.74,3.88,3.88,0,0,1,0,.9c11.31-.85,16.14-6.17,16.14-6.17l-1.46.63c-.31.14,0-.08,0-.08l.92-.94-1.29.36.81-.78-2.65.58,1.16-1.47Z"/></clipPath><clipPath id="clip-path-7" transform="translate(-783.73 -199.8)"><rect class="cls-1" x="883.85" y="236.71" width="9.57" height="6.2"/></clipPath><clipPath id="clip-path-8" transform="translate(-783.73 -199.8)"><path class="cls-1" d="M888.13,237.89c.68-.18,1.42,0,1.12.4a11.56,11.56,0,0,1-1.76.82c1.16-.26,1,.17.08.56a23.56,23.56,0,0,1-2.32.84l.55-.08c.45-.07,1-.13.8,0a23.21,23.21,0,0,1-2.76,1.38,12.61,12.61,0,0,0,2.51-.64c.23-.09,0,.14-.15.37s-.42.46-.31.38a3.54,3.54,0,0,0,1.08-.32,9.57,9.57,0,0,1-1,1.07,7.75,7.75,0,0,0,1.35-.54c-.05.12-.22.59-.07.8a14.18,14.18,0,0,1,1.45-1.8c.6-.6,1.17-1.2,2.16-2.17a21.77,21.77,0,0,1,2.56-2.16,4.58,4.58,0,0,0-1.13,0c-.85.07-1.88.14-1.91-.11a14.37,14.37,0,0,1-2.25,1.18"/></clipPath><clipPath id="clip-path-9" transform="translate(-783.73 -199.8)"><path class="cls-1" d="M891.71,234.68c-.29.24-.29,1.15-.62,1.5s-1.32.14-1.55.54c-.49.91,1.45.63,2.88.26.66-.15.14.44.14.44l.23-.19.26-.18a4.33,4.33,0,0,1,.51-.31.82.82,0,0,1,.3-.1c.07,0,.2,0,.25,0,.57.29,0,1,0,1.06.45-.33,1.54-1.74.68-2.7a2.22,2.22,0,0,0-1.68-.59,3.16,3.16,0,0,0-1.45.28"/></clipPath><clipPath id="clip-path-10" transform="translate(-783.73 -199.8)"><path class="cls-1" d="M892.83,236.4a8.89,8.89,0,0,1-1,.19,4.28,4.28,0,0,1-.72.07,3.69,3.69,0,0,0-.74.05c-.07,0-.37.09-.21.2a.86.86,0,0,0,.45,0l.53-.08a2.5,2.5,0,0,0,.38-.06l.44-.08.74-.14a2.43,2.43,0,0,1,1.31,0c.16.06.34.09.39.39a.52.52,0,0,0-.16-.46,1,1,0,0,0-.72-.22,3.76,3.76,0,0,0-.66.1"/></clipPath><clipPath id="clip-path-11" transform="translate(-783.73 -199.8)"><path class="cls-1" d="M911.78,238.34l-.65,0c-1,0-2,.08-3,.08s-2.24-.06-3.41-.16c-.54,0-1.09-.12-1.63-.13a12.8,12.8,0,0,0-2.32.15c-.79.13-1.54.37-2.31.57a14,14,0,0,1-4.94.54c-2.56-.3-3.3.78-3.3.78a8,8,0,0,0,2.36.46,27,27,0,0,0,3.79-.1c1.28-.12,2.22-.34,3.17-.51.62-.11,1.12-.16,1.74-.24a12.94,12.94,0,0,1,1.65-.06c.6,0,1.69.14,2.91.19.93,0,2.09,0,3-.09.72,0,2.76-.36,3.37-.46.17,0,5.75-1.12,6.41-2.68a18.16,18.16,0,0,1-6.87,1.63"/></clipPath><clipPath id="clip-path-12" transform="translate(-783.73 -199.8)"><rect class="cls-1" x="855.09" y="227.29" width="24.74" height="13.2"/></clipPath><clipPath id="clip-path-13" transform="translate(-783.73 -199.8)"><path class="cls-1" d="M857.37,227.5a3.22,3.22,0,0,0-1.5,1,4.1,4.1,0,0,0-.78,2.45v.15a6,6,0,0,0,.58,2.42,12.45,12.45,0,0,0,2.87,3.58,23.61,23.61,0,0,0,2.6,2.08c.62.42,1.59.87,2.32,1.32,0,0,10.84-1.86,14.92-1.1,1.39.26,1.45.82,1.45.82s.1-.68-1.06-1.8a23.05,23.05,0,0,0-3.6-2.79c-1.21-.75-2.2-1.54-3.63-2.44-.17-.1-7.76-5.89-12.69-5.89a4.69,4.69,0,0,0-1.48.21"/></clipPath><clipPath id="clip-path-14" transform="translate(-783.73 -199.8)"><path class="cls-1" d="M846.32,230.35Zm13-3.46s-5.7,0-14.65-5.86a21.15,21.15,0,0,0,10.23,5.73l-.38,0c-1.15.08-4.87.15-10.68-2.31.06,0,2.28,2.44,10.93,3.74a7.4,7.4,0,0,1-.95.23,20.67,20.67,0,0,1-9.11-.67s2.53,1.59,9.56,2c0,0-2.77,1.19-7.95.58a28,28,0,0,0,8,.93,15.39,15.39,0,0,1-6.4.77,25.83,25.83,0,0,0,6.69.81A7,7,0,0,1,849.5,234a10.43,10.43,0,0,0,4.62.7c0,.05,2.74,3.4,4.32,3.24a.5.5,0,0,1,.46.3.46.46,0,0,0,.47.25h.14c.18,0,.29,0,.43.24s.15.31.56.32.47.16.56.31a.58.58,0,0,0,.61.37.62.62,0,0,1,.62.31.93.93,0,0,0,1.17.46s-7.52-4.61-8.13-8.58c-.21-1.46-.1-4.69,3.77-4.41s9,3.55,9.34,3.78L864,226.69s-7.75-1.56-16.26-9.11c0,.08,3.54,5.55,11.62,9.31"/></clipPath><clipPath id="clip-path-15" transform="translate(-783.73 -199.8)"><rect class="cls-1" x="859.64" y="227.56" width="15.17" height="16.48"/></clipPath><clipPath id="clip-path-16" transform="translate(-783.73 -199.8)"><path class="cls-1" d="M859.64,227.56s9.52,7.29,7.9,16.48c0,0,7.17-.77,7.27-5.13v-.17a8,8,0,0,0-2-4.54S865.05,228.24,859.64,227.56Z"/></clipPath><clipPath id="clip-path-17" transform="translate(-783.73 -199.8)"><path class="cls-1" d="M851.33,215.06c.42,1.21,1.84,3.67,5.76,7a153.62,153.62,0,0,0,14.09,10.79,21.57,21.57,0,0,0,8,3.17c1.05,0-.81-.66-.81-.66a21.58,21.58,0,0,1-6.14-3.66,17.17,17.17,0,0,1-1.38-1.33,8.9,8.9,0,0,0-2.39-2.14c-1.06-.68-1.48-1-2.62-1.77-1.79-1.24-12.4-8.26-14.15-11.76a5.44,5.44,0,0,1-.54-1,4.22,4.22,0,0,0,.22,1.38"/></clipPath><clipPath id="clip-path-18" transform="translate(-783.73 -199.8)"><path class="cls-1" d="M889.42,237.05c0,.3.46.37,1,.34a6,6,0,0,0,1.34-.24c-2.46.38-2.14-.47-2.14-.47a.49.49,0,0,0-.15.37"/></clipPath><clipPath id="clip-path-19" transform="translate(-783.73 -199.8)"><path class="cls-1" d="M867.67,247.82a1.27,1.27,0,0,0-.18.81c0,.05,0,1,1.74.5a7,7,0,0,0,1.21-.35,1,1,0,0,0,.54-1.13c-2.86,1.4-3.31.17-3.31.17"/></clipPath><clipPath id="clip-path-20" transform="translate(-783.73 -199.8)"><path class="cls-1" d="M868,247.33a8.5,8.5,0,0,1-2.09.78c0-.19-.44-.23-.91.1s.38.73.38.73c.13.73,1.44.24,1.63.15s.86-.4,1.25-.66c.58-.49.41-.92.41-.92a.51.51,0,0,0-.4-.27.54.54,0,0,0-.27.09"/></clipPath></defs><title>AB_InBev</title><g class="cls-2"><g id="Layer_2" data-name="Layer 2"><path class="cls-1" d="M864.75,269.47c-2.1,0-4.84-1-4.9-4h10.46c.12-4.16-2.54-7.19-6.42-7.19-4.24,0-7.13,2.88-7.13,6.83s2.84,6.87,7.9,7a8.33,8.33,0,0,0,5.22-1.69v-2.39a15.52,15.52,0,0,1-5.13,1.4m-.89-8.72c1.86,0,3.44,1.6,3.44,2.55H860c0-1.07,1.44-2.55,3.86-2.55" transform="translate(-783.73 -199.8)"/><path class="cls-1" d="M825.64,253.18v-.08h-4.81v.08c.6.36.75,1.37.78,2.4V269.1c0,1.06-.17,2.14-.78,2.49v.08h4.81v-.08c-.6-.37-.74-1.45-.77-2.5V255.71c0-1.07.17-2.16.77-2.53" transform="translate(-783.73 -199.8)"/><path class="cls-1" d="M850.28,261.88c1.88-.38,4.21-1.48,4.21-4.35,0-2.69-2.23-4.44-6.71-4.44h-6.54v.08c.59.36.74,1.37.78,2.4v13.53c0,1.05-.18,2.13-.78,2.48v.08h7.51c4.14,0,7.14-1.49,7.14-5.29s-3.83-4.47-5.61-4.49m-5-6.14c0-.11,0-.23,0-.35.46,0,.87-.07,1.33-.07,3.46,0,4.55.83,4.55,2.54,0,2.38-2.57,2.9-5.09,2.9a7.26,7.26,0,0,1-.8,0Zm2.77,13.54a14.87,14.87,0,0,1-2.77-.22v-5.83a10.84,10.84,0,0,1,1.11-.07c3.27,0,6,.33,6,3.21,0,1.74-1.06,2.91-4.36,2.91" transform="translate(-783.73 -199.8)"/><path class="cls-1" d="M879.46,258.65v.08c.45.35.19,1.35-.18,2.37l-2.65,6.55-3.65-9h-3.31v.08c.74.35.6,1.37,1.05,2.39l3.23,8a5.1,5.1,0,0,0,3.34,2.57h.14l5.28-13Z" transform="translate(-783.73 -199.8)"/><path class="cls-1" d="M839.56,269.09V263a5,5,0,0,0-.69-2.73,5.23,5.23,0,0,0-4.27-1.94c-1.77,0-2.53.09-3.84,1.22v0l-.73,0-3.33-.88v.08c.6.35.75,1.37.78,2.39v8c0,1.06-.17,2.14-.78,2.49v.08h4.82v-.08c-.61-.37-.75-1.45-.78-2.5v-6a2.56,2.56,0,0,1,2.62-2.67c2.22,0,2.91,1.15,2.94,3.89v4.79c0,1.06-.18,2.14-.78,2.49v.08h4.82v-.08c-.61-.37-.75-1.45-.78-2.5" transform="translate(-783.73 -199.8)"/><path class="cls-1" d="M859.27,265.11h10.46c.11-4.16-2.54-7.19-6.42-7.19-4.25,0-7.13,2.88-7.13,6.83s2.9,7,7.9,7a9,9,0,0,0,5.22-1.6v-2.44a11.46,11.46,0,0,1-5.14,1.36c-2.22-.07-4.83-1-4.89-4m4-4.76c1.86,0,3.44,1.6,3.44,2.55h-7.31c0-1.07,1.45-2.55,3.87-2.55" transform="translate(-783.73 -199.8)"/><path class="cls-1" d="M825.06,252.79v-.09h-4.81v.09c.59.35.75,1.36.78,2.39v13.53c0,1.05-.18,2.13-.78,2.48v.08h4.81v-.08c-.6-.36-.75-1.45-.78-2.5V255.31c0-1.06.18-2.16.78-2.52" transform="translate(-783.73 -199.8)"/><path class="cls-1" d="M849.7,261.48c1.88-.38,4.2-1.47,4.2-4.35,0-2.69-2.22-4.44-6.71-4.44h-6.53v.09c.59.35.74,1.36.78,2.39v13.53c0,1.05-.18,2.13-.78,2.48v.08h7.51c4.13,0,7.14-1.5,7.14-5.3s-3.83-4.47-5.61-4.49m-5-6.14c0-.11,0-.23,0-.35.46,0,.87-.07,1.33-.07,3.46,0,4.54.83,4.54,2.54,0,2.38-2.56,2.9-5.08,2.9a7.51,7.51,0,0,1-.81,0Zm2.78,13.54a15,15,0,0,1-2.78-.22v-5.83a11,11,0,0,1,1.12-.07c3.27,0,6,.33,6,3.21,0,1.75-1.06,2.91-4.36,2.91" transform="translate(-783.73 -199.8)"/><path class="cls-1" d="M878.88,258.25v.08c.45.35.2,1.36-.18,2.37L876,267.25l-3.64-9h-4v.08a4.74,4.74,0,0,1,1.74,2.4l3.23,8a5.13,5.13,0,0,0,3.34,2.56h.14l5.28-13Z" transform="translate(-783.73 -199.8)"/><path class="cls-1" d="M839,268.69v-6.1a5.07,5.07,0,0,0-.69-2.73,5.23,5.23,0,0,0-4.27-1.93c-1.78,0-2.53.08-3.84,1.21l0,0v-.9h-4.06v.08c.6.36.75,1.37.78,2.39v8c0,1.05-.17,2.13-.78,2.48v.08h4.81v-.08c-.6-.36-.74-1.45-.77-2.5v-6a2.55,2.55,0,0,1,2.62-2.67c2.22,0,2.91,1.14,2.94,3.88v4.8c0,1.05-.17,2.13-.78,2.48v.08h4.81v-.08c-.6-.36-.75-1.45-.77-2.5" transform="translate(-783.73 -199.8)"/><path class="cls-1" d="M812.85,261.88c1.87-.38,4.2-1.48,4.2-4.35,0-2.69-2.22-4.44-6.71-4.44H803.8v.08c.6.36.75,1.37.78,2.4v5.3a28,28,0,0,0-5.28.66l-3.43-8.48H792l0,0h-.27v.08c.45.36.19,1.37-.19,2.4l-5.48,13.53a5,5,0,0,1-1.78,2.48v.08h4a15.38,15.38,0,0,1,3.89-4.11,19.63,19.63,0,0,1,5.31-2.83l1.76,4.34c.4,1.05.7,2.13.23,2.48v.09h3.88L800.28,264a24.25,24.25,0,0,1,4.3-.51v5.65c0,1.05-.17,2.13-.78,2.48v.08h7.52c4.13,0,7.13-1.49,7.13-5.29s-3.83-4.47-5.6-4.49m-22,3.46,3.45-8.51,2.23,5.51a22.16,22.16,0,0,0-5.68,3m17-9.6c0-.11,0-.23,0-.35.45,0,.87-.07,1.33-.07,3.45,0,4.54.83,4.54,2.54,0,2.38-2.57,2.9-5.09,2.9a7.36,7.36,0,0,1-.8,0Zm2.78,13.54a15,15,0,0,1-2.78-.22v-5.83a11,11,0,0,1,1.11-.07c3.28,0,6,.33,6,3.21,0,1.74-1.06,2.91-4.35,2.91" transform="translate(-783.73 -199.8)"/><path class="cls-1" d="M812.26,261.48c1.89-.38,4.21-1.47,4.21-4.35,0-2.69-2.23-4.44-6.71-4.44h-6.54v.09c.6.35.75,1.36.78,2.39v5.3a27.89,27.89,0,0,0-5.18.64l-3.41-8.42h-4.22v.09c.45.35.19,1.36-.19,2.39l-5.48,13.53a4.91,4.91,0,0,1-1.79,2.48v.08h4a15.55,15.55,0,0,1,3.89-4.11,19.39,19.39,0,0,1,5.24-2.8l1.77,4.35c.39,1.05.69,2.13.22,2.48v.08h4.07l-3.13-7.72a26.18,26.18,0,0,1,4.2-.49v5.65c0,1.05-.17,2.13-.78,2.48v.08h7.52c4.13,0,7.13-1.5,7.13-5.3s-3.83-4.47-5.61-4.49m-22,3.46,3.4-8.4,2.2,5.43a21.88,21.88,0,0,0-5.6,3m17-9.6c0-.11,0-.23,0-.35.46,0,.88-.07,1.33-.07,3.46,0,4.55.83,4.55,2.54,0,2.38-2.57,2.9-5.09,2.9a7.36,7.36,0,0,1-.8,0ZM810,268.88a15,15,0,0,1-2.78-.22v-5.83a10.84,10.84,0,0,1,1.11-.07c3.28,0,6,.33,6,3.21,0,1.75-1.07,2.91-4.36,2.91" transform="translate(-783.73 -199.8)"/><path class="cls-1" d="M890,240.13s3.1-3.22,3.94-3.31c.27,0,.39.43.08.94-.08.14,0,.32.52-.22s1.56-2.17.17-3a3.15,3.15,0,0,0-2.3-.31s-1.12-1.89-4.18-.43a10.6,10.6,0,0,1-5.06,1.37c-2.36.09-6.9-.83-12.54-6.78l-10.11-3.31s-10.76-5.46-15.36-11.25c-.17-.38.74,5.57,8.85,11.11a36.5,36.5,0,0,1-12.88-8.11c-.12-.16,1.24,5,7.9,8.61a26.62,26.62,0,0,1-9.38-4.34s1.15,4.58,9.08,6.64a47.47,47.47,0,0,1-9-2.6c-.35-.28,2.3,3.54,8.24,4.68,0,0-1.49-.15-3-.4-1.17-.21-3.46-.75-3.46-.75s.5,1.5,6.26,2.65l-4.51-.56s.23,1.36,6.52,2.41a13.22,13.22,0,0,1-4.55-.81s.46,1.43,4.85,2.73a11.85,11.85,0,0,0,2.94.42s2.86,2.93,4.21,3.42c.41.15.52,0,.69.11s.06.2.29.37.39,0,.6.09.13.29.4.45.48-.08.68,0,.1.38.38.53.53-.09.79,0,0,.39.42.58.51,0,.79.12.06.41.47.61.63-.09.85.09.19.46.61.81a10,10,0,0,0,2.08,1.22,112,112,0,0,0-12,2.32c0,.62.66,1.4,2,2a9.82,9.82,0,0,0,3,.75s-3.6,1.57-4.23,2.36c.11.16,1.26,1,6.25.09,0,0-3,1.88-3.54,2.77a7.09,7.09,0,0,0,6.13-.65,5.69,5.69,0,0,0-1.16,1.67,5.73,5.73,0,0,0,3.65-1.26s-.33,1.51,1.8-.17c0,0,.88.9,4.08-3.45a13.16,13.16,0,0,0,1.23-2.07,32,32,0,0,0,4.38-.94,6,6,0,0,0,2,.27c1-.08.62.22,1.58.39.71.13.89-.12,1.28-.08s.4.25,1,.32.79-.13,1.26,0a12.08,12.08,0,0,0,3.47.81c2.22.25,3.69-.12,4.38-.63,0,0,3.86.58,4.45-.65,0,0,4,.46,3.85-.58.21,0,5.37.92,6.24-.7a19.78,19.78,0,0,1-2.76-.55c.54,0,7,1.12,8.43-.84-.59,0-4.8-.73-4.74-.76s7.84,1,9.17-1.67c-.28,0-6.23-.23-6.31-.37s7,.35,7.43-2.36a44.09,44.09,0,0,1-7.17.21c.11-.16,6.78-.63,7.44-3.82-.31,0-3.33,2.39-13.16,1.75a16.81,16.81,0,0,0-7.14.39,13.07,13.07,0,0,1-5.47.63,3.56,3.56,0,0,0-3.16,1" transform="translate(-783.73 -199.8)"/><path class="cls-1" d="M854.79,246.43l-.2.07a1.25,1.25,0,0,0,.49.81,8.05,8.05,0,0,0,4.95,1.54s-2.74,1.34-3.61,1.82a6.12,6.12,0,0,0-1.12.72s.83.84,6.74-.2a33.42,33.42,0,0,0-4,3c0,.11,3.11,1.18,6.71-1.31,0,0-.72.73-1.33,1.51-.14.19-.28.39-.38.55a.89.89,0,0,0-.12.24s0,0,0,0h.11a6.11,6.11,0,0,0,3.55-1.54c-.08.14-.66,1.82,1.54,0,0,0,.56.83,3-2.19s2.26-3.83,2.26-3.83l-2.57-4.09s-13.13,2-16.12,2.92" transform="translate(-783.73 -199.8)"/><g class="cls-3"><rect class="cls-1" x="70.85" y="43.71" width="19.05" height="11.93"/></g><path class="cls-1" d="M860.53,253.48Zm-3.25-6.55a8.44,8.44,0,0,0,5,1.26c-1,.58-4.37,2.3-4.74,2.72a37.81,37.81,0,0,0,6.56-.69c-1,.88-2.82,2.38-3.58,3.26a11.4,11.4,0,0,0,5.6-2,12.41,12.41,0,0,1-1.9,2.91,9.24,9.24,0,0,0,3.43-2.29c-.07.11-1.27,2.78,1.37.14,0,.13.08,1.4,2.55-2,1.92-2.78,1.16-3.59,1.16-3.59l-1.44-2.89s-11.85,2.34-14,3.12" transform="translate(-783.73 -199.8)"/><g class="cls-4"><rect class="cls-1" x="73.51" y="44.01" width="16.25" height="11.07"/></g><path class="cls-1" d="M905.47,240.3s10.64-.66,13.17-3.59c0,0-.82,3.64-13.17,3.59" transform="translate(-783.73 -199.8)"/><path class="cls-1" d="M875.75,246.76l1.64.22a4,4,0,0,0,1.75.49,3.16,3.16,0,0,0,.61,0l.49,0a.65.65,0,0,1,.47.09,1.71,1.71,0,0,0,1,.37,1.91,1.91,0,0,0,.67-.07.84.84,0,0,1,.6,0,2.54,2.54,0,0,0,1.71.24.8.8,0,0,1,.55,0,9.15,9.15,0,0,0,2.17.63,10.87,10.87,0,0,0,1.48.2,12.14,12.14,0,0,0,1.89,0c1,0,1.85-.41,1.7-.47-2.42-.24-3.19-.9-2.88-.83,5.88,1.46,7.59.48,7.33.33-3-.64-3.66-1.11-3.55-1.16,4.93,1.37,7.77.89,7.45.66a34.58,34.58,0,0,1-5.32-2c7,2.25,10,1.89,11.08,1.52a1.39,1.39,0,0,0,.54-.28c-6.73-.95-7.88-2.09-7.88-2.13,7.94,2,11.38,1.57,12.75,1.13a2.93,2.93,0,0,0,.81-.37c-8.61-1.22-8.73-1.74-8.86-1.79,11.56,2.24,13.39-.65,13.32-.65a61.24,61.24,0,0,1-10.76-1c11.1,1.08,11.92-1.67,11.92-1.67a68.46,68.46,0,0,1-11.36,0,35.32,35.32,0,0,0-9.33.43c-8.9,1.21-8.63-.86-8.63-.86-1.89,1.94-12.54,6.39-13.32,7" transform="translate(-783.73 -199.8)"/><g class="cls-5"><rect class="cls-1" x="92.01" y="39.95" width="42.64" height="9.32"/></g><path class="cls-1" d="M905.5,246.67h0m-28.62-.62,6.66,1.17c4.09,1.8,8.17,1.45,7.86,1.32-3.06-.47-4-1.91-3.54-1.71,5.37,1.66,8.56,1.34,8.32,1.21-4-.78-3.72-1.84-3.83-1.9,2.54,1.08,7.37,1.42,7.07,1.21-4.67-1.31-4.85-2.42-4.85-2.42,7.29,1.94,10,1.86,10.71,1.77l.22,0c-7.18-1-7.83-2.84-7.83-2.88,7.79,1.83,11.86,1.71,13.21,1.58l.53-.06c-8.71-.79-9.09-2.4-9.22-2.44a36.92,36.92,0,0,0,13.25.24c-9.13-.12-11.28-1.67-11.4-1.73,8.82.88,12.49-.7,12.49-.7-1.61.36-9.57-.36-12.56-.55s-2.74-.12-7.09.45c-6.47.63-7.78-.62-7.78-.62-.69.72-10.39,4.65-12.22,6.09" transform="translate(-783.73 -199.8)"/><g class="cls-6"><rect class="cls-1" x="876.37" y="235.15" width="40.68" height="18.62" transform="translate(-816.33 28.97) rotate(-14.28)"/></g><path class="cls-1" d="M903.91,243.51s10.06,1.05,13.33-.64c0,0-1.59,2.86-13.33.64" transform="translate(-783.73 -199.8)"/><path class="cls-1" d="M899.21,244.54s9.81,1.87,13.56.76c-.07,0-1.9,2.25-13.56-.76" transform="translate(-783.73 -199.8)"/><path class="cls-1" d="M895.47,245.43s8.16,2.25,11.62,1.24c0,0-1.78,2-11.62-1.24" transform="translate(-783.73 -199.8)"/><path class="cls-1" d="M906.47,241.9s10.59,1.21,11.92-1.67c0,0-2.46,2-11.92,1.67" transform="translate(-783.73 -199.8)"/><path class="cls-1" d="M840.08,221.71Zm17.17,4.64c-.5-.16-9.83-2.5-15.75-8.83,0,0,3.27,7,10.61,8.77a26.36,26.36,0,0,1-12-4.58c.16.14,2.35,5.08,11.92,6.45,0,0-4.44.52-11.61-2.5A16.2,16.2,0,0,0,851.57,230a25.86,25.86,0,0,1-9.47-1c-.16.11,4,2.51,9.6,2.46.07,0-1.85.58-7.9-.43-.25,0,3.25,2,8.61,2.11.06,0-2.45,1-6.67-.43-.17.08,3.38,2.58,7.46,2.56l.7.65s2.8,2.94,3.93,2.81a.4.4,0,0,1,.44.22.34.34,0,0,0,.19.23.37.37,0,0,0,.25,0,.52.52,0,0,1,.3,0c.25.12.18.29.31.4a.59.59,0,0,0,.53.1c.31-.06.41.21.51.41s.33.23.63.14a.38.38,0,0,1,.43.21c.07.14.07.31.19.42a.66.66,0,0,0,.51.11.48.48,0,0,1,.39,0c.14.1.15.29.23.41s.24.33.81.24c.34-.05.46.27.58.53s.91.82,1.15,1a13.39,13.39,0,0,0,1.78.89l.84-.12h0s2,.76-1.83,3.9c.67,1.14,13.37,1,20.66-5.23.59-.51,1.27-1.24,1.9-1.82,0-.09.16-4.62-.71-6.63,0,0-7.95,5.07-17.13-5.53a4.44,4.44,0,0,0-1.54,0c-1.24.1-2.84.2-3.5-.45,0,0-15.38-7.3-20.17-13.51,0,0,2.52,7.28,11.66,11.61" transform="translate(-783.73 -199.8)"/><g class="cls-7"><rect class="cls-1" x="56.35" y="14.94" width="48.72" height="34.3"/></g><path class="cls-1" d="M881.7,241.08c-3.19,3.88-12.89,5.95-13.59,6.09.68,0,.53.29.53.29.18.6-.06.81-.06.81a4.23,4.23,0,0,0,2.41-.74,3.88,3.88,0,0,1,0,.9c11.31-.85,16.14-6.17,16.14-6.17l-1.46.63c-.31.14,0-.08,0-.08l.92-.94-1.29.36.81-.78-2.65.58,1.16-1.47Z" transform="translate(-783.73 -199.8)"/><g class="cls-8"><rect class="cls-1" x="867.33" y="237.29" width="20.62" height="14.42" transform="translate(-811.58 145.35) rotate(-21.91)"/></g><path class="cls-1" d="M892.34,234.79s-1.07-2.46-5.21-.13c0,0,.71-.31.9-.15a5.24,5.24,0,0,0-2.06,1.08s.34-.1.4,0a7.77,7.77,0,0,1-4.17.85,3.2,3.2,0,0,0,1.39.27,5.46,5.46,0,0,1-2.83.15s.07.39,1.07.6a9,9,0,0,1-1.92.28s.21.29,1.41.35a4,4,0,0,1-1.5.69,5.37,5.37,0,0,0,2.41-.29,17.05,17.05,0,0,1-2.21,1.23,7.33,7.33,0,0,0,2.22-.18s-.22.33-1.15.79a6.34,6.34,0,0,0,1.76-.24,4.55,4.55,0,0,1-1.3,1.08,14.88,14.88,0,0,0,2.92-.51,15.42,15.42,0,0,1-1.24,1.51s1.1-.19,2-.45c.35-.09.85-.27.38.15s-.5.49-.5.49a9.83,9.83,0,0,0,1.16-.33,6.41,6.41,0,0,1-1,1.06,6.25,6.25,0,0,0,1.65-.56s.09.56.37.75a19.49,19.49,0,0,1,2.73-3.15c.79-.93,2.61-2.65,2.76-3,.4-.8-.34-2.19-.41-2.36" transform="translate(-783.73 -199.8)"/><path class="cls-1" d="M889.41,235s-.1.59,1.11.36c0,0-.93.39-1.31-.21a2.31,2.31,0,0,0-.69.08,3.33,3.33,0,0,1,.89-.23" transform="translate(-783.73 -199.8)"/><path class="cls-1" d="M889.44,234.91a1.24,1.24,0,0,1,1.14,0c.06,0,0,0,.1.07h.1l.23,0h.21c.06,0,.13,0,.13-.11a.31.31,0,0,0-.17-.23.43.43,0,0,0-.24,0,.54.54,0,0,1,.13.1c.06.09,0,.19-.36.05,0,0-1.15-.46-1.27.16" transform="translate(-783.73 -199.8)"/><path class="cls-1" d="M890.74,235c0,.18-.25.31-.56.31s-.55-.13-.55-.31.25-.31.55-.31.56.14.56.31" transform="translate(-783.73 -199.8)"/><path class="cls-1" d="M890.58,235c0,.13-.17.23-.37.23s-.37-.1-.37-.23.17-.23.37-.23.37.11.37.23" transform="translate(-783.73 -199.8)"/><path class="cls-1" d="M890.41,235c0,.07-.09.13-.2.13s-.2-.06-.2-.13.09-.12.2-.12.2,0,.2.12" transform="translate(-783.73 -199.8)"/><path class="cls-1" d="M890.26,234.75a.71.71,0,0,0,.32.25c.17.06,0-.22,0-.22Z" transform="translate(-783.73 -199.8)"/><path class="cls-1" d="M888.44,234c-.47.19-.92.41-1.38.63a12.24,12.24,0,0,1-1.57.54,8.31,8.31,0,0,0,1.77-.51l.62-.26c.37-.15.74-.3,1.12-.42a2.85,2.85,0,0,1,2.23.15,1.11,1.11,0,0,1,.54.63v0a1.67,1.67,0,0,1,.57-.21c-.05,0,0,0-.08-.08a2.24,2.24,0,0,0-1.46-.89,3.88,3.88,0,0,0-1.59.13c-.26.08-.52.17-.77.27" transform="translate(-783.73 -199.8)"/><g class="cls-9"><rect class="cls-1" x="100.11" y="36.91" width="9.57" height="6.2"/><g class="cls-10"><path class="cls-1" d="M888.13,237.89c.68-.18,1.42,0,1.12.4a11.56,11.56,0,0,1-1.76.82c1.16-.26,1,.17.08.56a23.56,23.56,0,0,1-2.32.84l.55-.08c.45-.07,1-.13.8,0a23.21,23.21,0,0,1-2.76,1.38,12.61,12.61,0,0,0,2.51-.64c.23-.09,0,.14-.15.37s-.42.46-.31.38a3.54,3.54,0,0,0,1.08-.32,9.57,9.57,0,0,1-1,1.07,7.75,7.75,0,0,0,1.35-.54c-.05.12-.22.59-.07.8a14.18,14.18,0,0,1,1.45-1.8c.6-.6,1.17-1.2,2.16-2.17a21.77,21.77,0,0,1,2.56-2.16,4.58,4.58,0,0,0-1.13,0c-.85.07-1.88.14-1.91-.11a14.37,14.37,0,0,1-2.25,1.18" transform="translate(-783.73 -199.8)"/><g class="cls-11"><rect class="cls-1" x="882.92" y="234.53" width="11.42" height="10.61" transform="translate(-760.65 353.11) rotate(-34.99)"/></g></g></g><path class="cls-1" d="M891.71,234.68c-.29.24-.29,1.15-.62,1.5s-1.32.14-1.55.54c-.49.91,1.45.63,2.88.26.66-.15.14.44.14.44l.23-.19.26-.18a4.33,4.33,0,0,1,.51-.31.82.82,0,0,1,.3-.1c.07,0,.2,0,.25,0,.57.29,0,1,0,1.06.45-.33,1.54-1.74.68-2.7a2.22,2.22,0,0,0-1.68-.59,3.16,3.16,0,0,0-1.45.28" transform="translate(-783.73 -199.8)"/><g class="cls-12"><rect class="cls-1" x="888.84" y="233.91" width="7.08" height="4.27" transform="translate(-809.38 -60.09) rotate(-8.83)"/></g><path class="cls-1" d="M892.83,236.4a8.89,8.89,0,0,1-1,.19,4.28,4.28,0,0,1-.72.07,3.69,3.69,0,0,0-.74.05c-.07,0-.37.09-.21.2a.86.86,0,0,0,.45,0l.53-.08a2.5,2.5,0,0,0,.38-.06l.44-.08.74-.14a2.43,2.43,0,0,1,1.31,0c.16.06.34.09.39.39a.52.52,0,0,0-.16-.46,1,1,0,0,0-.72-.22,3.76,3.76,0,0,0-.66.1" transform="translate(-783.73 -199.8)"/><g class="cls-13"><rect class="cls-1" x="889.94" y="235.95" width="4.47" height="1.38" transform="translate(-810.1 -54.05) rotate(-9.2)"/></g><path class="cls-1" d="M892.49,234.9c.07.06,0,.25-.12.38s-.31.18-.39.12,0-.23.1-.36.33-.19.41-.14" transform="translate(-783.73 -199.8)"/><path class="cls-1" d="M892.48,234.87c.08.06,0,.2-.11.33s-.3.18-.38.13,0-.21.11-.33.3-.18.38-.13" transform="translate(-783.73 -199.8)"/><path class="cls-1" d="M892.6,234.62s1.61-.41,2.06.78c0,0-.29-.72-2.06-.78" transform="translate(-783.73 -199.8)"/><path class="cls-1" d="M911.78,238.34l-.65,0c-1,0-2,.08-3,.08s-2.24-.06-3.41-.16c-.54,0-1.09-.12-1.63-.13a12.8,12.8,0,0,0-2.32.15c-.79.13-1.54.37-2.31.57a14,14,0,0,1-4.94.54c-2.56-.3-3.3.78-3.3.78a8,8,0,0,0,2.36.46,27,27,0,0,0,3.79-.1c1.28-.12,2.22-.34,3.17-.51.62-.11,1.12-.16,1.74-.24a12.94,12.94,0,0,1,1.65-.06c.6,0,1.69.14,2.91.19.93,0,2.09,0,3-.09.72,0,2.76-.36,3.37-.46.17,0,5.75-1.12,6.41-2.68a18.16,18.16,0,0,1-6.87,1.63" transform="translate(-783.73 -199.8)"/><g class="cls-14"><rect class="cls-1" x="106.47" y="36.91" width="28.45" height="4.01"/></g><path class="cls-1" d="M890.19,240.2s.74-1.08,3.3-.78a14,14,0,0,0,4.94-.54c.77-.2,1.52-.44,2.31-.57a12.8,12.8,0,0,1,2.32-.15c.55,0,1.09.08,1.63.13,1.17.1,2.27.17,3.41.16s2,0,3-.08l.65,0c0,.41-.94.51-1.23.56a16.2,16.2,0,0,1-2,.13c-.93,0-1.87,0-2.8,0s-1.82-.14-2.73-.17a9.93,9.93,0,0,0-1.54.07c-.62.08-1.23.19-1.85.3a30,30,0,0,1-3.11.59,12.57,12.57,0,0,1-3.08,0,5.21,5.21,0,0,0-3.19.4" transform="translate(-783.73 -199.8)"/><g class="cls-15"><rect class="cls-1" x="71.36" y="27.49" width="24.74" height="13.2"/><g class="cls-16"><path class="cls-1" d="M857.37,227.5a3.22,3.22,0,0,0-1.5,1,4.1,4.1,0,0,0-.78,2.45v.15a6,6,0,0,0,.58,2.42,12.45,12.45,0,0,0,2.87,3.58,23.61,23.61,0,0,0,2.6,2.08c.62.42,1.59.87,2.32,1.32,0,0,10.84-1.86,14.92-1.1,1.39.26,1.45.82,1.45.82s.1-.68-1.06-1.8a23.05,23.05,0,0,0-3.6-2.79c-1.21-.75-2.2-1.54-3.63-2.44-.17-.1-7.76-5.89-12.69-5.89a4.69,4.69,0,0,0-1.48.21" transform="translate(-783.73 -199.8)"/><g class="cls-17"><rect class="cls-1" x="857.83" y="220.16" width="19.36" height="27.47" transform="translate(-373.54 807.49) rotate(-74.49)"/></g></g></g><path class="cls-1" d="M846.32,230.35Zm13-3.46s-5.7,0-14.65-5.86a21.15,21.15,0,0,0,10.23,5.73l-.38,0c-1.15.08-4.87.15-10.68-2.31.06,0,2.28,2.44,10.93,3.74a7.4,7.4,0,0,1-.95.23,20.67,20.67,0,0,1-9.11-.67s2.53,1.59,9.56,2c0,0-2.77,1.19-7.95.58a28,28,0,0,0,8,.93,15.39,15.39,0,0,1-6.4.77,25.83,25.83,0,0,0,6.69.81A7,7,0,0,1,849.5,234a10.43,10.43,0,0,0,4.62.7c0,.05,2.74,3.4,4.32,3.24a.5.5,0,0,1,.46.3.46.46,0,0,0,.47.25h.14c.18,0,.29,0,.43.24s.15.31.56.32.47.16.56.31a.58.58,0,0,0,.61.37.62.62,0,0,1,.62.31.93.93,0,0,0,1.17.46s-7.52-4.61-8.13-8.58c-.21-1.46-.1-4.69,3.77-4.41s9,3.55,9.34,3.78L864,226.69s-7.75-1.56-16.26-9.11c0,.08,3.54,5.55,11.62,9.31" transform="translate(-783.73 -199.8)"/><g class="cls-18"><rect class="cls-1" x="60.11" y="17.78" width="24.61" height="23.15"/></g><g class="cls-15"><rect class="cls-1" x="75.9" y="27.76" width="15.17" height="16.48"/><g class="cls-19"><path class="cls-1" d="M859.64,227.56s9.52,7.29,7.9,16.48c0,0,7.17-.77,7.27-5.13v-.17a8,8,0,0,0-2-4.54S865.05,228.24,859.64,227.56Z" transform="translate(-783.73 -199.8)"/><g class="cls-20"><rect class="cls-1" x="75.9" y="27.76" width="15.17" height="16.48"/></g></g></g><path class="cls-1" d="M851.08,213.16s-2.83,2.71,10.23,12.92c4.39,3.39,12.82,10.44,18.32,10.38,1.26-.07,1.76-.42-.1-1.06s-6.32-2.83-8.65-6.66c-.36-.78-2.11-1.25-4.88-3.1,0,0-11.32-6.72-14.92-12.48" transform="translate(-783.73 -199.8)"/><path class="cls-1" d="M851.33,215.06c.42,1.21,1.84,3.67,5.76,7a153.62,153.62,0,0,0,14.09,10.79,21.57,21.57,0,0,0,8,3.17c1.05,0-.81-.66-.81-.66a21.58,21.58,0,0,1-6.14-3.66,17.17,17.17,0,0,1-1.38-1.33,8.9,8.9,0,0,0-2.39-2.14c-1.06-.68-1.48-1-2.62-1.77-1.79-1.24-12.4-8.26-14.15-11.76a5.44,5.44,0,0,1-.54-1,4.22,4.22,0,0,0,.22,1.38" transform="translate(-783.73 -199.8)"/><g class="cls-21"><rect class="cls-1" x="848.03" y="206.51" width="35.22" height="36.66" transform="translate(-612.05 589.24) rotate(-53.67)"/></g><path class="cls-1" d="M889.42,237.05c0,.3.46.37,1,.34a6,6,0,0,0,1.34-.24c-2.46.38-2.14-.47-2.14-.47a.49.49,0,0,0-.15.37" transform="translate(-783.73 -199.8)"/><g class="cls-22"><rect class="cls-1" x="889.19" y="236.49" width="2.57" height="1.23" transform="translate(-810.2 -54.2) rotate(-9.21)"/></g><path class="cls-1" d="M867.67,247.82a1.27,1.27,0,0,0-.18.81c0,.05,0,1,1.74.5a7,7,0,0,0,1.21-.35,1,1,0,0,0,.54-1.13c-2.86,1.4-3.31.17-3.31.17" transform="translate(-783.73 -199.8)"/><g class="cls-23"><rect class="cls-1" x="867.25" y="247.26" width="4.05" height="2.71" transform="translate(-817.14 -2.23) rotate(-12.72)"/></g><path class="cls-1" d="M868,247.33a8.5,8.5,0,0,1-2.09.78c0-.19-.44-.23-.91.1s.38.73.38.73c.13.73,1.44.24,1.63.15s.86-.4,1.25-.66c.58-.49.41-.92.41-.92a.51.51,0,0,0-.4-.27.54.54,0,0,0-.27.09" transform="translate(-783.73 -199.8)"/><g class="cls-24"><rect class="cls-1" x="864.18" y="246.79" width="4.86" height="3.34" transform="translate(-817.17 -2.99) rotate(-12.71)"/></g><path class="cls-1" d="M871,247.22a4.17,4.17,0,0,1-2.24.76.68.68,0,0,0,.07-.23.45.45,0,0,0,0-.23c-.08-.45-.59-.42-.92-.3a2.16,2.16,0,0,0-.39.22,4.91,4.91,0,0,1-1.72.48c0-.32-.69,0-.67,0-.48-.17,0-.65,0-.65-1.21.28-.51,1-.51,1-.16.17.11.4.13.38.06.41.59.46.57.46.21.39.85.38,1.19.27s.91-.37,1-.37c.32.5,1.29.33,1.62.26a5.5,5.5,0,0,0,1.54-.47,1.25,1.25,0,0,0,.4-1.61m-1.2,1.68a.42.42,0,0,1-.47-.29.24.24,0,0,0,.09.39,4,4,0,0,1-.67.12s-.42,0-.39-.32c0,0-.26.13,0,.36,0,0-.64.09-.78-.36a3.65,3.65,0,0,0-.47.18s-.28,0-.28-.15c0,0-.17.14,0,.27,0,0-1,.37-1-.06a7.42,7.42,0,0,0,2.39-1.06,8.29,8.29,0,0,1-1.1.47c-.07,0-.45-.07-.44-.31,0,0-.33.16.1.43l-.22.08-.23.07s-.39,0-.44-.32c0,0-.28.24.13.43,0,0-.74.3-1.09-.21-.12-.2.13-.42.34-.51s.52-.14.47.09a9.1,9.1,0,0,0,2.15-.68c.42-.25,1,.08.38.86a4.06,4.06,0,0,0,2.58-.62s.25.84-1,1.14" transform="translate(-783.73 -199.8)"/><path class="cls-1" d="M867.61,248.61s.07.11.42,0c0,0-.29,0-.36-.18,0,0-.14.14-.06.22" transform="translate(-783.73 -199.8)"/><path class="cls-1" d="M889.55,240.5s2.47,1.29,10.34-.14a16.2,16.2,0,0,1,3.49-.21,27.57,27.57,0,0,0,9.45-.88,38.75,38.75,0,0,1-8.33.58,14.66,14.66,0,0,0-4.61.11s-7,1.38-9.93.15Z" transform="translate(-783.73 -199.8)"/><path class="cls-1" d="M851.11,213.68s3.44,6,18.77,14.6a2.08,2.08,0,0,1,.88.75c.24.4.45.81.72,1.18A13.41,13.41,0,0,0,873,232a16.76,16.76,0,0,0,2,1.67,15.66,15.66,0,0,0,1.58.94,19,19,0,0,1-6.7-5.11,23.43,23.43,0,0,0-3.23-2.23c-.09-.06-14.58-9.48-15.54-13.55" transform="translate(-783.73 -199.8)"/></g></g></svg>