<?xml version="1.0" encoding="utf-8"?>
<!-- Generator: Adobe Illustrator 24.3.0, SVG Export Plug-In . SVG Version: 6.00 Build 0)  -->
<svg version="1.1" id="Layer_1" xmlns="http://www.w3.org/2000/svg" xmlns:xlink="http://www.w3.org/1999/xlink" x="0px" y="0px"
	 viewBox="0 0 269.5 93.8" style="enable-background:new 0 0 269.5 93.8;" xml:space="preserve">
<style type="text/css">
	.st0{fill:#231F20;}
	.st1{clip-path:url(#SVGID_2_);}
	.st2{clip-path:url(#SVGID_4_);}
</style>
<path class="st0" d="M179.1,72c-0.1,0-0.2,0.1-0.2,0.1c-12,6.6-24,13.1-34.8,18.8c13.9-6.3,25.2-11.8,36-17.5
	C179.8,72.9,179.5,72.5,179.1,72"/>
<path class="st0" d="M251.8,11.2c3.2,8.9-12.4,23.2-34.8,38c0.2,0.8,0.4,1.6,0.5,2.4c0.1,0,0.1-0.1,0.2-0.1
	C245.2,34.6,260.2,24,251.8,11.2"/>
<path class="st0" d="M177.3,67.8L177.3,67.8C166.1,75.7,153,84,138.8,92.7l-0.6,0.3c-0.2,0.1-0.2,0.4-0.1,0.6
	c0.1,0.2,0.4,0.2,0.6,0.1l0.5-0.2c12-6.3,25.8-13.7,39.7-21.4c0.1,0,0.1-0.1,0.2-0.1C178.3,70.7,177.7,69.3,177.3,67.8 M250.3,8.7
	C232.8-10.6,120,6.7,72,17.3l-1.1,0.2c-0.2,0-0.4,0.3-0.3,0.5c0,0.2,0.2,0.4,0.5,0.4c0,0,0,0,0,0l1.1-0.2
	c39.7-7,122.4-16.9,140.2,0.8c5.4,5.4,4.1,12.3-2.2,20.5c3.5,2.3,6,5.8,6.9,9.9C241.6,32.9,258.1,17.4,250.3,8.7L250.3,8.7z"/>
<g>
	<defs>
		<path id="SVGID_1_" d="M177.3,67.8L177.3,67.8C166.1,75.7,153,84,138.8,92.7l-0.6,0.3c-0.2,0.1-0.2,0.4-0.1,0.6
			c0.1,0.2,0.4,0.2,0.6,0.1l0.5-0.2c12-6.3,25.8-13.7,39.7-21.4c0.1,0,0.1-0.1,0.2-0.1C178.3,70.7,177.7,69.3,177.3,67.8 M250.3,8.7
			C232.8-10.6,120,6.7,72,17.3l-1.1,0.2c-0.2,0-0.4,0.3-0.3,0.5c0,0.2,0.2,0.4,0.5,0.4c0,0,0,0,0,0l1.1-0.2
			c39.7-7,122.4-16.9,140.2,0.8c5.4,5.4,4.1,12.3-2.2,20.5c3.5,2.3,6,5.8,6.9,9.9C241.6,32.9,258.1,17.4,250.3,8.7L250.3,8.7z"/>
	</defs>
	<clipPath id="SVGID_2_">
		<use xlink:href="#SVGID_1_"  style="overflow:visible;"/>
	</clipPath>
	<g class="st1">
		<rect y="0" class="st0" width="269.5" height="93.7"/>
		<g>
			<defs>
				<rect id="SVGID_3_" y="0" width="269.5" height="93.8"/>
			</defs>
			<clipPath id="SVGID_4_">
				<use xlink:href="#SVGID_3_"  style="overflow:visible;"/>
			</clipPath>
			<g class="st2">
				
					<rect x="-6.2" y="-57.7" transform="matrix(0.8829 -0.4695 0.4695 0.8829 -6.2532 68.7571)" class="st0" width="282" height="209.3"/>
			</g>
		</g>
	</g>
</g>
<path class="st0" d="M184.4,62.8c0.2,6.8,4.5,12.4,10.1,12.4c10.9,0,15.5-13.4,15.2-22.3c-0.2-6.8-4.6-12.4-10.2-12.4
	C190.1,40.5,184.1,53.8,184.4,62.8 M178.7,62.4c-0.4-11.6,8.6-23.5,21.8-23.5c8.8,0,14.6,5.9,14.9,14.9c0.4,12.2-8.1,23.5-21.9,23.5
	C184.7,77.3,178.9,71.4,178.7,62.4L178.7,62.4z"/>
<path class="st0" d="M53.4,59.3c-0.6,0.2-1.2,0.4-1.8,0.5c-0.8,0.2-2.1,0.4-4.1,0.7c-1,0.1-2,0.4-2.9,0.9c-0.5,0.3-0.8,0.9-0.9,1.4
	c-0.1,0.6,0.1,1.1,0.6,1.4c0.8,0.4,1.7,0.6,2.7,0.6c0.9,0,1.9-0.1,2.7-0.4c0.8-0.2,1.6-0.6,2.2-1.2c0.4-0.4,0.8-0.9,1-1.4
	C53.2,61.1,53.3,60.2,53.4,59.3 M65,52.2c-0.1,1.2-0.3,2.4-0.5,3.6l-1.9,10.9c-0.2,0.9,0.2,1.8,1.1,2.2l-0.1,0.4H52.4l-0.1-2.8
	c-1.7,1-3.5,1.8-5.3,2.3c-1.7,0.5-3.5,0.7-5.3,0.7c-3.6,0-5.7-0.4-7.1-1.6s-2.1-2.2-2-3.9c0.1-1.2,0.6-2.3,1.3-3.2
	c0.8-0.9,1.9-1.6,3-2.1c1.4-0.6,2.9-1.1,4.5-1.3c2-0.3,4.7-0.6,8.4-0.9c1.3-0.1,2.5-0.4,3.7-0.8c0.8-0.3,1.1-0.6,1.2-1.2
	c0.2-1.1-0.2-1.8-1.6-2.1c-4-0.8-11.5,0.5-15.4,1.5l2-5.7c4.9-0.8,9.9-1.2,14.9-1.2C62.5,47,65,49.3,65,52.2L65,52.2z"/>
<path class="st0" d="M97.2,69.4l3.9-21.8h10.6l-3.9,21.8H97.2 M101.6,42.6c0.3-1.8,3.1-3.2,6.3-3.2s5.5,1.4,5.2,3.2
	s-3.2,3.2-6.3,3.2S101.3,44.4,101.6,42.6z"/>
<path class="st0" d="M149.5,59.4c-0.6,0.2-1.2,0.4-1.9,0.5c-0.8,0.2-2.1,0.4-4.1,0.7c-1,0.1-2,0.4-2.9,0.9c-0.5,0.3-0.8,0.8-0.9,1.4
	c-0.1,0.6,0.1,1.1,0.6,1.4c0.8,0.4,1.8,0.6,2.7,0.6c0.9,0,1.8-0.1,2.7-0.4c0.8-0.2,1.6-0.7,2.2-1.2c0.4-0.4,0.7-0.9,0.9-1.4
	C149.2,61.1,149.4,60.2,149.5,59.4 M161,52.2c-0.1,1.2-0.2,2.5-0.5,3.7l-1.9,10.9c-0.2,0.9,0.2,1.9,1.1,2.3l-0.1,0.4h-11.1l-0.1-2.8
	c-1.7,1-3.5,1.7-5.4,2.2c-1.7,0.5-3.5,0.7-5.4,0.7c-3.6,0-5.6-0.4-7.1-1.6s-2.1-2.1-2.1-3.9c0.1-1.2,0.6-2.3,1.3-3.2
	c0.8-0.9,1.9-1.6,3-2.1c1.4-0.6,2.9-1.1,4.4-1.3c2-0.3,4.7-0.6,8.4-0.9c1.2-0.1,2.5-0.4,3.6-0.8c0.8-0.3,1.1-0.6,1.2-1.3
	c0.2-1.1-0.1-1.8-1.6-2c-4-0.8-11.5,0.5-15.4,1.5l2.1-5.7c4.9-0.8,9.9-1.2,14.9-1.3C158.5,47,161.1,49.3,161,52.2L161,52.2z"/>
<path class="st0" d="M31,61.6c-2.9,0.7-5.9,1-8.9,1c-5.1,0-9.1-2.5-8.9-7.2c0.1-3.1,3.8-9.6,13.1-9.6c2.9-0.1,5.8,0.7,8.3,2.3
	l1.3-7.6c-3.4-1.3-6.9-1.9-10.5-1.8C13.2,38.9,1.6,44.4,0.1,55.7C-1.4,67,12.6,69.9,18.8,69.9c3.6,0,7.3-0.2,10.8-0.5L31,61.6"/>
<path class="st0" d="M117.6,47.5l0.8-4.4l11.2-2.4l-1.2,6.9h5.4l-1,4.4h-5.3l-3.2,17.5c0,0-10.7-0.1-10.8,0l3.2-17.5h-4l0.8-4.4
	L117.6,47.5"/>
<polyline class="st0" points="171.8,69.4 161,69.4 166.4,39 177,39.3 171.8,69.4 "/>
<path class="st0" d="M83.1,52.7c-1.4,0-2.7,0.4-3.8,1.3c-1.2,0.9-1.9,2.3-2.1,3.7c-0.3,1.9-0.1,3.3,0.6,4.1c0.9,0.9,2.1,1.3,3.3,1.3
	c0.9,0,1.9-0.2,2.7-0.5c0.8-0.4,1.6-1,2.1-1.8c0.6-0.9,1-1.8,1.2-2.8c0.4-1.3,0.1-2.8-0.8-3.9C85.5,53.2,84.3,52.7,83.1,52.7
	 M63.7,76.9l5.2-29.2h9.4l-0.7,3.8c1-1.3,2.4-2.2,3.9-2.8c1.9-0.8,3.9-1.2,6-1.3c2-0.2,4,0.2,5.8,1.1c1.7,0.9,3.1,2.3,3.8,4.1
	c0.7,1.9,0.9,3.9,0.5,5.9c-0.5,3.4-2.4,6.5-5.3,8.5c-2.9,2.1-5.4,2.6-9.1,2.7c-1.1,0-2.2-0.1-3.3-0.4c-0.7-0.2-1.5-0.5-2.1-0.8
	c-0.6-0.5-1.2-1-1.7-1.6l-1.7,10H63.7z"/>
<path class="st0" d="M257.1,55.4c-0.1-1.8-0.9-2.9-2.8-2.9c-4.4,0-9,8.6-9.8,12C251.7,64.5,257.3,60.2,257.1,55.4 M258.1,68.8
	l0.8,0.6c-2.1,4.3-6.5,7.8-11.6,7.8c-4.2,0-7.6-2.8-7.8-8c-0.3-9.3,8.4-18,15.6-18c3.1,0,5.9,1.3,6.1,4.7c0.3,7.4-10.2,9.7-17,9.9
	c-0.2,0.9-0.3,1.8-0.3,2.7c0.1,3.1,2,5.7,5.8,5.7C253,74.1,256.4,71.5,258.1,68.8L258.1,68.8z"/>
<path class="st0" d="M215.3,55.2c0.7-0.1,1.9-0.2,2.4-0.2c0.8,0,1.5,0.2,1.6,0.9c0,0.5-0.8,3.8-1,4.5l-1.7,7.3c-0.7,3-1.4,6.1-2,8.6
	h4.3l2.4-11.6c7.3-7.6,10.1-10.1,11.9-10.1c0.7,0,1.3,0.5,1.3,1.2c0,0,0,0.1,0,0.1c-0.2,1.8-0.5,3.6-1.1,5.3l-2.4,8.5
	c-0.5,1.6-0.9,3.2-0.9,4.8c-0.1,1.4,1,2.6,2.4,2.7c0.2,0,0.3,0,0.5,0c3.1,0,5.4-3.2,7.4-6.4l-0.6-1c-0.8,1.3-2.6,4.1-4.1,4.1
	c-0.5,0-0.9-0.3-0.9-1.1c0.1-1.2,0.3-2.3,0.7-3.4l2.7-9.9c0.6-1.8,0.9-3.6,1.1-5.5c0.1-1.4-0.9-2.6-2.3-2.7c-0.2,0-0.3,0-0.5,0
	c-2.8,0-6.5,2.1-14.4,11.2h-0.1l1-4.4c0.5-2.4,1.1-5,1.6-6.7c-3,1.1-6,1.9-9.1,2.6L215.3,55.2"/>
<path class="st0" d="M262.4,50.7c0,0.2,0.1,0.4,0.1,0.5c0.2,0.3,0.6,0.4,0.9,0.4c0.2,0,0.4,0,0.5-0.1c0.3-0.1,0.5-0.3,0.5-0.6
	c0-0.2-0.1-0.4-0.2-0.5c-0.2-0.1-0.4-0.2-0.6-0.2l-0.5-0.1c-0.3,0-0.5-0.1-0.7-0.3c-0.2-0.2-0.4-0.4-0.4-0.7c0-0.3,0.1-0.7,0.4-0.9
	c0.3-0.2,0.6-0.4,1-0.3c0.4,0,0.7,0.1,1,0.3c0.3,0.2,0.5,0.6,0.4,1h-0.5c0-0.2-0.1-0.3-0.2-0.5c-0.2-0.2-0.5-0.3-0.8-0.3
	c-0.2,0-0.5,0.1-0.6,0.2c-0.1,0.1-0.2,0.3-0.2,0.5c0,0.2,0.1,0.3,0.2,0.4c0.2,0.1,0.5,0.2,0.7,0.2l0.5,0.1c0.2,0,0.4,0.1,0.6,0.2
	c0.2,0.2,0.4,0.5,0.4,0.8c0,0.4-0.1,0.7-0.5,0.9c-0.3,0.2-0.7,0.3-1.1,0.3c-0.4,0-0.8-0.1-1.1-0.4c-0.3-0.3-0.4-0.6-0.4-1
	L262.4,50.7"/>
<path class="st0" d="M265.7,48h0.8l1.1,3.3l1.1-3.3h0.7v4H269v-2.8c0-0.2,0-0.4,0-0.6l-1.1,3.3h-0.5l-1.1-3.3v0.1c0,0.1,0,0.2,0,0.4
	s0,0.3,0,0.4V52h-0.5L265.7,48"/>
</svg>
