<svg id="Art" xmlns="http://www.w3.org/2000/svg" viewBox="0 0 171.05 171.05"><defs><style>.cls-1{fill:#231f20;}</style></defs><title>Chipotle</title><path class="cls-1" d="M306,310.47A85.53,85.53,0,1,0,391.53,396,85.53,85.53,0,0,0,306,310.47ZM306,477a81,81,0,1,1,81-81A81,81,0,0,1,306,477Zm0-129.92A48.91,48.91,0,1,0,354.91,396,48.9,48.9,0,0,0,306,347.09Zm0,94.54A45.64,45.64,0,1,1,351.64,396,45.63,45.63,0,0,1,306,441.63Z" transform="translate(-220.47 -310.47)"/><path class="cls-1" d="M239.2,396.83A1.85,1.85,0,1,0,241,395,1.84,1.84,0,0,0,239.2,396.83Zm7.63,35.53,8.51-5.83,4.4,6.41-1.66,1.15L255,429.53l-1.73,1.18,2.75,4-1.66,1.15-2.75-4-1.79,1.22,3.17,4.61-1.67,1.15ZM261,448.91l.7-4.17-4.11,1-1.9-1.74,6.2-1.43.89-6.06,1.95,1.79-.67,3.93,3.87-1,1.89,1.74-5.94,1.38-.92,6.32Zm7.86,5.83,5.43-8.75,1.92,1.19-5.42,8.76Zm13.37,6.87a5.2,5.2,0,0,1-3.05-6.84v0a5.55,5.55,0,0,1,10.15-.13l-1.93,1a3.86,3.86,0,0,0-2.06-2,3,3,0,0,0-3.93,1.94v0a3.07,3.07,0,0,0,1.64,4.1,3.76,3.76,0,0,0,3-.17l.83,1.88A5.28,5.28,0,0,1,282.19,461.61Zm18.89,4-.66-2.4-4.33-.53-1.21,2.18-2.3-.27,5.64-9.79,2.08.25,3.13,10.85Zm-2.18-8-1.76,3.16,2.72.33Zm19,7.26L312.08,459l.81,6.51-2.23.27-1.27-10.22,2.08-.26,5.58,5.69-.78-6.29,2.22-.28,1.27,10.23ZM336,459.45a5.17,5.17,0,0,1-7.15-2.57v0a5.29,5.29,0,0,1,2.7-7.1,5.64,5.64,0,0,1,4.27-.41l-.58,2.16a3.8,3.8,0,0,0-2.89.18,3.09,3.09,0,0,0-1.35,4.15v0a3.1,3.1,0,0,0,4.2,1.67,3.55,3.55,0,0,0,1.69-1.46l-.61-1.34-2.08,1-.82-1.78,4.07-1.88,1.87,4.08A6.73,6.73,0,0,1,336,459.45Zm15.45-10-3.78-1.21-1.4,1.1,2.05,2.59-1.78,1.41-6.4-8.09,3.69-2.93c1.92-1.51,3.86-1.4,5.17.26l0,0a3.2,3.2,0,0,1,.25,3.88l4.26,1.33Zm-4.18-5.36c-.6-.75-1.45-.73-2.31,0l-1.77,1.4,1.83,2.32,1.81-1.43a1.49,1.49,0,0,0,.46-2.22Zm11.21-1.49-7.79-6.75,1.49-1.71,7.78,6.75Zm6.26-8-8.86-5.28,1.17-1.94,7.08,4.22,2.63-4.41,1.77,1.05Zm6.74-12.91-9.76-3.33.73-2.15,7.81,2.67,1.66-4.86,1.95.66Zm-129.33,1.44,6.31-2.35-5.15-1.19,0-.05,3.08-4.22-6.26,2.34-.78-2.08L249,412l.86,2.3-3.14,4.06,5,1,.86,2.3-9.67,3.6Zm16.16-66.9a.53.53,0,0,0,0,.75l4,3.91a.54.54,0,0,1,0,.75l-1.55,1.58a.51.51,0,0,1-.74,0L247.51,351a.53.53,0,0,1,0-.75l1.54-1.57a.53.53,0,0,1,.75,0l5.6,5.48a.53.53,0,0,0,.75,0l6-6.14a.53.53,0,0,0,0-.75l-5.6-5.48a.52.52,0,0,1,0-.74l1.54-1.58a.53.53,0,0,1,.75,0l12.53,12.24a.54.54,0,0,1,0,.75L269.81,354a.56.56,0,0,1-.76,0l-4-3.92a.53.53,0,0,0-.75,0ZM272.24,330a.54.54,0,0,1,.72.23l8.1,15.52a.53.53,0,0,1-.22.72l-1.95,1a.54.54,0,0,1-.72-.23l-8.11-15.52a.54.54,0,0,1,.23-.72Zm43.63,12.12A9.43,9.43,0,0,1,308,331a9.53,9.53,0,0,1,11.27-7.8,9.61,9.61,0,1,1-3.38,18.91Zm2.81-16a6.29,6.29,0,0,0-7.32,5.39,6.37,6.37,0,0,0,5.08,7.63,6.27,6.27,0,0,0,7.3-5.4A6.36,6.36,0,0,0,318.68,326.13ZM336.19,349a.53.53,0,0,1-.73.18l-1.92-1.13a.53.53,0,0,1-.18-.73l7.42-12.45a.55.55,0,0,0-.18-.73l-4.15-2.47a.51.51,0,0,1-.18-.72l1-1.69a.54.54,0,0,1,.73-.19l12,7.18a.54.54,0,0,1,.19.73l-1,1.69a.52.52,0,0,1-.72.18l-4.16-2.48a.53.53,0,0,0-.72.19Zm22.1-4.85a.52.52,0,0,1,.74.06l1.44,1.67a.54.54,0,0,1-.05.75l-11,9.48a.53.53,0,0,0-.06.75l5.68,6.6a.55.55,0,0,1-.06.75l-1.45,1.24a.54.54,0,0,1-.75-.05l-7.8-9.08a.54.54,0,0,1,.05-.75Zm17,32.91a.52.52,0,0,1-.68-.3l-3.32-8.85a.52.52,0,0,0-.68-.31L366,369.36a.53.53,0,0,0-.31.69l2.49,6.63a.53.53,0,0,1-.31.68l-1.75.65a.52.52,0,0,1-.68-.3L363,371.07a.53.53,0,0,0-.68-.31l-2.58,1a.52.52,0,0,0-.31.68l3.36,9a.54.54,0,0,1-.31.69l-1.74.65a.53.53,0,0,1-.68-.31l-4.52-12a.53.53,0,0,1,.32-.68l16.39-6.15a.53.53,0,0,1,.69.31l4.47,11.9a.55.55,0,0,1-.32.68Zm-75-48.53c-.75-3.72-4.81-5.57-9-4.71l-6.66,1.35a.54.54,0,0,0-.41.63L287.64,343a.53.53,0,0,0,.62.42l2.16-.44a.53.53,0,0,0,.42-.63l-1-4.81a.52.52,0,0,1,.42-.62l3.09-.63C297.38,335.46,301.12,332.67,300.28,328.56ZM289.69,334a.53.53,0,0,1-.62-.41L288,328.09a.54.54,0,0,1,.41-.63l3.2-.65c2.39-.48,4.15.33,4.59,2.49.4,1.95-.84,3.58-3.26,4.07Zm-49.2,34.14a7.14,7.14,0,0,1,3.71-3.63.53.53,0,0,0,.25-.71l-.93-1.93a.53.53,0,0,0-.71-.24,9.85,9.85,0,0,0-5.07,5.29,9.41,9.41,0,0,0,5,12.63l-.1,0a9.4,9.4,0,0,0,12.65-4.95,9.83,9.83,0,0,0,.44-7.31.54.54,0,0,0-.67-.35l-2,.64a.52.52,0,0,0-.35.66,7.16,7.16,0,0,1-.12,5.19c-1.42,3.26-5.12,4.46-8.48,3S239.06,371.42,240.49,368.16ZM371,395a1.83,1.83,0,0,0-1.88,1.8,1.85,1.85,0,1,0,3.69.08A1.83,1.83,0,0,0,371,395Z" transform="translate(-220.47 -310.47)"/><path class="cls-1" d="M322.31,362.42c.59.07,3.22,1,3.22,1s2.54,3.72,3.19,4.51.36,1.38.36,1.38l-1.24,4.55h0c-.46-.37-3.82-.06-4.62,0s.72-.94,1.09-1.3,1.81-1.38,1.62-2-2.36-4.81-2.36-4.81-3.82,0-5.63.18-5.62,4-5.62,4l-1.39,5.49a6.73,6.73,0,0,0,1.36,1.66c.8.65,3.12.43,4,.36s.51.94-.21,1.59-3.34.65-3.34.65l1.09.37c1.2,1.08,3.4,6.66,4.69,8s0,7.83-1.9,9.69-2.75,5.86-3.88,7-2.32.69-1.14,1.86.63,2.59.82,3.62a4.93,4.93,0,0,0,.88,2.44c.56.57,9.15,6.52,12.6,6.79.63.05.64,3.08-2.9,6.81,0,0-.63,2.15-6.53,2.34-6.44.2-12.78-.88-14.23-.88s-5.69-2.4-5.69-2.4c-.8,0-14.24-18.7-14.24-20s-1-4.79-1-6.09,1.5-13.13,1.26-14.57c-.19-1.12.4-1.38,1.69-2.68s3.63-3.48,4.52-4.37c.4-.4,3.5-.31,7.25-1.12l.58-.25-.74-.36a4.13,4.13,0,0,0-3.16-1.44c-2,.07-2.61.21-1.6-.22A19.21,19.21,0,0,0,294,372.4l4.26,1.88h3.22l4-3.32,9.15-7.43,7.68-1.11M293.05,386c-1.08.19-2.83-.11-3.65,1.38l-1.56,6.79s.17,6.81.32,8.16S290.06,408,291,409s2.56,3.73,4.08,5.24c.42.41,1.26.61,1.61,1.08.63.86.24.27-.9-1.42a33.86,33.86,0,0,1-5.3-12.47c-.44-2-.12-6.68,0-8.56.06-1,.75-3.23,1.41-3.73.31-.24,3.18-.55,3.76-.72.9-.26,2.17-.24,3-.41,2.63-.54,7.47.8,7.8,1,3.94,1.82,2.41,2.45,2.47,2.67s-5.48,11.39-5.46,11.92.23,6.15.75,7.68c.16.45,1.91,4.68,2.22,5.44,1.39,3.36-3-.56-3.26-.71a132.68,132.68,0,0,1-6.88-12.16,8.48,8.48,0,0,1-.25-4c.15-.62-.29-5.4.59-6.06a7,7,0,0,1,4.61-.14c1.18.52,1.82,1.84,1.69,2.16s-2,6.3-2.25,5.8c-.1-.17-.1-2.08-.35-2.27s-1.63-.48-1.79-.27a7.36,7.36,0,0,0-.33,2.95c.83,3.36,2.77,2.32,3.14,1.69a70.37,70.37,0,0,0,3.13-8.83,4.36,4.36,0,0,0-2.63-3.55c-1-.34-5.48-.15-6.71.49-1.89,1-1.78,9.57-1.42,10.82s6.3,11.21,6.58,12c.55,1.49,4.14,5,4.71,5.38.23.14,5.14,2,5.77,1.09.28-.42.14-1.57-1.08-2.37s-4-8.92-4-9.57-.73-5.14-.24-6.08c.93-1.8,7.62-11.82,6.88-12.62-1-1.08-4-6.14-5.38-4.23-1.27,1.72-7.28-.06-8.77-1.15C298.16,385,294.62,385.66,293.05,386Zm20.23,38.62c1.94,0,7.35-2.88,5.35-4.2-1.27-.83-2.76-1.95-5.51-4.05a2.47,2.47,0,0,0-2.15-.69c-1.13,0,.71-1.83.1-3.3s-1.05-4.08-1.61-4.64-.34-3.55.85-4.74,3.16-5.07,4.18-6.51c1.22-1.73,2.06-5.52,1.58-6s-2.71-5.09-3.67-6.06c-.63-.63-1.66-2.16-2.69-3.42h0l-.24-.34-1.05.59a16.14,16.14,0,0,0-2.33,1.84,6.45,6.45,0,0,1-3-.12,1.78,1.78,0,0,1-1.53-1.91c0-.89-.58-.66-.58-.66s-10.48.51-11.25.95-4.11,5-4.11,5-1.79,17.45-.41,18.83c1.64,1.64,10.21,15.14,11.81,16.75C298.65,424.1,311.34,424.57,313.28,424.57Z" transform="translate(-220.47 -310.47)"/></svg>