<svg id="Art" xmlns="http://www.w3.org/2000/svg" viewBox="0 0 79.58 12.79"><defs><style>.cls-1{fill:#231f20;}</style></defs><title>Purina</title><path class="cls-1" d="M312.45,348.89a2.54,2.54,0,0,0,1.69-.49,1.54,1.54,0,0,0,.56-1.22,1.58,1.58,0,0,0-.45-1.17,1.61,1.61,0,0,0-1.19-.45,4.26,4.26,0,0,0-.83.1v3.22h.22m-19.69.16a1.27,1.27,0,0,0,1-.46,1.68,1.68,0,0,0,.43-1.2,2.24,2.24,0,0,0-.21-1,1.41,1.41,0,0,0-.56-.64,1.7,1.7,0,0,0-.85-.21,3.26,3.26,0,0,0-.67.09v3.27c.17,0,.33.06.46.08l.41,0M342.22,347,341,349.92h2.47Zm-52.93,5.94h.43a.71.71,0,0,0,.65-.28,1.77,1.77,0,0,0,.11-.84v-5.37c0-.65-.09-.84-.14-.9a.8.8,0,0,0-.62-.23h-.43v-.46h3.15a5.68,5.68,0,0,1,1.79.24,2.6,2.6,0,0,1,1.13.82,2.15,2.15,0,0,1,.46,1.36,2.34,2.34,0,0,1-.7,1.75,2.71,2.71,0,0,1-2,.67,5.29,5.29,0,0,1-.66,0l-.61-.11v2.27c0,.64.09.84.14.9a.76.76,0,0,0,.61.22h.43v.46h-3.78Zm8.67-8.12h3.78v.45h-.43a.67.67,0,0,0-.62.28,1.63,1.63,0,0,0-.13.85V350a7.59,7.59,0,0,0,.09,1.09,2.16,2.16,0,0,0,.3.92,1.68,1.68,0,0,0,.63.54,2.23,2.23,0,0,0,1,.21,2.86,2.86,0,0,0,1.41-.34,1.83,1.83,0,0,0,.83-.85,5.23,5.23,0,0,0,.22-1.83v-3.35c0-.64-.09-.84-.14-.9a.76.76,0,0,0-.61-.23h-.43v-.45H307v.45h-.43a.71.71,0,0,0-.64.36,1.74,1.74,0,0,0-.11.83v3.36a6.33,6.33,0,0,1-.25,2,2.59,2.59,0,0,1-1,1.23,3.55,3.55,0,0,1-2,.52,3.9,3.9,0,0,1-2.13-.49,2.68,2.68,0,0,1-1-1.33,6.84,6.84,0,0,1-.21-2.08v-3.24c0-.6-.09-.83-.18-.93a.71.71,0,0,0-.57-.2H298Zm11.67,8.12h.43a.69.69,0,0,0,.64-.29,1.74,1.74,0,0,0,.11-.83v-5.38c0-.64-.09-.83-.14-.89a.79.79,0,0,0-.61-.23h-.43v-.46h3.14a7.34,7.34,0,0,1,2,.2,2.43,2.43,0,0,1,1.12.74,2,2,0,0,1,.47,1.32,2.05,2.05,0,0,1-.53,1.4,2.77,2.77,0,0,1-1.44.79l1.62,2.24a4.23,4.23,0,0,0,1,1.07,2.55,2.55,0,0,0,1,.32h.1v.45h-2.4l0-.05-2.78-3.83h-.67v2.3c0,.64.08.83.14.89a.72.72,0,0,0,.6.23h.44v.46h-3.78Zm10.92,0H321a.76.76,0,0,0,.65-.25,1.76,1.76,0,0,0,.12-.87v-5.37a2.66,2.66,0,0,0-.07-.79.48.48,0,0,0-.2-.2,1,1,0,0,0-.5-.14h-.41v-.46h3.78v.46h-.42a.75.75,0,0,0-.64.26,1.76,1.76,0,0,0-.12.87v5.37a2.66,2.66,0,0,0,.07.79.48.48,0,0,0,.2.2,1,1,0,0,0,.49.13h.42v.47h-3.78Zm6.86-8.08h2.43l0,0,4.91,6v-4.45c0-.63-.09-.82-.14-.88a.83.83,0,0,0-.63-.22h-.41v-.46h3.13v.46h-.42a.74.74,0,0,0-.65.27,1.74,1.74,0,0,0-.12.83v7.12h-.39l0,0-5.31-6.44v4.78c0,.63.08.83.13.88a.81.81,0,0,0,.64.22H331v.46h-3.13v-.46h.41a.75.75,0,0,0,.66-.27,1.74,1.74,0,0,0,.11-.83v-5.72a4,4,0,0,0-.5-.51,1.9,1.9,0,0,0-.51-.23,1.53,1.53,0,0,0-.5-.06h-.12ZM338,353l.1,0a1.16,1.16,0,0,0,.61-.21,3.41,3.41,0,0,0,.66-1.16l3-6.82,0-.07h.41l0,.07,2.82,6.9a3,3,0,0,0,.61,1,1.17,1.17,0,0,0,.72.25h.11v.45h-3.53v-.45h.11a1.07,1.07,0,0,0,.6-.14.3.3,0,0,0,.13-.24,2.34,2.34,0,0,0-.24-.8s-.35-.87-.46-1.13h-3.07c-.11.27-.53,1.23-.53,1.23a2,2,0,0,0-.2.68.31.31,0,0,0,.14.24,1.34,1.34,0,0,0,.71.16h.11v.45H338Zm-51.22,2.41h62.6V342.6h-62.6Zm-5.15-8.19h-3.72v-3.66h-3.75v3.66h3.73v3.66h-3.73v3.65h3.75v-3.65h3.72v3.65h3.75v-3.65h-3.74v-3.66h3.74v-3.66h-3.75Zm-8-4.11h12.21v11.88H273.67Zm-.46,12.34h13.14V342.61H273.21Zm78.24-1.25v-.38h.21c.13,0,.26,0,.26.18s-.12.2-.26.2Zm.71-.18c0-.27-.16-.38-.47-.38h-.49v1.3h.25v-.56h.14l.34.56h.24l-.35-.57a.32.32,0,0,0,.34-.35m-.51,1.2a.93.93,0,1,1,.86-.93.89.89,0,0,1-.86.93m0-2.08a1.16,1.16,0,1,0,1.14,1.15,1.16,1.16,0,0,0-1.14-1.15" transform="translate(-273.21 -342.6)"/></svg>