<svg id="Layer_1" data-name="Layer 1" xmlns="http://www.w3.org/2000/svg" viewBox="0 0 209.94 26.46"><defs><style>.cls-1{fill:#231f20;}</style></defs><title>Sephora</title><path class="cls-1" d="M32.48,212.61a15,15,0,0,1-4-1.9,3.36,3.36,0,0,1-1.13-2.88c.12-2.34,1.89-3.88,4.54-3.75a4.2,4.2,0,0,1,4.17,3.17l3.21-.52c-.84-3.18-3.43-5.11-7.28-5.31-4.53-.22-7.51,2.25-7.71,6.25a6,6,0,0,0,1.83,5,15.28,15.28,0,0,0,5.18,2.76c3.26,1.29,5,2.28,4.87,5-.11,2.21-1.95,3.72-4.86,3.57-2.2-.11-3.72-1.1-4.36-2.72l-3.06.67c1.05,2.93,3.61,4.72,7.21,4.9,4.67.23,8.1-2.55,8.3-6.42S37.28,214.52,32.48,212.61Z" transform="translate(-23.87 -201.41)"/><polygon class="cls-1" points="30.59 25.31 43.28 25.31 43.28 22.43 33.75 22.43 33.75 14.19 43.28 14.19 43.28 11.37 33.75 11.37 33.75 3.72 43.28 3.72 43.28 0.84 30.59 0.84 30.59 25.31 30.59 25.31"/><path class="cls-1" d="M84.12,226.05h3.16v-8.43h2.66c5.11,0,8.57-3.33,8.57-8,0-4.8-3.42-8.07-9.18-8.07H84.12v24.47Zm3.16-11.34V204.46h2c3.9,0,5.94,1.79,5.94,5.06s-2,5.19-5.43,5.19Z" transform="translate(-23.87 -201.41)"/><polygon class="cls-1" points="89.61 25.64 92.78 25.64 92.78 14.46 105.6 14.46 105.6 25.64 108.77 25.64 108.77 1.17 105.6 1.17 105.6 11.58 92.78 11.58 92.78 1.17 89.61 1.17 89.61 25.64 89.61 25.64"/><path class="cls-1" d="M158,227.87a12.06,12.06,0,0,0,8.85-3.4,12.63,12.63,0,0,0,3.77-9.32,12.79,12.79,0,0,0-3.8-9.36,13.27,13.27,0,0,0-17.65,0,13.42,13.42,0,0,0,0,18.68,12.11,12.11,0,0,0,8.86,3.4Zm0-2.89a8.72,8.72,0,0,1-6.52-2.59,10.73,10.73,0,0,1,0-14.48,8.84,8.84,0,0,1,6.52-2.59,8.93,8.93,0,0,1,6.56,2.59,10.69,10.69,0,0,1,0,14.48,8.88,8.88,0,0,1-6.59,2.59Z" transform="translate(-23.87 -201.41)"/><path class="cls-1" d="M182.68,226.05h3.16v-10l8.7,10h4l-8.6-9.51h.19a7.15,7.15,0,0,0,7.35-7.53c0-4.61-3.26-7.43-9.24-7.43h-5.56v24.47Zm3.16-11.91v-9.68H188c4.15,0,6.23,1.67,6.23,4.65,0,3.2-2.11,5-6.07,5Z" transform="translate(-23.87 -201.41)"/><path class="cls-1" d="M210.89,226.05h3.39l2.17-5.67h11.48l2.18,5.67h3.71l-10.3-24.47h-2.65l-10,24.47Zm6.68-8.55,3.9-9.81c.1-.26.36-1,.74-2.27.38,1.31.64,2,.73,2.27l3.84,9.81Z" transform="translate(-23.87 -201.41)"/></svg>