<?xml version="1.0" encoding="utf-8"?>
<!-- Generator: Adobe Illustrator 24.3.0, SVG Export Plug-In . SVG Version: 6.00 Build 0)  -->
<svg version="1.1" id="Layer_1" xmlns="http://www.w3.org/2000/svg" xmlns:xlink="http://www.w3.org/1999/xlink" x="0px" y="0px"
	 viewBox="0 0 274 274" style="enable-background:new 0 0 274 274;" xml:space="preserve">
<style type="text/css">
	.st0{fill:#231F20;}
	.st1{fill:#FFFFFF;}
</style>
<path id="Blue_1_" class="st0" d="M255.72,270.45c8.13,0,14.73-6.6,14.73-14.73V18.28c0-8.14-6.6-14.73-14.73-14.73H18.28
	c-8.14,0-14.73,6.59-14.73,14.73v237.43c0,8.13,6.59,14.73,14.73,14.73H255.72z"/>
<path id="f" class="st1" d="M187.7,270.45V167.09h34.69l5.19-40.28H187.7V101.1c0-11.66,3.24-19.61,19.96-19.61L229,81.48V45.45
	c-3.69-0.49-16.35-1.59-31.08-1.59c-30.75,0-51.81,18.77-51.81,53.24v29.71h-34.78v40.28h34.78v103.36H187.7z"/>
</svg>
