<?xml version="1.0" encoding="utf-8"?>
<!-- Generator: Adobe Illustrator 24.3.0, SVG Export Plug-In . SVG Version: 6.00 Build 0)  -->
<svg version="1.1" id="Layer_1" xmlns="http://www.w3.org/2000/svg" xmlns:xlink="http://www.w3.org/1999/xlink" x="0px" y="0px"
	 viewBox="0 0 17.3 17.7" style="enable-background:new 0 0 17.3 17.7;" xml:space="preserve">
<style type="text/css">
	.st0{fill:#FFFFFF;}
</style>
<g id="style_1_copy_6">
	<path class="st0" d="M17.6,22.8H-7.1l7-28h25L17.6,22.8z"/>
	<path d="M17.1,7.2c0.1,0.6,0.2,1.2,0.2,1.9c0,5-3.4,8.6-8.5,8.6C4,17.7,0,13.7,0,8.8S4,0,8.8,0c2.4,0,4.4,0.9,5.9,2.3l-2.5,2.5v0
		c-0.9-0.9-2.1-1.3-3.4-1.3c-2.9,0-5.3,2.5-5.3,5.4c0,2.9,2.4,5.4,5.3,5.4c2.6,0,4.4-1.5,4.8-3.6H8.8V7.2C8.8,7.2,17.1,7.2,17.1,7.2
		z"/>
</g>
</svg>
