<?xml version="1.0" encoding="utf-8"?>
<!-- Generator: Adobe Illustrator 24.3.0, SVG Export Plug-In . SVG Version: 6.00 Build 0)  -->
<svg version="1.1" id="Layer_1" xmlns="http://www.w3.org/2000/svg" xmlns:xlink="http://www.w3.org/1999/xlink" x="0px" y="0px"
	 viewBox="0 0 144 144" style="enable-background:new 0 0 144 144;" xml:space="preserve">
<g>
	<g>
		<g>
			<path d="M133.34,0H10.63C4.76,0,0,4.65,0,10.38v123.23C0,139.35,4.76,144,10.63,144h122.72c5.87,0,10.66-4.66,10.66-10.39V10.38
				C144,4.65,139.22,0,133.34,0z M42.71,122.71H21.35V53.99h21.36V122.71z M32.03,44.59c-6.85,0-12.39-5.55-12.39-12.39
				c0-6.83,5.54-12.38,12.39-12.38c6.83,0,12.38,5.55,12.38,12.38C44.41,39.04,38.86,44.59,32.03,44.59z M122.71,122.71h-21.34
				V89.29c0-7.97-0.15-18.22-11.1-18.22c-11.11,0-12.82,8.68-12.82,17.64v34H56.11V53.99h20.48v9.39h0.29
				c2.85-5.4,9.82-11.1,20.21-11.1c21.63,0,25.62,14.23,25.62,32.74V122.71z"/>
		</g>
	</g>
</g>
</svg>
