<?xml version="1.0" encoding="utf-8"?>
<!-- Generator: Adobe Illustrator 24.3.0, SVG Export Plug-In . SVG Version: 6.00 Build 0)  -->
<svg version="1.1" id="Layer_1" xmlns="http://www.w3.org/2000/svg" xmlns:xlink="http://www.w3.org/1999/xlink" x="0px" y="0px"
	 viewBox="0 0 274 274" style="enable-background:new 0 0 274 274;" xml:space="preserve">
<style type="text/css">
	.st0{fill:#FFFFFF;}
	.st1{fill:#231F20;}
</style>
<g>
	<path class="st0" d="M272,137c0,74.56-60.44,135-135,135S2,211.56,2,137C2,62.44,62.44,2,137,2S272,62.44,272,137"/>
	<g>
		<path class="st1" d="M136.84,12.18C67.9,12.18,12.01,68.06,12.01,137c0,52.88,32.9,98.05,79.33,116.24
			c-1.09-9.88-2.08-25.02,0.43-35.81c2.27-9.74,14.64-62.05,14.64-62.05s-3.73-7.48-3.73-18.53c0-17.36,10.06-30.31,22.59-30.31
			c10.65,0,15.79,8,15.79,17.58c0,10.71-6.82,26.72-10.34,41.56c-2.94,12.42,6.23,22.56,18.48,22.56
			c22.19,0,39.24-23.39,39.24-57.16c0-29.89-21.48-50.78-52.14-50.78c-35.52,0-56.36,26.64-56.36,54.17
			c0,10.73,4.13,22.23,9.29,28.49c1.02,1.24,1.17,2.32,0.87,3.58c-0.95,3.94-3.05,12.42-3.47,14.16c-0.54,2.29-1.81,2.77-4.17,1.67
			C66.87,175.1,57.12,152.31,57.12,134c0-39.38,28.61-75.54,82.47-75.54c43.3,0,76.95,30.86,76.95,72.09
			c0,43.02-27.12,77.64-64.77,77.64c-12.65,0-24.54-6.57-28.61-14.33c0,0-6.26,23.83-7.78,29.67
			c-2.82,10.84-10.43,24.43-15.51,32.72c11.68,3.62,24.09,5.57,36.96,5.57c68.94,0,124.82-55.88,124.82-124.82
			C261.66,68.06,205.77,12.18,136.84,12.18z"/>
	</g>
</g>
</svg>
