<?xml version="1.0" encoding="utf-8"?>
<!-- Generator: Adobe Illustrator 24.3.0, SVG Export Plug-In . SVG Version: 6.00 Build 0)  -->
<svg version="1.1" id="Layer_1" xmlns="http://www.w3.org/2000/svg" xmlns:xlink="http://www.w3.org/1999/xlink" x="0px" y="0px"
	 viewBox="0 0 250 203.2" style="enable-background:new 0 0 250 203.2;" xml:space="preserve">
<g id="Dark_Blue">
</g>
<g id="Logo__x2014__FIXED">
	<path d="M78.6,203.2c94.3,0,145.9-78.2,145.9-145.9c0-2.2,0-4.4-0.1-6.6c10-7.2,18.7-16.3,25.6-26.6c-9.2,4.1-19.1,6.8-29.5,8.1
		c10.6-6.3,18.7-16.4,22.5-28.4c-9.9,5.9-20.9,10.2-32.6,12.4C201.2,6.2,187.8,0,173.1,0c-28.3,0-51.3,23-51.3,51.3
		c0,4,0.4,7.9,1.3,11.7C80.5,60.8,42.7,40.4,17.4,9.4C13,17,10.5,25.8,10.5,35.2c0,17.8,9.1,33.5,22.8,42.7
		C24.9,77.6,17,75.3,10,71.4c0,0.2,0,0.4,0,0.6c0,24.8,17.7,45.6,41.2,50.3c-4.3,1.2-8.8,1.8-13.5,1.8c-3.3,0-6.5-0.3-9.6-0.9
		c6.5,20.4,25.5,35.2,47.9,35.6c-17.6,13.8-39.7,22-63.7,22c-4.1,0-8.2-0.2-12.2-0.7C22.7,194.7,49.7,203.2,78.6,203.2"/>
</g>
<g id="Annotations">
</g>
</svg>
