<?xml version="1.0" encoding="utf-8"?>
<!-- Generator: Adobe Illustrator 24.3.0, SVG Export Plug-In . SVG Version: 6.00 Build 0)  -->
<svg version="1.1" id="Layer_1" xmlns="http://www.w3.org/2000/svg" xmlns:xlink="http://www.w3.org/1999/xlink" x="0px" y="0px"
	 viewBox="0 0 38.9 43.7" style="enable-background:new 0 0 38.9 43.7;" xml:space="preserve">
<g>
	<g id="layer1">
		<path id="path2974" d="M19.5,14.7c1,0,1.9-0.5,2-1.2l1-11.4c0-1.1-1.3-2.1-3-2.1c-1.7,0-3,0.9-3,2.1l1,11.4
			C17.6,14.2,18.4,14.7,19.5,14.7L19.5,14.7"/>
		<path id="path2976" d="M13.3,18.3c0.5-0.9,0.5-1.9-0.1-2.3L3.8,9.4c-1-0.6-2.4,0.1-3.3,1.6c-0.8,1.4-0.7,3,0.3,3.6l10.4,4.8
			C11.9,19.6,12.8,19.2,13.3,18.3L13.3,18.3"/>
		<path id="path2978" d="M25.6,18.3c0.5,0.9,1.4,1.3,2,1.1l10.4-4.8c1-0.6,1.1-2.2,0.3-3.6c-0.8-1.4-2.3-2.1-3.3-1.6L25.7,16
			C25.2,16.4,25.1,17.4,25.6,18.3L25.6,18.3"/>
		<path id="path2980" d="M19.5,29c1,0,1.9,0.5,2,1.2l1,11.4c0,1.1-1.3,2.1-3,2.1c-1.7,0-3-0.9-3-2.1l1-11.4
			C17.6,29.5,18.4,29,19.5,29L19.5,29"/>
		<path id="path2982" d="M25.6,25.4c0.5-0.9,1.4-1.3,2-1.1l10.4,4.8c1,0.6,1.1,2.2,0.3,3.6c-0.8,1.4-2.3,2.1-3.3,1.6l-9.4-6.6
			C25.2,27.3,25.1,26.3,25.6,25.4L25.6,25.4"/>
		<path id="path2984" d="M13.3,25.4c0.5,0.9,0.5,1.9-0.1,2.3l-9.4,6.6c-1,0.6-2.4-0.1-3.3-1.6c-0.8-1.4-0.7-3.1,0.3-3.6l10.4-4.8
			C11.9,24.1,12.8,24.5,13.3,25.4L13.3,25.4"/>
	</g>
</g>
</svg>
