<?xml version="1.0" encoding="UTF-8"?>
<svg width="150px" height="135px" viewBox="0 0 150 135" version="1.1" xmlns="http://www.w3.org/2000/svg" xmlns:xlink="http://www.w3.org/1999/xlink">
    <title>piggy-bank</title>
    <g id="Page-1" stroke="none" stroke-width="1" fill="none" fill-rule="evenodd">
        <g id="Careers" transform="translate(-232.000000, -2404.000000)">
            <g id="PERKS" transform="translate(105.000000, 2097.000000)">
                <g id="1" transform="translate(0.000000, 307.000000)" fill-rule="nonzero">
                    <g id="piggy-bank" transform="translate(127.000000, 0.000000)">
                        <path d="M129.959797,86.4456059 C129.767159,86.4456059 129.575455,86.4189745 129.39018,86.366517 C128.246179,86.054349 127.57277,84.8795713 127.885532,83.741622 C128.798782,80.4508722 129.265062,77.0533835 129.271958,73.6396237 C129.271958,56.7744593 117.664671,41.1490662 98.9640415,32.8832118 C97.9119215,32.3850949 97.4505264,31.1440183 97.9237887,30.0851035 C98.3970509,29.0261887 99.6325994,28.5351126 100.709434,28.9779323 C120.972748,37.9555864 133.562355,55.0558798 133.562355,73.6396237 C133.554971,77.4344992 133.038107,81.211407 132.025464,84.8702414 C131.771311,85.797424 130.92618,86.4419562 129.959797,86.4456059 Z" id="Path" fill="#000000"></path>
                        <path d="M105.229442,134.730539 L91.6398546,134.730539 C89.3821731,134.728194 87.5525464,132.900702 87.5501983,130.645656 L87.5501983,122.290794 C76.4362917,124.795998 64.9031398,124.795998 53.7892332,122.290794 L53.7892332,130.645656 C53.7868851,132.900702 51.9572584,134.728194 49.6995769,134.730539 L36.1099897,134.730539 C33.8523082,134.728194 32.0226814,132.900702 32.0203334,130.645656 L32.0203334,113.497658 C24.0473516,108.650075 17.4682367,101.821353 12.9246203,93.6774652 L5.96581446,92.2413736 C2.71812083,91.5796377 0.386332348,88.724796 0.389394621,85.4140874 L0.389394621,61.4154001 C0.398986664,58.1055157 2.72166728,55.2518733 5.96368443,54.5668385 L12.9246203,53.1498947 C16.2508568,47.0952727 20.7673975,41.774233 26.2032232,37.5060695 C25.1488587,32.6531435 22.2221984,23.6961866 14.7266251,21.179303 C13.8386423,20.8817029 13.2494905,20.0396294 13.2749545,19.1044327 C13.3004184,18.1692361 13.934522,17.3603922 14.8373867,17.1114404 C15.5275162,16.9199615 31.6369281,12.6712577 46.4683224,26.5939004 C49.8526157,25.4585747 53.3115302,24.5586005 56.820265,23.9004307 C57.976061,23.6812914 59.0908739,24.4395081 59.3102692,25.5939551 C59.5296646,26.7484021 58.7705619,27.8619138 57.6147659,28.0810531 C53.8891262,28.7765356 50.2240911,29.7639299 46.6536349,31.0340831 C45.8773123,31.3152569 45.0082348,31.1229067 44.4234942,30.5404931 C38.5666857,24.416933 30.5212984,20.8578721 22.045406,20.6410345 C27.7964852,25.7726687 29.9265145,34.0317915 30.6422044,37.9932769 C30.7857198,38.7783307 30.4773223,39.5775854 29.8434434,40.0633765 C24.1692311,44.2899828 19.5190166,49.7367734 16.2368159,56.0008026 C15.9419297,56.577437 15.4001891,56.9885541 14.7649657,57.1177628 L6.82208625,58.7346956 C5.55645193,59.006106 4.65169887,60.1224377 4.64945632,61.4154001 L4.64945632,85.4140874 C4.64535454,86.7008224 5.54959122,87.8122248 6.8114361,88.0713889 L14.7713558,89.7117247 C15.4037805,89.8422325 15.9427805,90.2522707 16.2368159,90.8265573 C20.6110631,99.0229974 27.1957938,105.832199 35.2451978,110.482929 C35.8868586,110.866972 36.2798008,111.559068 36.280392,112.306234 L36.280392,130.475453 L49.5291745,130.475453 L49.5291745,119.582431 C49.5291356,118.922455 49.8357396,118.29983 50.3591381,117.897013 C50.8825365,117.494196 51.5634576,117.356803 52.2023614,117.525097 C64.3077475,120.707875 77.031684,120.707875 89.1370701,117.525097 C89.7759739,117.356803 90.456895,117.494196 90.9802934,117.897013 C91.5036919,118.29983 91.8102959,118.922455 91.810257,119.582431 L91.810257,130.475453 L105.037739,130.475453 L105.037739,112.306234 C105.004749,111.426701 105.502301,110.612954 106.300737,110.240597 C107.099173,109.86824 108.043227,110.009683 108.697147,110.599639 C109.351067,111.189596 109.587691,112.11334 109.297798,112.944496 L109.297798,130.645656 C109.301337,132.894837 107.481238,134.722329 105.229442,134.730539 L105.229442,134.730539 Z" id="Path" fill="#000000"></path>
                        <path d="M118.635704,105.136548 C117.752304,105.136658 116.953988,104.609267 116.606695,103.796107 C116.259402,102.982946 116.430092,102.040796 117.040522,101.401527 C118.462939,99.92333 119.785962,98.3524108 121.000898,96.6990906 C121.466359,96.0606993 122.236668,95.7193937 123.021657,95.8037402 C123.806646,95.8880868 124.487056,96.3852713 124.806584,97.1080092 C125.126112,97.8307471 125.036214,98.6692372 124.570753,99.3076286 C123.239326,101.116033 121.791857,102.835862 120.237505,104.456233 C119.819207,104.893092 119.240184,105.139007 118.635704,105.136548 Z" id="Path" fill="#000000"></path>
                        <path d="M34.7907424,56.8516147 L33.742711,56.8516147 C32.5267199,56.8516147 31.5409643,55.9799251 31.5409643,54.9046416 C31.5409643,53.829358 32.5267199,52.9576685 33.742711,52.9576685 L34.7907424,52.9576685 C36.0067335,52.9576685 36.992489,53.829358 36.992489,54.9046416 C36.992489,55.9799251 36.0067335,56.8516147 34.7907424,56.8516147 Z" id="Path" fill="#000000"></path>
                        <path d="M134.338119,75.5411983 C133.011831,75.551032 131.690433,75.3806193 130.410752,75.0347097 C129.277078,74.6921042 128.637986,73.502553 128.983301,72.3777726 C129.328615,71.2529923 130.527572,70.6189143 131.661246,70.9615198 C134.440405,71.6787814 137.396027,71.1839766 139.784098,69.6016617 C143.095871,67.1415742 144.848279,61.8489811 144.848279,54.3069826 C144.848279,53.1316636 145.808597,52.1788792 146.993209,52.1788792 C148.177822,52.1788792 149.13814,53.1316636 149.13814,54.3069826 C149.13814,63.4131371 146.834485,69.7187074 142.291522,73.0513174 C139.979446,74.7086633 137.19021,75.5818573 134.338119,75.5411983 Z" id="Path" fill="#000000"></path>
                        <path d="M93.8880956,42.8093776 C93.0103649,42.8087546 92.2231976,42.2653878 91.9064079,41.4414559 C91.5896183,40.6175241 91.8083039,39.6823381 92.4569472,39.0871324 C96.5813241,35.2893268 98.9321875,29.923103 98.9364555,24.2966124 C98.9398465,22.8173968 98.7728634,21.3427719 98.4388497,19.9022655 C96.3570087,10.7964846 88.3257075,4.32828934 79.0428553,4.28125034 C69.7381155,4.23312317 61.6627735,10.7303678 59.65962,19.8765801 C59.3235542,21.3255146 59.1551485,22.8087182 59.1577611,24.2966124 C59.1620292,29.923103 61.5128925,35.2893268 65.6372694,39.0871324 C66.2135513,39.598374 66.471113,40.382708 66.311045,41.1389326 C66.1509769,41.8951572 65.598164,42.5057067 64.8648987,42.7361162 C64.1316335,42.9665258 63.3319123,42.7809751 62.7728462,42.2507197 C57.7641534,37.6418974 54.9092163,31.1272781 54.9046416,24.2966124 C54.9000334,22.4857378 55.1055729,20.6805135 55.5171579,18.9176578 C57.9518592,7.82052344 67.7524709,-0.0602722707 79.0428553,0 C90.304039,0.055216763 100.049824,7.89671738 102.583438,18.9412027 C102.990761,20.6952511 103.194145,22.4910108 103.189575,24.2923315 C103.185,31.1229972 100.330063,37.6376165 95.3213705,42.2464388 C94.930942,42.6088281 94.4191853,42.8098277 93.8880956,42.8093776 L93.8880956,42.8093776 Z" id="Path" fill="#FFEA00"></path>
                        <path d="M78.7524581,25.6931566 C74.8063355,25.8619801 71.4596123,22.9071898 71.2592157,19.0774436 C71.2626537,18.4162437 71.3705774,17.7594706 71.5792194,17.1300513 C72.7731053,14.31742 75.5903662,12.4762191 78.7238536,12.4606279 C81.8573411,12.4452336 84.693773,14.2584812 85.9171061,17.0591612 C86.1920984,17.7644648 86.053348,18.5589575 85.5542578,19.13685 C85.0551676,19.7147425 84.2735373,19.9859514 83.5102055,19.8460921 C82.7468737,19.7062328 82.1208307,19.177107 81.8730317,18.4623679 C81.3093861,17.2960939 80.0781013,16.5737813 78.7524581,16.6317357 C77.4285352,16.5638714 76.1969731,17.2903466 75.6490659,18.4623679 C75.5872309,18.6619076 75.5554031,18.869071 75.5545682,19.0774436 C75.7644359,20.5977815 77.1808088,21.6810066 78.7524581,21.5231516 C79.9385869,21.5231516 80.9001343,22.456639 80.9001343,23.6081541 C80.9001343,24.7596692 79.9385869,25.6931566 78.7524581,25.6931566 L78.7524581,25.6931566 Z" id="Path" fill="#FFEA00"></path>
                        <path d="M79.3105651,35.0428177 C76.1631778,35.1258596 73.3003175,33.2854487 72.1537521,30.4420076 C71.7734994,29.3614098 72.3604552,28.1852641 73.4703076,27.8038854 C74.58016,27.4225067 75.7998934,27.9778196 76.2061981,29.0494652 C76.8126785,30.1749937 78.013843,30.8805642 79.3234641,30.8805642 C80.6330853,30.8805642 81.8342498,30.1749937 82.4407302,29.0494652 C82.5043272,28.8467063 82.5369214,28.6360009 82.537473,28.4240719 C82.3024422,26.9077406 80.8845123,25.835093 79.3105651,25.9829534 C78.123242,25.9829534 77.1607264,25.0496263 77.1607264,23.8983091 C77.1607264,22.7469918 78.123242,21.8136647 79.3105651,21.8136647 C83.2679688,21.6365064 86.6299002,24.5919112 86.8350005,28.4282412 C86.831559,29.0893276 86.7235266,29.7459878 86.5146746,30.375299 C85.3775408,33.2554902 82.4898922,35.1263882 79.3105651,35.0428177 L79.3105651,35.0428177 Z" id="Path" fill="#FFEA00"></path>
                        <path d="M78.6577135,36.6030944 C77.5824299,36.6030944 76.7107404,35.6382357 76.7107404,34.4480221 L76.7107404,32.5278527 C76.7107404,31.3376392 77.5824299,30.3727805 78.6577135,30.3727805 C79.732997,30.3727805 80.6046866,31.3376392 80.6046866,32.5278527 L80.6046866,34.4480221 C80.6046866,35.6382357 79.732997,36.6030944 78.6577135,36.6030944 L78.6577135,36.6030944 Z" id="Path" fill="#FFEA00"></path>
                        <path d="M78.6577135,16.3545741 C77.5824299,16.3545741 76.7107404,15.3893815 76.7107404,14.1987561 L76.7107404,12.2800781 C76.7107404,11.0894527 77.5824299,10.1242602 78.6577135,10.1242602 C79.732997,10.1242602 80.6046866,11.0894527 80.6046866,12.2800781 L80.6046866,14.2009119 C80.6036121,15.3906953 79.7322371,16.3545741 78.6577135,16.3545741 L78.6577135,16.3545741 Z" id="Path" fill="#FFEA00"></path>
                        <path d="M99.4896721,42.0546191 L57.8257548,42.0546191 C56.642582,42.0546191 55.6834308,41.1829295 55.6834308,40.107646 C55.6834308,39.0323624 56.642582,38.1606729 57.8257548,38.1606729 L99.4896721,38.1606729 C100.672845,38.1606729 101.631996,39.0323624 101.631996,40.107646 C101.631996,41.1829295 100.672845,42.0546191 99.4896721,42.0546191 Z" id="Path" fill="#000000"></path>
                    </g>
                </g>
            </g>
        </g>
    </g>
</svg>