<?xml version="1.0" encoding="utf-8"?>
<!-- Generator: Adobe Illustrator 24.3.0, SVG Export Plug-In . SVG Version: 6.00 Build 0)  -->
<svg version="1.1" id="Layer_1" xmlns="http://www.w3.org/2000/svg" xmlns:xlink="http://www.w3.org/1999/xlink" x="0px" y="0px"
	 viewBox="0 0 68.9 21.5" style="enable-background:new 0 0 68.9 21.5;" xml:space="preserve">
<style type="text/css">
	.st0{fill:#2984FD;}
</style>
<path class="st0" d="M55.8,0.1l-1.2,1.5c-0.1,0.1-0.1,0.2,0,0.3c0,0,0,0,0,0l8.6,7c0.2,0.2,0.2,0.4,0.1,0.6
	c-0.1,0.1-0.2,0.2-0.3,0.2H0.2C0.1,9.6,0,9.7,0,9.9l0,0v1.9C0,11.9,0.1,12,0.2,12c0,0,0,0,0,0h63c0.2,0,0.4,0.2,0.4,0.4
	c0,0.1-0.1,0.3-0.2,0.3l-8.6,7c-0.1,0.1-0.1,0.2,0,0.3c0,0,0,0,0,0l1.2,1.5c0.1,0.1,0.2,0.1,0.3,0l12.2-9.8c0.4-0.4,0.5-1,0.1-1.4
	c0,0-0.1-0.1-0.1-0.1L56.1,0.1C56.1,0,55.9,0,55.8,0.1C55.9,0.1,55.9,0.1,55.8,0.1z"/>
</svg>
