<?xml version="1.0" encoding="utf-8"?>
<!-- Generator: Adobe Illustrator 24.3.0, SVG Export Plug-In . SVG Version: 6.00 Build 0)  -->
<svg version="1.1" id="Layer_1" xmlns="http://www.w3.org/2000/svg" xmlns:xlink="http://www.w3.org/1999/xlink" x="0px" y="0px"
	 viewBox="0 0 129.33 38.01" style="enable-background:new 0 0 129.33 38.01;" xml:space="preserve">
<style type="text/css">
	.st0{fill:#231F20;}
</style>
<g>
	<g>
		<polygon class="st0" points="16.98,27.87 6.43,19.33 23.46,5.51 23.46,0.3 0,19.34 13.77,30.47 		"/>
		<polygon class="st0" points="20.54,30.75 17.32,33.35 23.06,37.99 23.06,32.78 		"/>
	</g>
	<g>
		<polygon class="st0" points="13.73,7.85 16.95,5.24 10.93,0.36 10.93,5.57 		"/>
		<polygon class="st0" points="34.31,19.34 20.58,8.2 17.37,10.8 25.17,17.13 11.9,17.13 11.9,21.18 25.6,21.18 11.23,32.8 
			11.23,38.01 		"/>
	</g>
</g>
<g>
	<path d="M44.63,31.97h0.59c0.02,0,0.03,0.01,0.04,0.02c0.01,0.01,0.02,0.03,0.02,0.04v3.43c0,0.02-0.01,0.03-0.02,0.04
		c-0.01,0.01-0.03,0.02-0.04,0.02h-0.59c-0.02,0-0.03-0.01-0.04-0.02c-0.01-0.01-0.02-0.03-0.02-0.04v-2.24c0-0.01,0-0.02-0.01-0.02
		c-0.01,0-0.01,0.01-0.02,0.02L44,34.06c-0.02,0.03-0.04,0.04-0.07,0.04h-0.3c-0.03,0-0.05-0.01-0.07-0.04l-0.54-0.84
		c-0.01-0.01-0.01-0.01-0.02-0.01c-0.01,0-0.01,0.01-0.01,0.02v2.23c0,0.02-0.01,0.03-0.02,0.04c-0.01,0.01-0.03,0.02-0.04,0.02
		h-0.59c-0.02,0-0.03-0.01-0.04-0.02c-0.01-0.01-0.02-0.03-0.02-0.04v-3.43c0-0.02,0.01-0.03,0.02-0.04
		c0.01-0.01,0.03-0.02,0.04-0.02h0.59c0.03,0,0.05,0.01,0.07,0.04l0.76,1.18c0.01,0.02,0.02,0.02,0.03,0l0.77-1.18
		C44.58,31.98,44.6,31.97,44.63,31.97z"/>
	<path d="M48.86,32.56c-0.01,0.01-0.03,0.02-0.04,0.02h-1.67c-0.02,0-0.03,0.01-0.03,0.03v0.79c0,0.02,0.01,0.03,0.03,0.03h1.09
		c0.02,0,0.03,0.01,0.04,0.02c0.01,0.01,0.02,0.03,0.02,0.04v0.49c0,0.02-0.01,0.03-0.02,0.04c-0.01,0.01-0.03,0.02-0.04,0.02h-1.09
		c-0.02,0-0.03,0.01-0.03,0.03v0.82c0,0.02,0.01,0.03,0.03,0.03h1.67c0.02,0,0.03,0.01,0.04,0.02c0.01,0.01,0.02,0.03,0.02,0.04
		v0.49c0,0.02-0.01,0.03-0.02,0.04c-0.01,0.01-0.03,0.02-0.04,0.02h-2.35c-0.02,0-0.03-0.01-0.04-0.02
		c-0.01-0.01-0.02-0.03-0.02-0.04v-3.43c0-0.02,0.01-0.03,0.02-0.04c0.01-0.01,0.03-0.02,0.04-0.02h2.35c0.02,0,0.03,0.01,0.04,0.02
		c0.01,0.01,0.02,0.03,0.02,0.04v0.49C48.88,32.54,48.88,32.55,48.86,32.56z"/>
	<path d="M49.9,35.5c-0.01-0.01-0.02-0.03-0.02-0.04v-3.43c0-0.02,0.01-0.03,0.02-0.04c0.01-0.01,0.03-0.02,0.04-0.02h1.27
		c0.25,0,0.48,0.04,0.67,0.13c0.19,0.09,0.34,0.22,0.44,0.38c0.1,0.16,0.16,0.35,0.16,0.56v1.4c0,0.21-0.05,0.4-0.16,0.56
		c-0.1,0.16-0.25,0.29-0.44,0.38c-0.19,0.09-0.41,0.13-0.67,0.13h-1.27C49.93,35.52,49.92,35.51,49.9,35.5z M50.63,34.91h0.61
		c0.16,0,0.28-0.05,0.38-0.16c0.1-0.1,0.15-0.25,0.15-0.42v-1.17c0-0.18-0.05-0.32-0.14-0.42c-0.1-0.11-0.23-0.16-0.39-0.16h-0.61
		c-0.02,0-0.03,0.01-0.03,0.03v2.27C50.6,34.9,50.61,34.91,50.63,34.91z"/>
	<path d="M53.55,35.5c-0.01-0.01-0.02-0.03-0.02-0.04v-3.43c0-0.02,0.01-0.03,0.02-0.04c0.01-0.01,0.03-0.02,0.04-0.02h0.59
		c0.02,0,0.03,0.01,0.04,0.02c0.01,0.01,0.02,0.03,0.02,0.04v3.43c0,0.02-0.01,0.03-0.02,0.04c-0.01,0.01-0.03,0.02-0.04,0.02h-0.59
		C53.58,35.52,53.56,35.51,53.55,35.5z"/>
	<path d="M57.57,35.47l-0.15-0.5c-0.01-0.01-0.02-0.02-0.03-0.02h-1.25c-0.01,0-0.02,0.01-0.03,0.02l-0.15,0.5
		c-0.01,0.03-0.03,0.05-0.07,0.05h-0.64c-0.02,0-0.04-0.01-0.05-0.02c-0.01-0.01-0.01-0.03-0.01-0.05l1.1-3.43
		c0.01-0.03,0.03-0.05,0.07-0.05h0.8c0.03,0,0.06,0.02,0.07,0.05l1.1,3.43c0,0.01,0,0.02,0,0.03c0,0.03-0.02,0.05-0.06,0.05h-0.64
		C57.6,35.52,57.58,35.5,57.57,35.47z M56.32,34.4h0.89c0.02,0,0.03-0.01,0.02-0.03l-0.46-1.51c0-0.01-0.01-0.02-0.02-0.02
		c-0.01,0-0.01,0.01-0.02,0.02l-0.45,1.51C56.29,34.39,56.3,34.4,56.32,34.4z"/>
	<path d="M60.62,35.45l1.3-3.44c0.01-0.03,0.03-0.05,0.07-0.05h0.59c0.05,0,0.07,0.02,0.05,0.07l-1.3,3.44
		c-0.01,0.03-0.03,0.05-0.07,0.05h-0.59C60.62,35.52,60.61,35.5,60.62,35.45z"/>
	<path d="M65.8,35.41c-0.2-0.1-0.35-0.25-0.46-0.43c-0.11-0.19-0.16-0.4-0.16-0.64v-1.17c0-0.24,0.05-0.46,0.16-0.64
		c0.11-0.19,0.26-0.33,0.46-0.43c0.2-0.1,0.43-0.15,0.7-0.15c0.26,0,0.49,0.05,0.69,0.14c0.2,0.1,0.35,0.23,0.46,0.41
		c0.11,0.18,0.17,0.38,0.17,0.62c0,0.03-0.02,0.05-0.06,0.06l-0.59,0.04h-0.01c-0.03,0-0.05-0.02-0.05-0.06
		c0-0.18-0.06-0.32-0.17-0.43c-0.11-0.11-0.25-0.16-0.43-0.16c-0.18,0-0.33,0.05-0.44,0.16c-0.11,0.11-0.17,0.25-0.17,0.43v1.22
		c0,0.18,0.05,0.32,0.17,0.43s0.26,0.16,0.44,0.16c0.18,0,0.32-0.05,0.43-0.16c0.11-0.11,0.17-0.25,0.17-0.43
		c0-0.04,0.02-0.06,0.06-0.06l0.59,0.03c0.02,0,0.03,0,0.04,0.02c0.01,0.01,0.02,0.02,0.02,0.04c0,0.23-0.05,0.44-0.17,0.62
		c-0.11,0.18-0.26,0.32-0.46,0.42s-0.43,0.15-0.69,0.15C66.23,35.56,66,35.51,65.8,35.41z"/>
	<path d="M70.72,35.48l-0.63-1.41c-0.01-0.01-0.02-0.02-0.03-0.02h-0.47c-0.02,0-0.03,0.01-0.03,0.03v1.39
		c0,0.02-0.01,0.03-0.02,0.04c-0.01,0.01-0.03,0.02-0.04,0.02H68.9c-0.02,0-0.03-0.01-0.04-0.02c-0.01-0.01-0.02-0.03-0.02-0.04
		v-3.43c0-0.02,0.01-0.03,0.02-0.04c0.01-0.01,0.03-0.02,0.04-0.02h1.45c0.22,0,0.41,0.04,0.57,0.13c0.16,0.09,0.29,0.21,0.38,0.38
		c0.09,0.16,0.13,0.35,0.13,0.56c0,0.23-0.06,0.43-0.17,0.59c-0.12,0.16-0.28,0.28-0.48,0.35c-0.02,0.01-0.02,0.02-0.02,0.04
		l0.69,1.44c0.01,0.01,0.01,0.02,0.01,0.03c0,0.03-0.02,0.04-0.06,0.04h-0.62C70.75,35.52,70.73,35.51,70.72,35.48z M69.55,32.61
		v0.87c0,0.02,0.01,0.03,0.03,0.03h0.67c0.14,0,0.26-0.04,0.35-0.13c0.09-0.08,0.13-0.19,0.13-0.33c0-0.14-0.04-0.25-0.13-0.33
		c-0.09-0.09-0.21-0.13-0.35-0.13h-0.67C69.56,32.58,69.55,32.59,69.55,32.61z"/>
	<path d="M74.91,32.56c-0.01,0.01-0.03,0.02-0.04,0.02H73.2c-0.02,0-0.03,0.01-0.03,0.03v0.79c0,0.02,0.01,0.03,0.03,0.03h1.09
		c0.02,0,0.03,0.01,0.04,0.02c0.01,0.01,0.02,0.03,0.02,0.04v0.49c0,0.02-0.01,0.03-0.02,0.04c-0.01,0.01-0.03,0.02-0.04,0.02H73.2
		c-0.02,0-0.03,0.01-0.03,0.03v0.82c0,0.02,0.01,0.03,0.03,0.03h1.67c0.02,0,0.03,0.01,0.04,0.02c0.01,0.01,0.02,0.03,0.02,0.04
		v0.49c0,0.02-0.01,0.03-0.02,0.04c-0.01,0.01-0.03,0.02-0.04,0.02h-2.35c-0.02,0-0.03-0.01-0.04-0.02
		c-0.01-0.01-0.02-0.03-0.02-0.04v-3.43c0-0.02,0.01-0.03,0.02-0.04c0.01-0.01,0.03-0.02,0.04-0.02h2.35c0.02,0,0.03,0.01,0.04,0.02
		c0.01,0.01,0.02,0.03,0.02,0.04v0.49C74.93,32.54,74.92,32.55,74.91,32.56z"/>
	<path d="M78.13,35.47l-0.15-0.5c-0.01-0.01-0.02-0.02-0.03-0.02H76.7c-0.01,0-0.02,0.01-0.03,0.02l-0.15,0.5
		c-0.01,0.03-0.03,0.05-0.07,0.05h-0.64c-0.02,0-0.04-0.01-0.05-0.02c-0.01-0.01-0.01-0.03-0.01-0.05l1.1-3.43
		c0.01-0.03,0.03-0.05,0.07-0.05h0.8c0.03,0,0.06,0.02,0.07,0.05l1.1,3.43c0,0.01,0,0.02,0,0.03c0,0.03-0.02,0.05-0.06,0.05h-0.64
		C78.16,35.52,78.14,35.5,78.13,35.47z M76.88,34.4h0.89c0.02,0,0.03-0.01,0.02-0.03l-0.46-1.51c0-0.01-0.01-0.02-0.02-0.02
		c-0.01,0-0.01,0.01-0.02,0.02l-0.45,1.51C76.86,34.39,76.86,34.4,76.88,34.4z"/>
	<path d="M81.91,31.98c0.01,0.01,0.02,0.03,0.02,0.04v0.5c0,0.02-0.01,0.03-0.02,0.04c-0.01,0.01-0.03,0.02-0.04,0.02h-0.91
		c-0.02,0-0.03,0.01-0.03,0.03v2.85c0,0.02-0.01,0.03-0.02,0.04c-0.01,0.01-0.03,0.02-0.04,0.02h-0.59c-0.02,0-0.03-0.01-0.04-0.02
		c-0.01-0.01-0.02-0.03-0.02-0.04v-2.85c0-0.02-0.01-0.03-0.03-0.03h-0.88c-0.02,0-0.03-0.01-0.04-0.02
		c-0.01-0.01-0.02-0.03-0.02-0.04v-0.5c0-0.02,0.01-0.03,0.02-0.04c0.01-0.01,0.03-0.02,0.04-0.02h2.56
		C81.88,31.97,81.9,31.97,81.91,31.98z"/>
	<path d="M82.91,35.5c-0.01-0.01-0.02-0.03-0.02-0.04v-3.43c0-0.02,0.01-0.03,0.02-0.04c0.01-0.01,0.03-0.02,0.04-0.02h0.59
		c0.02,0,0.03,0.01,0.04,0.02c0.01,0.01,0.02,0.03,0.02,0.04v3.43c0,0.02-0.01,0.03-0.02,0.04c-0.01,0.01-0.03,0.02-0.04,0.02h-0.59
		C82.93,35.52,82.92,35.51,82.91,35.5z"/>
	<path d="M85.61,35.47l-1.05-3.43l0-0.02c0-0.03,0.02-0.05,0.06-0.05h0.64c0.04,0,0.06,0.02,0.07,0.05L86,34.5
		c0,0.01,0.01,0.02,0.02,0.02c0.01,0,0.01,0,0.02-0.02l0.67-2.48c0.01-0.03,0.03-0.05,0.07-0.05h0.62c0.02,0,0.04,0.01,0.05,0.02
		c0.01,0.01,0.01,0.03,0,0.05l-1.06,3.43c-0.01,0.03-0.03,0.05-0.07,0.05h-0.64C85.64,35.52,85.62,35.5,85.61,35.47z"/>
	<path d="M90.82,32.56c-0.01,0.01-0.03,0.02-0.04,0.02h-1.67c-0.02,0-0.03,0.01-0.03,0.03v0.79c0,0.02,0.01,0.03,0.03,0.03h1.09
		c0.02,0,0.03,0.01,0.04,0.02c0.01,0.01,0.02,0.03,0.02,0.04v0.49c0,0.02-0.01,0.03-0.02,0.04c-0.01,0.01-0.03,0.02-0.04,0.02h-1.09
		c-0.02,0-0.03,0.01-0.03,0.03v0.82c0,0.02,0.01,0.03,0.03,0.03h1.67c0.02,0,0.03,0.01,0.04,0.02c0.01,0.01,0.02,0.03,0.02,0.04
		v0.49c0,0.02-0.01,0.03-0.02,0.04c-0.01,0.01-0.03,0.02-0.04,0.02h-2.35c-0.02,0-0.03-0.01-0.04-0.02
		c-0.01-0.01-0.02-0.03-0.02-0.04v-3.43c0-0.02,0.01-0.03,0.02-0.04c0.01-0.01,0.03-0.02,0.04-0.02h2.35c0.02,0,0.03,0.01,0.04,0.02
		c0.01,0.01,0.02,0.03,0.02,0.04v0.49C90.83,32.54,90.83,32.55,90.82,32.56z"/>
	<path d="M93.17,35.45l1.3-3.44c0.01-0.03,0.03-0.05,0.07-0.05h0.59c0.05,0,0.07,0.02,0.05,0.07l-1.3,3.44
		c-0.01,0.03-0.03,0.05-0.07,0.05h-0.59C93.17,35.52,93.16,35.5,93.17,35.45z"/>
	<path d="M98.35,35.41c-0.2-0.1-0.35-0.25-0.46-0.43c-0.11-0.19-0.16-0.4-0.16-0.64v-1.17c0-0.24,0.05-0.46,0.16-0.64
		c0.11-0.19,0.26-0.33,0.46-0.43c0.2-0.1,0.43-0.15,0.7-0.15c0.26,0,0.49,0.05,0.69,0.14c0.2,0.1,0.35,0.23,0.46,0.41
		c0.11,0.18,0.17,0.38,0.17,0.62c0,0.03-0.02,0.05-0.06,0.06l-0.59,0.04h-0.01c-0.03,0-0.05-0.02-0.05-0.06
		c0-0.18-0.06-0.32-0.17-0.43c-0.11-0.11-0.25-0.16-0.43-0.16c-0.18,0-0.33,0.05-0.44,0.16c-0.11,0.11-0.17,0.25-0.17,0.43v1.22
		c0,0.18,0.05,0.32,0.17,0.43s0.26,0.16,0.44,0.16c0.18,0,0.32-0.05,0.43-0.16c0.11-0.11,0.17-0.25,0.17-0.43
		c0-0.04,0.02-0.06,0.06-0.06l0.59,0.03c0.02,0,0.03,0,0.04,0.02c0.01,0.01,0.02,0.02,0.02,0.04c0,0.23-0.05,0.44-0.17,0.62
		c-0.11,0.18-0.26,0.32-0.46,0.42c-0.2,0.1-0.43,0.15-0.69,0.15C98.78,35.56,98.55,35.51,98.35,35.41z"/>
	<path d="M101.95,35.41c-0.2-0.11-0.36-0.26-0.47-0.45c-0.11-0.19-0.17-0.42-0.17-0.67V33.2c0-0.25,0.06-0.47,0.17-0.67
		c0.11-0.19,0.27-0.34,0.47-0.45c0.2-0.11,0.43-0.16,0.7-0.16c0.27,0,0.5,0.05,0.7,0.16c0.2,0.11,0.36,0.26,0.47,0.45
		c0.11,0.19,0.17,0.41,0.17,0.67v1.09c0,0.25-0.06,0.48-0.17,0.68c-0.11,0.2-0.27,0.35-0.47,0.45c-0.2,0.11-0.44,0.16-0.7,0.16
		C102.39,35.58,102.16,35.52,101.95,35.41z M103.1,34.78c0.12-0.12,0.17-0.28,0.17-0.47V33.2c0-0.2-0.06-0.35-0.17-0.47
		c-0.11-0.12-0.26-0.18-0.45-0.18c-0.19,0-0.34,0.06-0.45,0.18c-0.11,0.12-0.17,0.28-0.17,0.47v1.12c0,0.2,0.06,0.35,0.17,0.47
		c0.11,0.12,0.26,0.18,0.45,0.18C102.84,34.96,102.99,34.9,103.1,34.78z"/>
	<path d="M107.4,31.97H108c0.02,0,0.03,0.01,0.04,0.02c0.01,0.01,0.02,0.03,0.02,0.04v3.43c0,0.02-0.01,0.03-0.02,0.04
		c-0.01,0.01-0.03,0.02-0.04,0.02h-0.59c-0.02,0-0.03-0.01-0.04-0.02c-0.01-0.01-0.02-0.03-0.02-0.04v-2.24c0-0.01,0-0.02-0.01-0.02
		c-0.01,0-0.01,0.01-0.02,0.02l-0.54,0.84c-0.02,0.03-0.04,0.04-0.07,0.04h-0.3c-0.03,0-0.05-0.01-0.07-0.04l-0.54-0.84
		c-0.01-0.01-0.01-0.01-0.02-0.01c-0.01,0-0.01,0.01-0.01,0.02v2.23c0,0.02-0.01,0.03-0.02,0.04c-0.01,0.01-0.03,0.02-0.04,0.02
		h-0.59c-0.02,0-0.03-0.01-0.04-0.02c-0.01-0.01-0.02-0.03-0.02-0.04v-3.43c0-0.02,0.01-0.03,0.02-0.04
		c0.01-0.01,0.03-0.02,0.04-0.02h0.59c0.03,0,0.05,0.01,0.07,0.04l0.76,1.18c0.01,0.02,0.02,0.02,0.03,0l0.77-1.18
		C107.35,31.98,107.37,31.97,107.4,31.97z"/>
	<path d="M111.54,31.97h0.59c0.02,0,0.03,0.01,0.04,0.02c0.01,0.01,0.02,0.03,0.02,0.04v3.43c0,0.02-0.01,0.03-0.02,0.04
		c-0.01,0.01-0.03,0.02-0.04,0.02h-0.59c-0.02,0-0.03-0.01-0.04-0.02c-0.01-0.01-0.02-0.03-0.02-0.04v-2.24c0-0.01,0-0.02-0.01-0.02
		c-0.01,0-0.01,0.01-0.02,0.02l-0.54,0.84c-0.02,0.03-0.04,0.04-0.07,0.04h-0.3c-0.03,0-0.05-0.01-0.07-0.04l-0.54-0.84
		c-0.01-0.01-0.01-0.01-0.02-0.01c-0.01,0-0.01,0.01-0.01,0.02v2.23c0,0.02-0.01,0.03-0.02,0.04c-0.01,0.01-0.03,0.02-0.04,0.02
		h-0.59c-0.02,0-0.03-0.01-0.04-0.02c-0.01-0.01-0.02-0.03-0.02-0.04v-3.43c0-0.02,0.01-0.03,0.02-0.04
		c0.01-0.01,0.03-0.02,0.04-0.02h0.59c0.03,0,0.05,0.01,0.07,0.04l0.76,1.18c0.01,0.02,0.02,0.02,0.03,0l0.77-1.18
		C111.49,31.98,111.51,31.97,111.54,31.97z"/>
	<path d="M115.77,32.56c-0.01,0.01-0.03,0.02-0.04,0.02h-1.67c-0.02,0-0.03,0.01-0.03,0.03v0.79c0,0.02,0.01,0.03,0.03,0.03h1.09
		c0.02,0,0.03,0.01,0.04,0.02c0.01,0.01,0.02,0.03,0.02,0.04v0.49c0,0.02-0.01,0.03-0.02,0.04c-0.01,0.01-0.03,0.02-0.04,0.02h-1.09
		c-0.02,0-0.03,0.01-0.03,0.03v0.82c0,0.02,0.01,0.03,0.03,0.03h1.67c0.02,0,0.03,0.01,0.04,0.02c0.01,0.01,0.02,0.03,0.02,0.04
		v0.49c0,0.02-0.01,0.03-0.02,0.04c-0.01,0.01-0.03,0.02-0.04,0.02h-2.35c-0.02,0-0.03-0.01-0.04-0.02
		c-0.01-0.01-0.02-0.03-0.02-0.04v-3.43c0-0.02,0.01-0.03,0.02-0.04c0.01-0.01,0.03-0.02,0.04-0.02h2.35c0.02,0,0.03,0.01,0.04,0.02
		c0.01,0.01,0.02,0.03,0.02,0.04v0.49C115.79,32.54,115.78,32.55,115.77,32.56z"/>
	<path d="M118.67,35.48l-0.63-1.41c-0.01-0.01-0.02-0.02-0.03-0.02h-0.47c-0.02,0-0.03,0.01-0.03,0.03v1.39
		c0,0.02-0.01,0.03-0.02,0.04c-0.01,0.01-0.03,0.02-0.04,0.02h-0.59c-0.02,0-0.03-0.01-0.04-0.02c-0.01-0.01-0.02-0.03-0.02-0.04
		v-3.43c0-0.02,0.01-0.03,0.02-0.04c0.01-0.01,0.03-0.02,0.04-0.02h1.45c0.22,0,0.41,0.04,0.57,0.13c0.16,0.09,0.29,0.21,0.38,0.38
		c0.09,0.16,0.13,0.35,0.13,0.56c0,0.23-0.06,0.43-0.17,0.59c-0.12,0.16-0.28,0.28-0.48,0.35c-0.02,0.01-0.02,0.02-0.02,0.04
		l0.69,1.44c0.01,0.01,0.01,0.02,0.01,0.03c0,0.03-0.02,0.04-0.06,0.04h-0.62C118.71,35.52,118.69,35.51,118.67,35.48z
		 M117.51,32.61v0.87c0,0.02,0.01,0.03,0.03,0.03h0.67c0.14,0,0.26-0.04,0.35-0.13c0.09-0.08,0.13-0.19,0.13-0.33
		c0-0.14-0.04-0.25-0.13-0.33c-0.09-0.09-0.21-0.13-0.35-0.13h-0.67C117.52,32.58,117.51,32.59,117.51,32.61z"/>
	<path d="M120.97,35.41c-0.2-0.1-0.35-0.25-0.46-0.43c-0.11-0.19-0.16-0.4-0.16-0.64v-1.17c0-0.24,0.05-0.46,0.16-0.64
		c0.11-0.19,0.26-0.33,0.46-0.43c0.2-0.1,0.43-0.15,0.7-0.15c0.26,0,0.49,0.05,0.69,0.14c0.2,0.1,0.35,0.23,0.46,0.41
		c0.11,0.18,0.17,0.38,0.17,0.62c0,0.03-0.02,0.05-0.06,0.06l-0.59,0.04h-0.01c-0.03,0-0.05-0.02-0.05-0.06
		c0-0.18-0.06-0.32-0.17-0.43c-0.11-0.11-0.25-0.16-0.43-0.16c-0.18,0-0.33,0.05-0.44,0.16c-0.11,0.11-0.17,0.25-0.17,0.43v1.22
		c0,0.18,0.05,0.32,0.17,0.43c0.11,0.11,0.26,0.16,0.44,0.16c0.18,0,0.32-0.05,0.43-0.16c0.11-0.11,0.17-0.25,0.17-0.43
		c0-0.04,0.02-0.06,0.06-0.06l0.59,0.03c0.02,0,0.03,0,0.04,0.02c0.01,0.01,0.02,0.02,0.02,0.04c0,0.23-0.05,0.44-0.17,0.62
		c-0.11,0.18-0.26,0.32-0.46,0.42c-0.2,0.1-0.43,0.15-0.69,0.15C121.41,35.56,121.17,35.51,120.97,35.41z"/>
	<path d="M126.46,32.56c-0.01,0.01-0.03,0.02-0.04,0.02h-1.67c-0.02,0-0.03,0.01-0.03,0.03v0.79c0,0.02,0.01,0.03,0.03,0.03h1.09
		c0.02,0,0.03,0.01,0.04,0.02c0.01,0.01,0.02,0.03,0.02,0.04v0.49c0,0.02-0.01,0.03-0.02,0.04c-0.01,0.01-0.03,0.02-0.04,0.02h-1.09
		c-0.02,0-0.03,0.01-0.03,0.03v0.82c0,0.02,0.01,0.03,0.03,0.03h1.67c0.02,0,0.03,0.01,0.04,0.02c0.01,0.01,0.02,0.03,0.02,0.04
		v0.49c0,0.02-0.01,0.03-0.02,0.04c-0.01,0.01-0.03,0.02-0.04,0.02h-2.35c-0.02,0-0.03-0.01-0.04-0.02
		c-0.01-0.01-0.02-0.03-0.02-0.04v-3.43c0-0.02,0.01-0.03,0.02-0.04c0.01-0.01,0.03-0.02,0.04-0.02h2.35c0.02,0,0.03,0.01,0.04,0.02
		c0.01,0.01,0.02,0.03,0.02,0.04v0.49C126.48,32.54,126.48,32.55,126.46,32.56z"/>
</g>
<g>
	<path d="M43.42,25.75c-1.25-0.66-2.21-1.59-2.89-2.78c-0.69-1.2-1.03-2.58-1.03-4.15V7.84c0-1.57,0.34-2.94,1.03-4.13
		c0.68-1.18,1.65-2.1,2.89-2.75C44.67,0.32,46.1,0,47.72,0c1.62,0,3.05,0.32,4.3,0.95c1.24,0.63,2.21,1.53,2.89,2.69
		c0.68,1.16,1.03,2.51,1.03,4.05v0.22c0,0.12-0.04,0.24-0.13,0.34c-0.09,0.1-0.19,0.15-0.32,0.15l-3.47,0.15
		c-0.3,0-0.45-0.15-0.45-0.45V7.66c0-1.17-0.35-2.12-1.06-2.84c-0.71-0.72-1.64-1.08-2.78-1.08c-1.17,0-2.11,0.36-2.82,1.08
		c-0.71,0.72-1.06,1.67-1.06,2.84v11.47c0,1.17,0.35,2.11,1.06,2.82c0.71,0.71,1.65,1.06,2.82,1.06c1.15,0,2.07-0.35,2.78-1.06
		c0.71-0.71,1.06-1.65,1.06-2.82v-0.49c0-0.27,0.15-0.41,0.45-0.41l3.47,0.15c0.12,0,0.23,0.04,0.32,0.13
		c0.09,0.09,0.13,0.19,0.13,0.32v0.15c0,1.54-0.34,2.91-1.03,4.09c-0.69,1.18-1.65,2.09-2.89,2.73c-1.25,0.64-2.68,0.95-4.3,0.95
		C46.1,26.74,44.67,26.41,43.42,25.75z"/>
	<path d="M62.04,25.77c-1.26-0.67-2.23-1.62-2.91-2.86c-0.69-1.23-1.03-2.66-1.03-4.28V8.1c0-1.59,0.34-3.01,1.03-4.24
		c0.68-1.23,1.66-2.18,2.91-2.86C63.3,0.34,64.75,0,66.39,0c1.67,0,3.13,0.34,4.39,1.01c1.26,0.67,2.23,1.62,2.93,2.86
		c0.7,1.23,1.05,2.65,1.05,4.24v10.53c0,1.62-0.35,3.04-1.05,4.28c-0.7,1.23-1.67,2.18-2.93,2.86c-1.26,0.67-2.72,1.01-4.39,1.01
		C64.75,26.78,63.3,26.44,62.04,25.77z M69.32,21.87c0.73-0.78,1.1-1.8,1.1-3.04V7.99c0-1.27-0.37-2.3-1.1-3.08
		c-0.73-0.78-1.71-1.18-2.93-1.18c-1.2,0-2.15,0.39-2.88,1.18c-0.72,0.78-1.08,1.81-1.08,3.08v10.83c0,1.25,0.36,2.26,1.08,3.04
		c0.72,0.78,1.68,1.18,2.88,1.18C67.61,23.04,68.59,22.65,69.32,21.87z"/>
	<path d="M77.8,26.31c-0.09-0.09-0.13-0.19-0.13-0.32V0.75c0-0.12,0.04-0.23,0.13-0.32c0.09-0.09,0.19-0.13,0.32-0.13h7.73
		c2.41,0,4.35,0.67,5.81,2.02c1.46,1.34,2.19,3.14,2.19,5.38v11.35c0,2.24-0.73,4.03-2.19,5.38c-1.46,1.34-3.39,2.02-5.81,2.02
		h-7.73C77.99,26.44,77.89,26.4,77.8,26.31z M82.19,22.71l3.7-0.04c1.07,0,1.93-0.37,2.58-1.1c0.65-0.73,1-1.74,1.05-3.01V8.18
		c0-1.27-0.33-2.28-0.99-3.03c-0.66-0.75-1.54-1.12-2.63-1.12h-3.7C82.07,4.03,82,4.1,82,4.22v18.3
		C82,22.65,82.07,22.71,82.19,22.71z"/>
	<path d="M111.94,3.9c-0.09,0.09-0.19,0.13-0.32,0.13h-10.38c-0.12,0-0.19,0.06-0.19,0.19v7.02c0,0.12,0.06,0.19,0.19,0.19h6.65
		c0.12,0,0.23,0.04,0.32,0.13c0.09,0.09,0.13,0.19,0.13,0.32v2.84c0,0.12-0.04,0.23-0.13,0.32c-0.09,0.09-0.19,0.13-0.32,0.13h-6.65
		c-0.12,0-0.19,0.06-0.19,0.19v7.17c0,0.12,0.06,0.19,0.19,0.19h10.38c0.12,0,0.23,0.04,0.32,0.13c0.09,0.09,0.13,0.19,0.13,0.32V26
		c0,0.12-0.04,0.23-0.13,0.32c-0.09,0.09-0.19,0.13-0.32,0.13H97.17c-0.13,0-0.23-0.04-0.32-0.13c-0.09-0.09-0.13-0.19-0.13-0.32
		V0.75c0-0.12,0.04-0.23,0.13-0.32c0.09-0.09,0.19-0.13,0.32-0.13h14.45c0.12,0,0.23,0.04,0.32,0.13c0.09,0.09,0.13,0.19,0.13,0.32
		v2.84C112.07,3.71,112.03,3.82,111.94,3.9z"/>
	<path d="M129.33,18.23c0,1.59-0.26,2.99-0.78,4.18c-0.52,1.39-1.34,2.47-2.45,3.21c-1.11,0.75-2.51,1.12-4.2,1.12
		c-1.92,0-3.52-0.5-4.82-1.51c-1.3-1.01-2.1-2.36-2.43-4.05c-0.12-0.72-0.21-1.57-0.26-2.54c0-0.3,0.15-0.45,0.45-0.45h3.44
		c0.3,0,0.45,0.15,0.45,0.45c0.05,0.7,0.12,1.3,0.22,1.79c0.15,0.8,0.49,1.43,1.01,1.89c0.52,0.46,1.17,0.69,1.94,0.69
		c0.72,0,1.33-0.2,1.83-0.6c0.5-0.4,0.85-0.96,1.05-1.68c0.2-0.87,0.3-1.82,0.3-2.84c0-1.24-0.12-2.25-0.37-3.03
		c-0.5-1.44-1.43-2.17-2.8-2.17c-0.4,0-0.82,0.12-1.27,0.37c-0.1,0.07-0.2,0.11-0.3,0.11c-0.12,0-0.24-0.05-0.34-0.15l-1.72-1.94
		c-0.1-0.1-0.15-0.21-0.15-0.34c0-0.12,0.04-0.22,0.11-0.3l5.49-6.2c0.12-0.15,0.09-0.22-0.11-0.22h-8.4
		c-0.12,0-0.23-0.04-0.32-0.13c-0.09-0.09-0.13-0.19-0.13-0.32V0.75c0-0.12,0.04-0.23,0.13-0.32c0.09-0.09,0.19-0.13,0.32-0.13
		h13.52c0.12,0,0.23,0.04,0.32,0.13c0.09,0.09,0.13,0.19,0.13,0.32v2.99c0,0.22-0.06,0.4-0.19,0.52l-4.93,5.86
		c-0.07,0.13-0.05,0.2,0.07,0.22c1.05,0.15,1.95,0.54,2.71,1.18c0.76,0.63,1.34,1.46,1.74,2.48
		C129.08,15.23,129.33,16.63,129.33,18.23z"/>
</g>
</svg>
