<?xml version="1.0" encoding="UTF-8"?>
<svg width="134px" height="134px" viewBox="0 0 134 134" version="1.1" xmlns="http://www.w3.org/2000/svg" xmlns:xlink="http://www.w3.org/1999/xlink">
    <title>conversation</title>
    <g id="Page-1" stroke="none" stroke-width="1" fill="none" fill-rule="evenodd">
        <g id="Careers" transform="translate(-653.000000, -2714.000000)">
            <g id="PERKS" transform="translate(105.000000, 2097.000000)">
                <g id="5" transform="translate(413.000000, 617.000000)" fill-rule="nonzero">
                    <g id="_2_PT" transform="translate(135.000000, 0.000000)">
                        <path d="M83.1212032,133.209408 L1.95117962,133.209408 C0.900336531,133.209408 0.0484381619,132.357531 0.0484381619,131.306688 L0.0484381619,129.993812 C0.0289158903,110.572498 13.1939576,93.6154537 32.0141513,88.8208596 L32.9540948,92.5083304 C16.0319449,96.8184476 4.1042971,111.943285 3.85770479,129.403969 L81.214678,129.403969 C80.9347476,111.953246 69.0180998,96.8453205 52.1125798,92.5083304 L53.0525233,88.8208596 C71.8554121,93.6430992 85.009037,110.582413 85.0239229,129.993812 L85.0239229,131.306688 C85.0239229,132.357531 84.1720462,133.209408 83.1212032,133.209408 L83.1212032,133.209408 Z" id="Path" fill="#000000"></path>
                        <path d="M42.5361914,95.1359863 C29.9260743,95.1359863 19.7035547,84.9134667 19.7035547,72.3033496 C19.7035547,59.6932326 29.9260743,49.4707129 42.5361914,49.4707129 C55.1463084,49.4707129 65.3688281,59.6932326 65.3688281,72.3033496 C65.3551954,84.9078155 55.1406573,95.1223536 42.5361914,95.1359863 L42.5361914,95.1359863 Z M42.5361914,53.2761523 C32.0277605,53.2761523 23.5089941,61.7949187 23.5089941,72.3033496 C23.5089941,82.8117805 32.0277605,91.3305469 42.5361914,91.3305469 C53.0446223,91.3305469 61.5633887,82.8117805 61.5633887,72.3033496 C61.5518537,61.7997004 53.0398406,53.2876873 42.5361914,53.2761523 Z" id="Shape" fill="#000000"></path>
                        <path d="M69.5167571,99.5255607 L66.4362539,97.2917678 C71.4875274,90.325489 78.8095347,85.3382883 87.1416499,83.1888092 L88.0930098,86.87628 C80.6176608,88.8026547 74.0482811,93.2759966 69.5167571,99.5255607 L69.5167571,99.5255607 Z" id="Path" fill="#000000"></path>
                        <path d="M131.012659,121.774063 L81.8463809,121.774063 L81.8463809,117.968623 L129.109939,117.968623 C128.749286,103.237869 118.647148,90.5394822 104.374583,86.87628 L105.310721,83.1888092 C121.547452,87.3561121 132.904229,101.985751 132.915378,118.748738 L132.915378,119.871343 C132.915378,120.922186 132.063502,121.774063 131.012659,121.774063 L131.012659,121.774063 Z" id="Path" fill="#000000"></path>
                        <path d="M96.2252339,89.1386138 C85.2659914,89.1386138 76.3817699,80.2543923 76.3817699,69.2951497 C76.3817699,58.3359072 85.2659914,49.4516857 96.2252339,49.4516857 C107.184476,49.4516857 116.068698,58.3359072 116.068698,69.2951497 C116.056116,80.2491763 107.17926,89.1260313 96.2252339,89.1386138 L96.2252339,89.1386138 Z M96.2252339,53.2590279 C87.3676775,53.2590279 80.1872093,60.4394961 80.1872093,69.2970524 C80.1872093,78.1546088 87.3676775,85.335077 96.2252339,85.335077 C105.08279,85.335077 112.263258,78.1546088 112.263258,69.2970524 C112.253822,60.4430995 105.079186,53.2676118 96.2252339,53.2571251 L96.2252339,53.2590279 Z" id="Shape" fill="#000000"></path>
                        <path d="M53.0011499,47.5679932 C51.9503068,47.5679932 51.0984302,46.7161165 51.0984302,45.6652734 L51.0984302,38.0543945 L41.5848315,38.0543945 C36.3332239,38.0481039 32.0775235,33.7924035 32.0712329,28.5407959 L32.0712329,9.51359863 C32.0775235,4.26199106 36.3332239,0.00629061277 41.5848315,-1.4655075e-15 L81.5419458,-1.4655075e-15 C86.7935534,0.00629061277 91.0492538,4.26199106 91.0555444,9.51359863 L91.0555444,15.7545193 L87.250105,15.7545193 L87.250105,9.51359863 C87.250105,6.36106937 84.6944751,3.80543945 81.5419458,3.80543945 L41.5848315,3.80543945 C38.4323023,3.80543945 35.8766723,6.36106937 35.8766723,9.51359863 L35.8766723,28.5407959 C35.8766723,31.6933252 38.4323023,34.2489551 41.5848315,34.2489551 L53.0011499,34.2489551 C54.051993,34.2489551 54.9038696,35.1008317 54.9038696,36.1516748 L54.9038696,41.6029668 L63.1978249,34.6903861 C63.5401234,34.4049367 63.9717671,34.24871 64.4174682,34.2489551 L72.8274894,34.2489551 L72.8274894,38.0543945 L65.1062528,38.0543945 L54.2188905,47.1265622 C53.8770941,47.4115928 53.4461973,47.5679932 53.0011499,47.5679932 L53.0011499,47.5679932 Z" id="Path" fill="#000000"></path>
                        <path d="M96.7827308,47.5679943 C96.49474,47.5679943 96.2104339,47.5032539 95.9512423,47.3777212 L90.4847285,44.7234272 C88.8304766,45.2861831 87.0947372,45.5722587 85.3473852,45.5701375 C77.8429581,45.5827097 71.3195865,40.4220926 69.6047671,33.116206 C67.8899478,25.8103194 71.4359977,18.2862331 78.1623219,14.9585991 C84.8886461,11.6309651 93.0210455,13.3775118 97.7879489,19.1734774 C102.554852,24.9694429 102.698896,33.2860286 98.1355645,39.2435944 L98.6778396,45.4997368 C98.723794,46.0320674 98.5438064,46.5591899 98.1818755,46.9522468 C97.8199447,47.3453037 97.3094267,47.5679943 96.7751199,47.5660904 L96.7827308,47.5679943 Z M90.5798645,40.7562565 C90.8678553,40.7559372 91.1521613,40.8209958 91.411353,40.9465285 L94.5984086,42.4915369 L94.2768489,38.8154824 C94.2322681,38.3076298 94.3933519,37.803129 94.7239881,37.4150807 C98.4543971,33.0105351 98.6194298,26.6042377 95.1207493,22.0134634 C91.6220687,17.4226891 85.4013466,15.8830471 80.1652802,18.3119529 C74.9292139,20.7408587 72.0870932,26.484571 73.3324325,32.120625 C74.5777717,37.756679 79.5753871,41.7681278 85.3473852,41.764698 C86.8981935,41.765575 88.4347879,41.4691072 89.8739555,40.8913496 C90.0985398,40.8018832 90.338116,40.7560343 90.5798645,40.7562565 L90.5798645,40.7562565 Z" id="Shape" fill="#FFEA00"></path>
                        <polygon id="Path" fill="#000000" points="41.5848315 9.51359863 60.6120288 9.51359863 60.6120288 13.3190381 41.5848315 13.3190381"></polygon>
                        <polygon id="Path" fill="#000000" points="41.5848315 19.0271973 45.390271 19.0271973 45.390271 24.7353564 41.5848315 24.7353564"></polygon>
                        <polygon id="Path" fill="#000000" points="51.0984302 19.0271973 54.9038696 19.0271973 54.9038696 24.7353564 51.0984302 24.7353564"></polygon>
                        <polygon id="Path" fill="#000000" points="60.6120288 19.0271973 64.4174682 19.0271973 64.4174682 24.7353564 60.6120288 24.7353564"></polygon>
                    </g>
                </g>
            </g>
        </g>
    </g>
</svg>