<?xml version="1.0" encoding="UTF-8"?>
<svg width="137px" height="133px" viewBox="0 0 137 133" version="1.1" xmlns="http://www.w3.org/2000/svg" xmlns:xlink="http://www.w3.org/1999/xlink">
    <title>monitor-screen</title>
    <g id="Page-1" stroke="none" stroke-width="1" fill="none" fill-rule="evenodd">
        <g id="Careers" transform="translate(-238.000000, -2715.000000)">
            <g id="PERKS" transform="translate(105.000000, 2097.000000)">
                <g id="4" transform="translate(0.000000, 618.000000)" fill-rule="nonzero">
                    <g id="monitor-screen" transform="translate(133.000000, 0.000000)">
                        <path d="M93.7799966,3.90749986 L87.9773593,3.90749986 C86.898333,3.90749986 86.0236093,3.03277622 86.0236093,1.95374993 C86.0236093,0.874723638 86.898333,0 87.9773593,0 L93.7799966,0 C94.8590228,0 95.7337465,0.874723638 95.7337465,1.95374993 C95.7337465,3.03277622 94.8590228,3.90749986 93.7799966,3.90749986 Z" id="Path" fill="#000000"></path>
                        <path d="M128.947495,103.548746 L7.81499971,103.548746 C3.49889455,103.548746 0,100.049852 0,95.7337465 L0,7.81499971 C0,3.49889455 3.49889455,0 7.81499971,0 L54.9589855,0 C56.0380118,0 56.9127354,0.874723638 56.9127354,1.95374993 C56.9127354,3.03277622 56.0380118,3.90749986 54.9589855,3.90749986 L7.81499971,3.90749986 C5.65694713,3.90749986 3.90749986,5.65694713 3.90749986,7.81499971 L3.90749986,95.7337465 C3.90749986,97.8917991 5.65694713,99.6412463 7.81499971,99.6412463 L128.947495,99.6412463 C131.105548,99.6412463 132.854995,97.8917991 132.854995,95.7337465 L132.854995,7.81499971 C132.854995,5.65694713 131.105548,3.90749986 128.947495,3.90749986 L107.456246,3.90749986 C106.37722,3.90749986 105.502496,3.03277622 105.502496,1.95374993 C105.502496,0.874723638 106.37722,0 107.456246,0 L128.947495,0 C133.2636,0 136.762495,3.49889455 136.762495,7.81499971 L136.762495,95.7337465 C136.762495,100.049852 133.2636,103.548746 128.947495,103.548746 Z" id="Path" fill="#000000"></path>
                        <path d="M74.3011098,3.90749986 L68.635235,3.90749986 C67.5562087,3.90749986 66.6814851,3.03277622 66.6814851,1.95374993 C66.6814851,0.874723638 67.5562087,0 68.635235,0 L74.3011098,0 C75.3801361,0 76.2548597,0.874723638 76.2548597,1.95374993 C76.2548597,3.03277622 75.3801361,3.90749986 74.3011098,3.90749986 Z" id="Path" fill="#000000"></path>
                        <path d="M101.594996,132.854995 L35.1674987,132.854995 C34.5500079,132.854995 33.9688419,132.563166 33.6001356,132.067837 C33.2314293,131.572508 33.1185864,130.932032 33.2958063,130.340519 L42.087681,101.03427 C42.335392,100.207476 43.0962687,99.6412463 43.9593734,99.6412463 L92.8031216,99.6412463 C93.6662263,99.6412463 94.427103,100.207476 94.674814,101.03427 L103.466689,130.340519 C103.643909,130.932032 103.531066,131.572508 103.162359,132.067837 C102.793653,132.563166 102.212487,132.854995 101.594996,132.854995 Z M37.7933386,128.947495 L98.9691564,128.947495 L91.3495316,103.548746 L45.4129633,103.548746 L37.7933386,128.947495 Z" id="Shape" fill="#000000"></path>
                        <path d="M134.808745,82.4677845 L1.95374993,82.4677845 C0.874723638,82.4677845 0,81.5930608 0,80.5140345 C0,79.4350083 0.874723638,78.5602846 1.95374993,78.5602846 L134.808745,78.5602846 C135.887771,78.5602846 136.762495,79.4350083 136.762495,80.5140345 C136.762495,81.5930608 135.887771,82.4677845 134.808745,82.4677845 Z" id="Path" fill="#000000"></path>
                        <path d="M20.6355067,92.2541179 L16.1790032,92.2541179 C15.0999769,92.2541179 14.2252532,91.3793942 14.2252532,90.3003679 C14.2252532,89.2213416 15.0999769,88.346618 16.1790032,88.346618 L20.6355067,88.346618 C21.714533,88.346618 22.5892567,89.2213416 22.5892567,90.3003679 C22.5892567,91.3793942 21.714533,92.2541179 20.6355067,92.2541179 Z" id="Path" fill="#000000"></path>
                        <path d="M50.6138456,55.8772511 L50.4536381,55.8772511 C49.8819157,55.8303704 49.359682,55.5346046 49.025447,55.0683955 C44.2650507,48.3951908 43.2773305,39.740644 46.4117071,32.1664301 C49.5460837,24.5922161 56.3605705,19.1663946 64.4444414,17.8084306 C65.0107183,17.7148762 65.5894879,17.875052 66.0270929,18.2464331 C66.4646979,18.6178141 66.7166527,19.1628288 66.7166527,19.7367818 L66.7166527,39.7783485 C66.7166527,40.2964729 66.5106284,40.7933358 66.1442038,41.1596497 L51.9951468,55.3087067 C51.6281941,55.6736988 51.1314098,55.8781743 50.6138456,55.8772511 L50.6138456,55.8772511 Z M62.8091527,22.1750617 C57.0275696,23.8691326 52.3253349,28.092298 50.0221291,33.6593279 C47.7189233,39.2263578 48.0629674,45.5372825 50.9577056,50.8209431 L62.8091527,38.9694961 L62.8091527,22.1750617 Z" id="Shape" fill="#000000"></path>
                        <path d="M68.369525,65.0209432 C63.4151962,65.0356712 58.5823392,63.4878443 54.5584667,60.5975078 C54.0945925,60.2632989 53.8003854,59.7426736 53.7534035,59.1728775 C53.7064217,58.6030814 53.91138,58.041298 54.314248,57.6356229 L68.4652587,43.4846122 C68.8315726,43.1181876 69.3284356,42.9121634 69.8465599,42.9121634 L89.8724967,42.9121634 C90.4465109,42.9124277 90.9913668,43.1651052 91.3623829,43.6030999 C91.733399,44.0410947 91.8930325,44.6200861 91.7988941,45.1863283 C89.9207646,56.6549852 79.9908769,65.0612743 68.369525,65.0209432 L68.369525,65.0209432 Z M58.7961503,58.6652491 C64.0769567,61.5616917 70.3865235,61.906481 75.951498,59.6027115 C81.5164725,57.2989419 85.7361098,52.5953078 87.424448,46.813802 L70.6554124,46.813802 L58.7961503,58.6652491 Z" id="Shape" fill="#000000"></path>
                        <path d="M89.8724967,39.6044648 L71.9722399,39.6044648 C70.8932136,39.6044648 70.0184899,38.7297412 70.0184899,37.6507149 L70.0184899,19.7328743 C70.0189432,19.159665 70.2710958,18.6155721 70.7081619,18.2447053 C71.1452281,17.8738385 71.7231096,17.7136167 72.2887473,17.8064768 C82.3039517,19.4625941 90.1507976,27.3157262 91.7988941,37.3322536 C91.8923929,37.8981938 91.7324651,38.47663 91.3615237,38.9141603 C90.9905823,39.3516906 90.4461082,39.6041057 89.8724967,39.6044648 L89.8724967,39.6044648 Z M73.9259898,35.6969649 L87.4303093,35.6969649 C85.5496544,29.1696648 80.4508372,24.0642085 73.9259898,22.1750617 L73.9259898,35.6969649 Z" id="Shape" fill="#FFEA00"></path>
                    </g>
                </g>
            </g>
        </g>
    </g>
</svg>