<?xml version="1.0" encoding="UTF-8"?>
<svg width="111px" height="133px" viewBox="0 0 111 133" version="1.1" xmlns="http://www.w3.org/2000/svg" xmlns:xlink="http://www.w3.org/1999/xlink">
    <title>hotel</title>
    <g id="Page-1" stroke="none" stroke-width="1" fill="none" fill-rule="evenodd">
        <g id="Careers" transform="translate(-1077.000000, -2715.000000)">
            <g id="PERKS" transform="translate(105.000000, 2097.000000)">
                <g id="6" transform="translate(826.000000, 618.000000)" fill-rule="nonzero">
                    <g id="hotel" transform="translate(146.000000, 0.000000)">
                        <path d="M100.55971,132.814712 L9.48676512,132.814712 C8.43888598,132.814712 7.58941209,131.965238 7.58941209,130.917359 L7.58941209,34.1523544 C7.58941209,33.1044753 8.43888598,32.2550014 9.48676512,32.2550014 L100.55971,32.2550014 C101.607589,32.2550014 102.457063,33.1044753 102.457063,34.1523544 L102.457063,130.917359 C102.457063,131.965238 101.607589,132.814712 100.55971,132.814712 Z M11.3841181,129.020006 L98.6623572,129.020006 L98.6623572,36.0497074 L11.3841181,36.0497074 L11.3841181,129.020006 Z" id="Shape" fill="#000000"></path>
                        <path d="M51.7408169,3.79470605 L46.2384932,3.79470605 C45.190614,3.79470605 44.3411402,2.94523216 44.3411402,1.89735302 C44.3411402,0.849473883 45.190614,0 46.2384932,0 L51.7408169,0 C52.7886961,0 53.63817,0.849473883 53.63817,1.89735302 C53.63817,2.94523216 52.7886961,3.79470605 51.7408169,3.79470605 Z" id="Path" fill="#000000"></path>
                        <path d="M106.251769,36.0497074 L3.79470605,36.0497074 C1.69894777,36.0497074 0,34.3507597 0,32.2550014 L0,3.79470605 C0,1.69894777 1.69894777,0 3.79470605,0 L32.957022,0 C34.0049012,0 34.854375,0.849473883 34.854375,1.89735302 C34.854375,2.94523216 34.0049012,3.79470605 32.957022,3.79470605 L3.79470605,3.79470605 L3.79470605,32.2550014 L106.251769,32.2550014 L106.251769,3.79470605 L83.9388977,3.79470605 C82.8910186,3.79470605 82.0415447,2.94523216 82.0415447,1.89735302 C82.0415447,0.849473883 82.8910186,0 83.9388977,0 L106.251769,0 C108.347528,0 110.046475,1.69894777 110.046475,3.79470605 L110.046475,32.2550014 C110.046475,34.3507597 108.347528,36.0497074 106.251769,36.0497074 Z" id="Path" fill="#000000"></path>
                        <path d="M70.6574266,3.79470605 L65.0222881,3.79470605 C63.974409,3.79470605 63.1249351,2.94523216 63.1249351,1.89735302 C63.1249351,0.849473883 63.974409,0 65.0222881,0 L70.6574266,0 C71.7053057,0 72.5547796,0.849473883 72.5547796,1.89735302 C72.5547796,2.94523216 71.7053057,3.79470605 70.6574266,3.79470605 Z" id="Path" fill="#000000"></path>
                        <path d="M89.0864165,26.839956 C88.778351,26.839956 88.4748879,26.7651929 88.20225,26.6217603 L84.5972792,24.7244072 L80.9923085,26.6217603 C80.3531067,26.9578291 79.5785453,26.9018951 78.9942613,26.4774738 C78.4099773,26.0530525 78.1172899,25.3337417 78.2392493,24.6219502 L78.9298858,20.5995618 L76.0060648,17.7535322 C75.4884806,17.249255 75.3022823,16.4947509 75.5258364,15.8075738 C75.7493905,15.1203967 76.3438793,14.6198676 77.0590957,14.516648 L81.0966629,13.9303659 L82.9048403,10.2703719 C83.2256848,9.62105169 83.8881987,9.21102917 84.6124581,9.21353476 C85.3371433,9.21138471 85.9997667,9.62221123 86.3200758,10.2722693 L88.1263559,13.9303659 L92.1658205,14.516648 C92.8807092,14.6204624 93.4746229,15.1212232 93.6977388,15.8082913 C93.9208547,16.4953594 93.7344579,17.2495153 93.216954,17.7535322 L90.2950304,20.5995618 L90.9837695,24.6219502 C91.0782533,25.1729832 90.9249043,25.7376383 90.5646604,26.1651765 C90.2044166,26.5927147 89.6739514,26.8396115 89.1148768,26.839956 L89.0864165,26.839956 Z M81.3964447,17.7155852 L82.2825086,18.5788808 C82.7291975,19.0149408 82.932815,19.6428205 82.8270489,20.2580382 L82.61834,21.4742415 L83.7112154,20.9050356 C84.2641209,20.6142293 84.9247455,20.6142293 85.477651,20.9050356 L86.5705264,21.4742415 L86.3599202,20.2580382 C86.2546361,19.6425003 86.4589797,19.0145693 86.9063579,18.5788808 L87.7905244,17.7155852 L86.5705264,17.5391313 C85.951807,17.4499703 85.416706,17.0617737 85.1399222,16.5012792 L84.5934845,15.3932251 L84.0527389,16.5069713 C83.776324,17.0669637 83.2420469,17.4550774 82.6240321,17.5448234 L81.3964447,17.7155852 Z" id="Shape" fill="#FFEA00"></path>
                        <path d="M59.5199643,26.839956 C59.2118988,26.839956 58.9084358,26.7651929 58.6357978,26.6217603 L55.0308271,24.7244072 L51.4258563,26.6217603 C50.7866545,26.9578291 50.0120931,26.9018951 49.4278091,26.4774738 C48.8435252,26.0530525 48.5508378,25.3337417 48.6727971,24.6219502 L49.3615362,20.5995618 L46.4396126,17.7535322 C45.9221087,17.2495153 45.7357119,16.4953594 45.9588278,15.8082913 C46.1819437,15.1212232 46.7758574,14.6204624 47.4907462,14.516648 L51.5302108,13.9303659 L53.3156199,10.2684746 C53.670621,9.66568751 54.3179901,9.29564979 55.0175456,9.29564979 C55.7171012,9.29564979 56.3644702,9.66568751 56.7194713,10.2684746 L58.5257514,13.9265712 L62.5652159,14.5128533 C63.2801047,14.6166676 63.8740184,15.1174285 64.0971343,15.8044966 C64.3202502,16.4915647 64.1338534,17.2457206 63.6163495,17.7497375 L60.6944259,20.5957671 L61.383165,24.6181555 C61.4776487,25.1691885 61.3242998,25.7338436 60.9640559,26.1613818 C60.603812,26.58892 60.0733469,26.8358168 59.5142723,26.8361612 L59.5199643,26.839956 Z M55.0232377,20.681148 C55.3307451,20.6806407 55.633684,20.7555611 55.9055068,20.8993435 L57.0002795,21.4685495 L56.7896733,20.2523462 C56.6843892,19.6368082 56.8887328,19.0088773 57.336111,18.5731887 L58.2202775,17.7098931 L56.9983822,17.5334393 C56.3803674,17.4436932 55.8460902,17.0555796 55.5696753,16.4955872 L55.0232377,15.3951224 L54.4768,16.5012792 C54.2003851,17.0612716 53.666108,17.4493853 53.0480932,17.5391313 L51.8261978,17.7155852 L52.7103643,18.5788808 C53.1577425,19.0145693 53.3620861,19.6425003 53.256802,20.2580382 L53.0461958,21.4742415 L54.1409685,20.9050356 C54.4122833,20.7592747 54.71525,20.6823928 55.0232377,20.681148 L55.0232377,20.681148 Z" id="Shape" fill="#FFEA00"></path>
                        <path d="M20.9600588,26.8399559 C20.4009842,26.8396115 19.8705191,26.5927147 19.5102752,26.1651765 C19.1500313,25.7376383 18.9966824,25.1729832 19.0911661,24.6219502 L19.7799053,20.5995618 L16.8579816,17.7535322 C16.3404777,17.2495153 16.1540809,16.4953594 16.3771968,15.8082913 C16.6003127,15.1212232 17.1942264,14.6204624 17.9091152,14.516648 L21.9485798,13.9303659 L23.7548598,10.2722693 C24.110092,9.67039223 24.7569478,9.30105359 25.4558368,9.30105359 C26.1547258,9.30105359 26.8015817,9.67039223 27.1568138,10.2722693 L28.9649913,13.9322632 L33.0025585,14.5185453 C33.7177749,14.6217649 34.3122637,15.122294 34.5358178,15.8094712 C34.7593719,16.4966483 34.5731735,17.2511524 34.0555894,17.7554296 L31.1317684,20.6014591 L31.8224049,24.6238475 C31.9443642,25.335639 31.6516768,26.0549499 31.0673929,26.4793712 C30.4831089,26.9037925 29.7085475,26.9597264 29.0693457,26.6236576 L25.4643749,24.7263046 L21.8594042,26.6236576 C21.5820569,26.7688462 21.273094,26.8431537 20.9600588,26.8399559 L20.9600588,26.8399559 Z M25.4567855,20.681148 C25.7642092,20.6813297 26.0669847,20.7562097 26.3390547,20.8993435 L27.43193,21.4685495 L27.2232212,20.2523462 C27.1174551,19.6371285 27.3210726,19.0092487 27.7677615,18.5731887 L28.6538254,17.7098931 L27.43193,17.5334393 C26.8139152,17.4436932 26.2796381,17.0555796 26.0032232,16.4955872 L25.4567855,15.387533 L24.9103478,16.4955872 C24.633564,17.0560817 24.0984631,17.4442783 23.4797437,17.5334393 L22.2597457,17.7098931 L23.1439122,18.5731887 C23.5912903,19.0088773 23.795634,19.6368082 23.6903498,20.2523462 L23.4797437,21.4685495 L24.572619,20.8993435 C24.845257,20.755911 25.14872,20.681022 25.4567855,20.681148 L25.4567855,20.681148 Z" id="Shape" fill="#FFEA00"></path>
                        <path d="M91.6061013,57.0439186 L82.3451212,57.0439186 C81.2972421,57.0439186 80.4477682,56.1944448 80.4477682,55.1465656 L80.4477682,45.8874829 C80.4477682,44.8396037 81.2972421,43.9901298 82.3451212,43.9901298 L91.6061013,43.9901298 C92.6539804,43.9901298 93.5034543,44.8396037 93.5034543,45.8874829 L93.5034543,55.1465656 C93.5034543,56.1944448 92.6539804,57.0439186 91.6061013,57.0439186 Z M84.2424742,53.2492126 L89.7087483,53.2492126 L89.7087483,47.7848359 L84.2424742,47.7848359 L84.2424742,53.2492126 Z" id="Shape" fill="#000000"></path>
                        <path d="M70.9610031,57.0439186 L61.6962283,57.0439186 C60.6483491,57.0439186 59.7988752,56.1944448 59.7988752,55.1465656 L59.7988752,45.8874829 C59.7988752,44.8396037 60.6483491,43.9901298 61.6962283,43.9901298 L70.9610031,43.9901298 C72.0088822,43.9901298 72.8583561,44.8396037 72.8583561,45.8874829 L72.8583561,55.1465656 C72.8583561,56.1944448 72.0088822,57.0439186 70.9610031,57.0439186 Z M63.597376,53.2492126 L69.06365,53.2492126 L69.06365,47.7848359 L63.5935813,47.7848359 L63.597376,53.2492126 Z" id="Shape" fill="#000000"></path>
                        <path d="M50.3083154,57.0439186 L41.0454379,57.0439186 C39.9975588,57.0439186 39.1480849,56.1944448 39.1480849,55.1465656 L39.1480849,45.8874829 C39.1480849,44.8396037 39.9975588,43.9901298 41.0454379,43.9901298 L50.3083154,43.9901298 C51.3561945,43.9901298 52.2056684,44.8396037 52.2056684,45.8874829 L52.2056684,55.1465656 C52.2056684,56.1944448 51.3561945,57.0439186 50.3083154,57.0439186 Z M42.942791,53.2492126 L48.4109624,53.2492126 L48.4109624,47.7848359 L42.942791,47.7848359 L42.942791,53.2492126 Z" id="Shape" fill="#000000"></path>
                        <path d="M29.6575251,57.0439186 L20.396545,57.0439186 C19.3486659,57.0439186 18.499192,56.1944448 18.499192,55.1465656 L18.499192,45.8874829 C18.499192,44.8396037 19.3486659,43.9901298 20.396545,43.9901298 L29.6575251,43.9901298 C30.7054042,43.9901298 31.5548781,44.8396037 31.5548781,45.8874829 L31.5548781,55.1465656 C31.5548781,56.1944448 30.7054042,57.0439186 29.6575251,57.0439186 Z M22.293898,53.2492126 L27.7601721,53.2492126 L27.7601721,47.7848359 L22.293898,47.7848359 L22.293898,53.2492126 Z" id="Shape" fill="#000000"></path>
                        <path d="M91.6061013,101.887857 L82.3451212,101.887857 C81.2972421,101.887857 80.4477682,101.038383 80.4477682,99.9905043 L80.4477682,90.7219348 C80.4477682,89.6740557 81.2972421,88.8245818 82.3451212,88.8245818 L91.6061013,88.8245818 C92.6539804,88.8245818 93.5034543,89.6740557 93.5034543,90.7219348 L93.5034543,99.9905043 C93.5034543,101.038383 92.6539804,101.887857 91.6061013,101.887857 Z M84.2424742,98.0931513 L89.7087483,98.0931513 L89.7087483,92.6192878 L84.2424742,92.6192878 L84.2424742,98.0931513 Z" id="Shape" fill="#000000"></path>
                        <path d="M29.6575251,101.887857 L20.396545,101.887857 C19.3486659,101.887857 18.499192,101.038383 18.499192,99.9905043 L18.499192,90.7219348 C18.499192,89.6740557 19.3486659,88.8245818 20.396545,88.8245818 L29.6575251,88.8245818 C30.7054042,88.8245818 31.5548781,89.6740557 31.5548781,90.7219348 L31.5548781,99.9905043 C31.5548781,101.038383 30.7054042,101.887857 29.6575251,101.887857 Z M22.293898,98.0931513 L27.7601721,98.0931513 L27.7601721,92.6192878 L22.293898,92.6192878 L22.293898,98.0931513 Z" id="Shape" fill="#000000"></path>
                        <path d="M91.6061013,79.463042 L82.3451212,79.463042 C81.2972421,79.463042 80.4477682,78.6135681 80.4477682,77.5656889 L80.4477682,68.3047088 C80.4477682,67.2568297 81.2972421,66.4073558 82.3451212,66.4073558 L91.6061013,66.4073558 C92.6539804,66.4073558 93.5034543,67.2568297 93.5034543,68.3047088 L93.5034543,77.5656889 C93.5034543,78.6135681 92.6539804,79.463042 91.6061013,79.463042 Z M84.2424742,75.6683359 L89.7087483,75.6683359 L89.7087483,70.2020619 L84.2424742,70.2020619 L84.2424742,75.6683359 Z" id="Shape" fill="#000000"></path>
                        <path d="M70.9610031,79.463042 L61.6962283,79.463042 C60.6483491,79.463042 59.7988752,78.6135681 59.7988752,77.5656889 L59.7988752,68.3047088 C59.7988752,67.2568297 60.6483491,66.4073558 61.6962283,66.4073558 L70.9610031,66.4073558 C72.0088822,66.4073558 72.8583561,67.2568297 72.8583561,68.3047088 L72.8583561,77.5656889 C72.8583561,78.6135681 72.0088822,79.463042 70.9610031,79.463042 Z M63.597376,75.6683359 L69.06365,75.6683359 L69.06365,70.2020619 L63.5935813,70.2020619 L63.597376,75.6683359 Z" id="Shape" fill="#000000"></path>
                        <path d="M50.3083154,79.463042 L41.0454379,79.463042 C39.9975588,79.463042 39.1480849,78.6135681 39.1480849,77.5656889 L39.1480849,68.3047088 C39.1480849,67.2568297 39.9975588,66.4073558 41.0454379,66.4073558 L50.3083154,66.4073558 C51.3561945,66.4073558 52.2056684,67.2568297 52.2056684,68.3047088 L52.2056684,77.5656889 C52.2056684,78.6135681 51.3561945,79.463042 50.3083154,79.463042 Z M42.942791,75.6683359 L48.4109624,75.6683359 L48.4109624,70.2020619 L42.942791,70.2020619 L42.942791,75.6683359 Z" id="Shape" fill="#000000"></path>
                        <path d="M29.6575251,79.463042 L20.396545,79.463042 C19.3486659,79.463042 18.499192,78.6135681 18.499192,77.5656889 L18.499192,68.3047088 C18.499192,67.2568297 19.3486659,66.4073558 20.396545,66.4073558 L29.6575251,66.4073558 C30.7054042,66.4073558 31.5548781,67.2568297 31.5548781,68.3047088 L31.5548781,77.5656889 C31.5548781,78.6135681 30.7054042,79.463042 29.6575251,79.463042 Z M22.293898,75.6683359 L27.7601721,75.6683359 L27.7601721,70.2020619 L22.293898,70.2020619 L22.293898,75.6683359 Z" id="Shape" fill="#000000"></path>
                        <path d="M68.7790471,132.814712 L41.2674283,132.814712 C40.2195491,132.814712 39.3700752,131.965238 39.3700752,130.917359 L39.3700752,98.6623572 C39.3700752,97.6144781 40.2195491,96.7650042 41.2674283,96.7650042 L68.7790471,96.7650042 C69.8269262,96.7650042 70.6764001,97.6144781 70.6764001,98.6623572 L70.6764001,130.917359 C70.6764001,131.965238 69.8269262,132.814712 68.7790471,132.814712 Z M43.1647813,129.020006 L66.8816941,129.020006 L66.8816941,100.55971 L43.1647813,100.55971 L43.1647813,129.020006 Z" id="Shape" fill="#000000"></path>
                    </g>
                </g>
            </g>
        </g>
    </g>
</svg>