<?xml version="1.0" encoding="UTF-8"?>
<svg width="150px" height="133px" viewBox="0 0 150 133" version="1.1" xmlns="http://www.w3.org/2000/svg" xmlns:xlink="http://www.w3.org/1999/xlink">
    <title>child</title>
    <g id="Page-1" stroke="none" stroke-width="1" fill="none" fill-rule="evenodd">
        <g id="Careers" transform="translate(-645.000000, -2405.000000)">
            <g id="PERKS" transform="translate(105.000000, 2097.000000)">
                <g id="2" transform="translate(413.000000, 308.000000)" fill-rule="nonzero">
                    <g id="child" transform="translate(127.000000, 0.000000)">
                        <path d="M67.7076846,132.137097 C67.6225748,132.137367 67.5375297,132.132364 67.4530398,132.122106 C65.1960843,131.853347 62.959334,131.435877 60.7573809,130.872421 C60.0128341,130.686972 59.4245677,130.11708 59.2155927,129.378791 C59.0066177,128.640502 59.2089247,127.846836 59.7458195,127.29867 C60.2827143,126.750505 61.0720069,126.531755 61.8144776,126.72535 C63.8342814,127.241814 65.8858474,127.624964 67.9559097,127.872321 C69.0797806,128.005981 69.9052192,128.991678 69.8394561,130.121556 C69.7736929,131.251435 68.8394731,132.134713 67.7076846,132.137097 L67.7076846,132.137097 Z" id="Path" fill="#000000"></path>
                        <path d="M46.3046865,124.797325 C45.9229079,124.79734 45.5481626,124.694599 45.2197715,124.499883 C27.4338484,113.961956 16.50656,94.8412341 16.4556144,74.1679576 L16.4556144,58.5040958 C16.4589587,55.4810065 16.6892858,52.4624352 17.1446531,49.4738367 C21.5996903,21.0289523 46.1038694,0.0638964565 74.8955141,0.0638964565 C103.687159,0.0638964565 128.191338,21.0289523 132.646375,49.4738367 C133.101426,52.4653448 133.33175,55.4867375 133.335414,58.5126553 L133.335414,74.1765171 C133.312334,94.7102382 122.531776,113.730499 104.926475,124.298735 C104.270244,124.719059 103.437392,124.749398 102.752318,124.377934 C102.067244,124.00647 101.638277,123.291942 101.632502,122.512661 C101.626726,121.73338 102.045055,121.012572 102.724547,120.630995 C106.531669,118.343336 110.044368,115.598142 113.184241,112.456684 C123.376968,102.326318 129.092258,88.5385757 129.05567,74.1679576 L129.05567,58.5040958 C129.050912,55.69591 128.836327,52.892005 128.413709,50.1157983 C124.138363,23.8404893 101.515964,4.49250434 74.8955141,4.34393982 C48.2244412,4.36650339 25.5289749,23.7790575 21.3730398,50.1243578 C20.9500997,52.8976542 20.735512,55.6987382 20.7310783,58.5040958 L20.7310783,74.1679576 C20.7768413,93.3281738 30.9035286,111.05008 47.3874617,120.817164 C48.2199594,121.306721 48.6213615,122.293239 48.3671649,123.22496 C48.1129683,124.15668 47.2661801,124.801606 46.3004068,124.801606 L46.3046865,124.797325 Z" id="Path" fill="#000000"></path>
                        <path d="M82.5541154,132.072897 C81.4303485,132.066439 80.5030331,131.19181 80.4309346,130.07034 C80.3588361,128.94887 81.1665219,127.962699 82.2802118,127.812405 C84.300164,127.550295 86.3014127,127.160052 88.2718529,126.644035 C89.4146714,126.342671 90.5854125,127.024805 90.8867763,128.167623 C91.18814,129.310442 90.5060061,130.481183 89.3631875,130.782547 C87.2124288,131.34455 85.0282431,131.769809 82.8237392,132.05577 C82.7343406,132.067418 82.6442692,132.073137 82.5541154,132.072897 L82.5541154,132.072897 Z" id="Path" fill="#000000"></path>
                        <path d="M73.4489607,36.4248983 C67.7045873,36.4193692 62.6862714,32.5411401 61.2324324,26.9837838 C59.9859499,21.9057729 62.424597,16.6418856 67.1042407,14.3093229 C69.6680841,12.9976902 72.6991959,12.9667848 75.2892505,14.2258679 C77.747337,15.4628248 79.4937438,17.7687139 80.0183672,20.4700139 C80.3400246,22.1876454 80.066799,23.963612 79.2437336,25.5051323 C78.8867109,26.1813349 78.1960586,26.6157024 77.4319387,26.644613 C76.6678188,26.6735235 75.9463193,26.2925848 75.539222,25.6452928 C75.1321248,24.9980008 75.1012777,24.1826946 75.4583004,23.5064921 C75.8281392,22.8280465 75.9542672,22.0433342 75.815659,21.2831652 C75.5475729,19.8859773 74.6453366,18.6927481 73.3740652,18.0540986 C71.9771343,17.3865126 70.3458252,17.4238587 68.9809083,18.1546726 C66.1160972,19.5777704 64.6182484,22.7946806 65.3730844,25.9031485 C66.0549821,28.5149057 67.9579947,30.6355649 70.4809585,31.5952076 C73.4042854,32.6102993 76.6405273,32.1127241 79.1239008,30.2663472 C82.8990017,27.7695477 84.875998,23.3041765 84.1868376,18.8308721 C82.8254651,12.6194657 78.8871384,7.27992878 73.3548064,4.14493174 C72.6751636,3.79326055 72.2347621,3.10571787 72.1994969,2.34129436 C72.1642316,1.57687085 72.5394603,0.851700628 73.1838379,0.438948301 C73.8282155,0.0261959743 74.6438457,-0.011431562 75.3234884,0.340239621 C82.0378919,4.08232072 86.8060259,10.5451671 88.4002452,18.064798 C89.4315164,24.2150101 86.7286893,30.3931404 81.5119978,33.8099749 C79.1454295,35.4665936 76.3373449,36.3772834 73.4489607,36.4248983 L73.4489607,36.4248983 Z" id="Path" fill="#FFEA00"></path>
                        <path d="M104.168961,58.8914126 L97.1993982,58.8914126 C96.0175796,58.8914126 95.0595263,57.9333594 95.0595263,56.7515408 C95.0595263,55.5697222 96.0175796,54.611669 97.1993982,54.611669 L104.168961,54.611669 C105.350779,54.611669 106.308833,55.5697222 106.308833,56.7515408 C106.308833,57.9333594 105.350779,58.8914126 104.168961,58.8914126 Z" id="Path" fill="#000000"></path>
                        <path d="M52.59163,58.8914126 L45.6220674,58.8914126 C44.4402488,58.8914126 43.4821956,57.9333594 43.4821956,56.7515408 C43.4821956,55.5697222 44.4402488,54.611669 45.6220674,54.611669 L52.59163,54.611669 C53.7734486,54.611669 54.7315018,55.5697222 54.7315018,56.7515408 C54.7315018,57.9333594 53.7734486,58.8914126 52.59163,58.8914126 Z" id="Path" fill="#000000"></path>
                        <path d="M74.7607021,113.083667 C59.7282114,113.065979 47.5463806,100.884149 47.5286932,85.8516578 C47.5286932,84.6698393 48.4867465,83.711786 49.6685651,83.711786 L99.8506994,83.711786 C101.032518,83.711786 101.990571,84.6698393 101.990571,85.8516578 C101.974063,100.883802 89.7928454,113.065977 74.7607021,113.083667 L74.7607021,113.083667 Z M51.906871,87.9915297 C53.0090089,99.7892396 62.9105535,108.808898 74.7596322,108.808898 C86.6087109,108.808898 96.5102555,99.7892396 97.6123934,87.9915297 L51.906871,87.9915297 Z" id="Shape" fill="#000000"></path>
                        <path d="M133.335414,80.5362162 L131.242619,80.5362162 C130.060801,80.5362162 129.102747,79.578163 129.102747,78.3963444 C129.102747,77.2145258 130.060801,76.2564726 131.242619,76.2564726 L133.335414,76.2564726 C137.681611,76.2564727 141.697663,73.9378042 143.870762,70.173887 C146.04386,66.4099698 146.04386,61.7726326 143.870762,58.0087154 C141.697663,54.2447982 137.681611,51.9261297 133.335414,51.9261298 L130.510783,51.9261298 C129.328964,51.9261298 128.370911,50.9680766 128.370911,49.786258 C128.370911,48.6044394 129.328964,47.6463862 130.510783,47.6463862 L133.335414,47.6463862 C139.210616,47.6463862 144.639527,50.7807691 147.577128,55.8688436 C150.514729,60.9569181 150.514729,67.2256843 147.577128,72.3137588 C144.639527,77.4018333 139.210616,80.5362162 133.335414,80.5362162 Z" id="Path" fill="#000000"></path>
                        <path d="M18.548409,80.5362162 L16.4556144,80.5362162 C10.580412,80.5362162 5.15150113,77.4018333 2.21389992,72.3137588 C-0.72370129,67.2256843 -0.72370129,60.9569181 2.21389992,55.8688436 C5.15150113,50.7807691 10.580412,47.6463862 16.4556144,47.6463862 L19.2802452,47.6463862 C20.4620638,47.6463862 21.420117,48.6044394 21.420117,49.786258 C21.420117,50.9680766 20.4620638,51.9261298 19.2802452,51.9261298 L16.4556144,51.9261298 C12.1094172,51.9261297 8.09336528,54.2447982 5.92026664,58.0087154 C3.747168,61.7726326 3.747168,66.4099698 5.92026664,70.173887 C8.09336528,73.9378042 12.1094172,76.2564727 16.4556144,76.2564726 L18.548409,76.2564726 C19.7302276,76.2564726 20.6882809,77.2145258 20.6882809,78.3963444 C20.6882809,79.578163 19.7302276,80.5362162 18.548409,80.5362162 L18.548409,80.5362162 Z" id="Path" fill="#000000"></path>
                    </g>
                </g>
            </g>
        </g>
    </g>
</svg>