<?xml version="1.0" encoding="UTF-8"?>
<svg width="133px" height="133px" viewBox="0 0 133 133" version="1.1" xmlns="http://www.w3.org/2000/svg" xmlns:xlink="http://www.w3.org/1999/xlink">
    <title>calendar (1)</title>
    <g id="Page-1" stroke="none" stroke-width="1" fill="none" fill-rule="evenodd">
        <g id="Careers" transform="translate(-1066.000000, -2405.000000)">
            <g id="PERKS" transform="translate(105.000000, 2097.000000)">
                <g id="3" transform="translate(826.000000, 308.000000)" fill-rule="nonzero">
                    <g id="calendar-(1)" transform="translate(135.000000, 0.000000)">
                        <path d="M61.0859717,132.204315 L55.488152,132.204315 C54.4472124,132.204315 53.6033642,131.360467 53.6033642,130.319527 C53.6033642,129.278588 54.4472124,128.43474 55.488152,128.43474 L61.0859717,128.43474 C62.1269112,128.43474 62.9707594,129.278588 62.9707594,130.319527 C62.9707594,131.360467 62.1269112,132.204315 61.0859717,132.204315 Z" id="Path" fill="#000000"></path>
                        <path d="M126.280781,132.204315 L92.9577329,132.204315 C91.9167933,132.204315 91.0729451,131.360467 91.0729451,130.319527 C91.0729451,129.278588 91.9167933,128.43474 92.9577329,128.43474 L126.280781,128.43474 C127.32172,128.43474 128.165568,127.590891 128.165568,126.549952 L128.165568,44.5616839 L3.76957554,44.5616839 L3.76957554,126.549952 C3.76957554,127.590891 4.61342377,128.43474 5.65436331,128.43474 L42.2946376,128.43474 C43.3355771,128.43474 44.1794254,129.278588 44.1794254,130.319527 C44.1794254,131.360467 43.3355771,132.204315 42.2946376,132.204315 L5.65436331,132.204315 C2.53154469,132.204315 0,129.672771 0,126.549952 L0,42.6768961 C0,41.6359566 0.843848229,40.7921083 1.88478777,40.7921083 L130.050356,40.7921083 C131.091296,40.7921083 131.935144,41.6359566 131.935144,42.6768961 L131.935144,126.549952 C131.935144,129.672771 129.403599,132.204315 126.280781,132.204315 Z" id="Path" fill="#000000"></path>
                        <path d="M79.7642185,132.204315 L74.2794861,132.204315 C73.2385465,132.204315 72.3946983,131.360467 72.3946983,130.319527 C72.3946983,129.278588 73.2385465,128.43474 74.2794861,128.43474 L79.7642185,128.43474 C80.805158,128.43474 81.6490063,129.278588 81.6490063,130.319527 C81.6490063,131.360467 80.805158,132.204315 79.7642185,132.204315 L79.7642185,132.204315 Z" id="Path" fill="#000000"></path>
                        <path d="M130.050356,44.5616839 L1.88478777,44.5616839 C0.843848229,44.5616839 0,43.7178357 0,42.6768961 L0,18.1746551 C0,15.0518365 2.53154469,12.5202918 5.65436331,12.5202918 L24.502241,12.5202918 C25.5431806,12.5202918 26.3870288,13.36414 26.3870288,14.4050795 C26.3870288,15.4460191 25.5431806,16.2898673 24.502241,16.2898673 L5.65436331,16.2898673 C4.61342377,16.2898673 3.76957554,17.1337155 3.76957554,18.1746551 L3.76957554,40.7921083 L128.165568,40.7921083 L128.165568,18.1746551 C128.165568,17.1337155 127.32172,16.2898673 126.280781,16.2898673 L107.432903,16.2898673 C106.391963,16.2898673 105.548115,15.4460191 105.548115,14.4050795 C105.548115,13.36414 106.391963,12.5202918 107.432903,12.5202918 L126.280781,12.5202918 C129.403599,12.5202918 131.935144,15.0518365 131.935144,18.1746551 L131.935144,42.6768961 C131.935144,43.7178357 131.091296,44.5616839 130.050356,44.5616839 Z" id="Path" fill="#000000"></path>
                        <path d="M94.2393886,16.2898673 L37.6957554,16.2898673 C36.6548159,16.2898673 35.8109677,15.4460191 35.8109677,14.4050795 C35.8109677,13.36414 36.6548159,12.5202918 37.6957554,12.5202918 L94.2393886,12.5202918 C95.2803281,12.5202918 96.1241763,13.36414 96.1241763,14.4050795 C96.1241763,15.4460191 95.2803281,16.2898673 94.2393886,16.2898673 Z" id="Path" fill="#000000"></path>
                        <path d="M100.836146,28.6352272 C96.1519178,28.6352272 92.3546008,24.8379102 92.3546008,20.1536822 L92.3546008,8.67343993 C92.3546008,3.98921198 96.1519178,0.191894955 100.836146,0.191894955 C105.520374,0.191894955 109.317691,3.98921198 109.317691,8.67343993 L109.317691,20.1536822 C109.317691,24.8379102 105.520374,28.6352272 100.836146,28.6352272 L100.836146,28.6352272 Z M100.836146,3.9614705 C98.2337969,3.9614705 96.1241763,6.07109107 96.1241763,8.67343993 L96.1241763,20.1536822 C96.1241763,22.7560311 98.2337969,24.8656517 100.836146,24.8656517 C103.438495,24.8656517 105.548115,22.7560311 105.548115,20.1536822 L105.548115,8.67343993 C105.548115,6.07109107 103.438495,3.9614705 100.836146,3.9614705 L100.836146,3.9614705 Z" id="Shape" fill="#000000"></path>
                        <path d="M31.0989982,28.6352272 C26.4147703,28.6352272 22.6174533,24.8379102 22.6174533,20.1536822 L22.6174533,8.67343993 C22.6174533,3.98921205 26.4147704,0.191895134 31.0989982,0.191895134 C35.7832261,0.191895134 39.5805432,3.98921205 39.5805432,8.67343993 L39.5805432,20.1536822 C39.5805432,24.8379102 35.7832262,28.6352272 31.0989982,28.6352272 L31.0989982,28.6352272 Z M31.0989982,3.9614705 C28.4966494,3.9614705 26.3870288,6.07109107 26.3870288,8.67343993 L26.3870288,20.1536822 C26.3870288,22.7560311 28.4966494,24.8656517 31.0989982,24.8656517 C33.7013471,24.8656517 35.8109677,22.7560311 35.8109677,20.1536822 L35.8109677,8.67343993 C35.8109677,6.07109107 33.7013471,3.9614705 31.0989982,3.9614705 L31.0989982,3.9614705 Z" id="Shape" fill="#000000"></path>
                        <path d="M116.502502,71.7214757 L104.588758,71.7214757 C102.506879,71.7214757 100.819183,70.0337792 100.819183,67.9519001 L100.819183,56.0400414 C100.819183,53.9581623 102.506879,52.2704659 104.588758,52.2704659 L116.502502,52.2704659 C118.584381,52.2704659 120.272077,53.9581623 120.272077,56.0400414 L120.272077,67.9519001 C120.272077,70.0337792 118.584381,71.7214757 116.502502,71.7214757 Z M104.588758,56.0400414 L104.588758,67.9519001 L116.502502,67.9519001 L116.502502,56.0400414 L104.588758,56.0400414 Z" id="Shape" fill="#000000"></path>
                        <path d="M86.7831681,71.7214757 L74.8694246,71.7214757 C72.7875456,71.7214757 71.0998491,70.0337792 71.0998491,67.9519001 L71.0998491,56.0400414 C71.0998491,53.9581623 72.7875456,52.2704659 74.8694246,52.2704659 L86.7831681,52.2704659 C88.8650472,52.2704659 90.5527437,53.9581623 90.5527437,56.0400414 L90.5527437,67.9519001 C90.5527437,70.0337792 88.8650472,71.7214757 86.7831681,71.7214757 Z M74.8694246,56.0400414 L74.8694246,67.9519001 L86.7831681,67.9519001 L86.7831681,56.0400414 L74.8694246,56.0400414 Z" id="Shape" fill="#000000"></path>
                        <path d="M57.0638346,71.7214757 L45.1500911,71.7214757 C43.068212,71.7214757 41.3805155,70.0337792 41.3805155,67.9519001 L41.3805155,56.0400414 C41.3805155,53.9581623 43.068212,52.2704659 45.1500911,52.2704659 L57.0638346,52.2704659 C59.1457136,52.2704659 60.8334101,53.9581623 60.8334101,56.0400414 L60.8334101,67.9519001 C60.8334101,70.0337792 59.1457136,71.7214757 57.0638346,71.7214757 Z M45.1500911,56.0400414 L45.1500911,67.9519001 L57.0638346,67.9519001 L57.0638346,56.0400414 L45.1500911,56.0400414 Z" id="Shape" fill="#000000"></path>
                        <path d="M116.502502,96.2237167 L104.588758,96.2237167 C102.506879,96.2237167 100.819183,94.5360202 100.819183,92.4541411 L100.819183,80.5422824 C100.819183,78.4604033 102.506879,76.7727069 104.588758,76.7727069 L116.502502,76.7727069 C118.584381,76.7727069 120.272077,78.4604033 120.272077,80.5422824 L120.272077,92.4541411 C120.272077,94.5360202 118.584381,96.2237167 116.502502,96.2237167 Z M104.588758,80.5422824 L104.588758,92.4541411 L116.502502,92.4541411 L116.502502,80.5422824 L104.588758,80.5422824 Z" id="Shape" fill="#000000"></path>
                        <path d="M27.3463858,96.2237167 L15.4307575,96.2237167 C13.3488784,96.2237167 11.6611819,94.5360202 11.6611819,92.4541411 L11.6611819,80.5422824 C11.6611819,78.4604033 13.3488784,76.7727069 15.4307575,76.7727069 L27.3463858,76.7727069 C29.4282649,76.7727069 31.1159613,78.4604033 31.1159613,80.5422824 L31.1159613,92.4541411 C31.1159613,94.5360202 29.4282649,96.2237167 27.3463858,96.2237167 Z M15.4307575,80.5422824 L15.4307575,92.4541411 L27.3463858,92.4541411 L27.3463858,80.5422824 L15.4307575,80.5422824 Z" id="Shape" fill="#000000"></path>
                        <path d="M86.7831681,120.725958 L74.8694246,120.725958 C72.7875456,120.725958 71.0998491,119.038261 71.0998491,116.956382 L71.0998491,105.044523 C71.0998491,102.962644 72.7875456,101.274948 74.8694246,101.274948 L86.7831681,101.274948 C88.8650472,101.274948 90.5527437,102.962644 90.5527437,105.044523 L90.5527437,116.956382 C90.5527437,119.038261 88.8650472,120.725958 86.7831681,120.725958 Z M74.8694246,105.044523 L74.8694246,116.956382 L86.7831681,116.956382 L86.7831681,105.044523 L74.8694246,105.044523 Z" id="Shape" fill="#000000"></path>
                        <path d="M57.0638346,120.725958 L45.1500911,120.725958 C43.068212,120.725958 41.3805155,119.038261 41.3805155,116.956382 L41.3805155,105.044523 C41.3805155,102.962644 43.068212,101.274948 45.1500911,101.274948 L57.0638346,101.274948 C59.1457136,101.274948 60.8334101,102.962644 60.8334101,105.044523 L60.8334101,116.956382 C60.8334101,119.038261 59.1457136,120.725958 57.0638346,120.725958 Z M45.1500911,105.044523 L45.1500911,116.956382 L57.0638346,116.956382 L57.0638346,105.044523 L45.1500911,105.044523 Z" id="Shape" fill="#000000"></path>
                        <path d="M27.3463858,120.725958 L15.4307575,120.725958 C13.3488784,120.725958 11.6611819,119.038261 11.6611819,116.956382 L11.6611819,105.044523 C11.6611819,102.962644 13.3488784,101.274948 15.4307575,101.274948 L27.3463858,101.274948 C29.4282649,101.274948 31.1159613,102.962644 31.1159613,105.044523 L31.1159613,116.956382 C31.1159613,119.038261 29.4282649,120.725958 27.3463858,120.725958 Z M15.4307575,105.044523 L15.4307575,116.956382 L27.3463858,116.956382 L27.3463858,105.044523 L15.4307575,105.044523 Z" id="Shape" fill="#000000"></path>
                        <path d="M78.3883234,92.6388577 C77.8884875,92.6388577 77.4091625,92.4400983 77.0557785,92.0866075 L73.4162533,88.4583911 C72.7019711,87.7188401 72.7121863,86.5432869 73.4392127,85.8162606 C74.166239,85.0892342 75.3417922,85.079019 76.0813432,85.7933012 L78.3883234,88.0814335 L85.5693648,80.8985073 C86.3089157,80.1842251 87.484469,80.1944404 88.2114953,80.9214667 C88.9385217,81.6484931 88.9487369,82.8240463 88.2344547,83.5635972 L79.7265227,92.0866075 C79.3717544,92.4414869 78.8901181,92.6402466 78.3883234,92.6388577 L78.3883234,92.6388577 Z" id="Path" fill="#FFEA00"></path>
                        <path d="M48.667105,92.6388504 C48.1672691,92.6388504 47.6879441,92.4400983 47.3345601,92.0866075 L43.6988045,88.4583911 C43.2210486,87.9819819 43.0337452,87.286882 43.2074497,86.6349287 C43.3811542,85.9829754 43.8894767,85.4732159 44.540937,85.2976718 C45.1923974,85.1221276 45.8880233,85.3074681 46.3657792,85.7838772 L48.667105,88.0814335 L55.851916,80.8985073 C56.591467,80.1842251 57.7670202,80.1944404 58.4940465,80.9214667 C59.2210729,81.6484931 59.2312881,82.8240463 58.5170059,83.5635972 L49.99965,92.0790684 C49.6475041,92.4353256 49.1680257,92.6367472 48.667105,92.6388504 L48.667105,92.6388504 Z" id="Path" fill="#FFEA00"></path>
                    </g>
                </g>
            </g>
        </g>
    </g>
</svg>