<?xml version="1.0" encoding="utf-8"?>
<!-- Generator: Adobe Illustrator 24.3.0, SVG Export Plug-In . SVG Version: 6.00 Build 0)  -->
<svg version="1.1" id="Layer_1" xmlns="http://www.w3.org/2000/svg" xmlns:xlink="http://www.w3.org/1999/xlink" x="0px" y="0px"
	 viewBox="0 0 89.83 72.35" style="enable-background:new 0 0 89.83 72.35;" xml:space="preserve">
<g>
	<g>
		<polygon class="st0" points="44.65,27.57 34.09,19.04 51.12,5.21 51.12,0 27.66,19.04 41.43,30.17 		"/>
		<polygon class="st0" points="48.2,30.45 44.99,33.05 50.72,37.69 50.72,32.48 		"/>
	</g>
	<g>
		<polygon class="st0" points="41.4,7.55 44.61,4.95 38.59,0.06 38.59,5.27 		"/>
		<polygon class="st0" points="61.97,19.04 48.25,7.9 45.04,10.5 52.83,16.83 39.56,16.83 39.56,20.88 53.26,20.88 38.89,32.5 
			38.89,37.71 		"/>
	</g>
</g>
<g>
	<path class="st0" d="M3.92,71.32c-1.25-0.66-2.21-1.59-2.89-2.78C0.34,67.34,0,65.96,0,64.39V53.41c0-1.57,0.34-2.94,1.03-4.13
		c0.68-1.18,1.65-2.1,2.89-2.75c1.24-0.65,2.68-0.97,4.3-0.97c1.62,0,3.05,0.32,4.3,0.95c1.24,0.63,2.21,1.53,2.89,2.69
		c0.68,1.16,1.03,2.51,1.03,4.05v0.22c0,0.12-0.04,0.24-0.13,0.34c-0.09,0.1-0.19,0.15-0.32,0.15l-3.47,0.15
		c-0.3,0-0.45-0.15-0.45-0.45v-0.45c0-1.17-0.35-2.12-1.06-2.84c-0.71-0.72-1.64-1.08-2.78-1.08c-1.17,0-2.11,0.36-2.82,1.08
		c-0.71,0.72-1.06,1.67-1.06,2.84v11.47c0,1.17,0.35,2.11,1.06,2.82s1.65,1.06,2.82,1.06c1.15,0,2.07-0.35,2.78-1.06
		c0.71-0.71,1.06-1.65,1.06-2.82V64.2c0-0.27,0.15-0.41,0.45-0.41l3.47,0.15c0.12,0,0.23,0.04,0.32,0.13
		c0.09,0.09,0.13,0.19,0.13,0.32v0.15c0,1.54-0.34,2.91-1.03,4.09c-0.69,1.18-1.65,2.09-2.89,2.73c-1.25,0.64-2.68,0.95-4.3,0.95
		C6.6,72.31,5.17,71.98,3.92,71.32z"/>
	<path class="st0" d="M22.54,71.34c-1.26-0.67-2.23-1.62-2.91-2.86c-0.69-1.23-1.03-2.66-1.03-4.28V53.67
		c0-1.59,0.34-3.01,1.03-4.24c0.68-1.23,1.66-2.18,2.91-2.86c1.26-0.67,2.71-1.01,4.35-1.01c1.67,0,3.13,0.34,4.39,1.01
		c1.26,0.67,2.23,1.62,2.93,2.86c0.7,1.23,1.05,2.65,1.05,4.24V64.2c0,1.62-0.35,3.04-1.05,4.28c-0.7,1.23-1.68,2.18-2.93,2.86
		c-1.26,0.67-2.72,1.01-4.39,1.01C25.25,72.35,23.8,72.01,22.54,71.34z M29.82,67.44c0.73-0.78,1.1-1.8,1.1-3.04V53.56
		c0-1.27-0.37-2.3-1.1-3.08c-0.73-0.78-1.71-1.18-2.93-1.18c-1.2,0-2.15,0.39-2.88,1.18c-0.72,0.78-1.08,1.81-1.08,3.08v10.83
		c0,1.25,0.36,2.26,1.08,3.04c0.72,0.78,1.68,1.18,2.88,1.18C28.11,68.61,29.09,68.22,29.82,67.44z"/>
	<path class="st0" d="M38.3,71.88c-0.09-0.09-0.13-0.19-0.13-0.32V46.31c0-0.12,0.04-0.23,0.13-0.32c0.09-0.09,0.19-0.13,0.32-0.13
		h7.73c2.41,0,4.35,0.67,5.81,2.02c1.46,1.34,2.19,3.14,2.19,5.38v11.35c0,2.24-0.73,4.03-2.19,5.38c-1.46,1.34-3.39,2.02-5.81,2.02
		h-7.73C38.49,72.01,38.39,71.97,38.3,71.88z M42.69,68.28l3.7-0.04c1.07,0,1.93-0.37,2.58-1.1c0.65-0.73,1-1.74,1.05-3.01V53.75
		c0-1.27-0.33-2.28-0.99-3.03c-0.66-0.75-1.54-1.12-2.63-1.12h-3.7c-0.12,0-0.19,0.06-0.19,0.19v18.3
		C42.5,68.21,42.57,68.28,42.69,68.28z"/>
	<path class="st0" d="M72.44,49.47c-0.09,0.09-0.19,0.13-0.32,0.13H61.74c-0.12,0-0.19,0.06-0.19,0.19v7.02
		c0,0.12,0.06,0.19,0.19,0.19h6.65c0.12,0,0.23,0.04,0.32,0.13c0.09,0.09,0.13,0.19,0.13,0.32v2.84c0,0.12-0.04,0.23-0.13,0.32
		c-0.09,0.09-0.19,0.13-0.32,0.13h-6.65c-0.12,0-0.19,0.06-0.19,0.19v7.17c0,0.12,0.06,0.19,0.19,0.19h10.38
		c0.12,0,0.23,0.04,0.32,0.13c0.09,0.09,0.13,0.19,0.13,0.32v2.84c0,0.12-0.04,0.23-0.13,0.32c-0.09,0.09-0.19,0.13-0.32,0.13H57.67
		c-0.13,0-0.23-0.04-0.32-0.13c-0.09-0.09-0.13-0.19-0.13-0.32V46.31c0-0.12,0.04-0.23,0.13-0.32c0.09-0.09,0.19-0.13,0.32-0.13
		h14.45c0.12,0,0.23,0.04,0.32,0.13c0.09,0.09,0.13,0.19,0.13,0.32v2.84C72.57,49.28,72.53,49.38,72.44,49.47z"/>
	<path class="st0" d="M89.83,63.79c0,1.59-0.26,2.99-0.78,4.18c-0.52,1.39-1.34,2.47-2.45,3.21c-1.11,0.75-2.51,1.12-4.2,1.12
		c-1.92,0-3.52-0.5-4.82-1.51c-1.3-1.01-2.1-2.36-2.43-4.05c-0.12-0.72-0.21-1.57-0.26-2.54c0-0.3,0.15-0.45,0.45-0.45h3.44
		c0.3,0,0.45,0.15,0.45,0.45c0.05,0.7,0.12,1.3,0.22,1.79c0.15,0.8,0.49,1.43,1.01,1.89c0.52,0.46,1.17,0.69,1.94,0.69
		c0.72,0,1.33-0.2,1.83-0.6c0.5-0.4,0.85-0.96,1.05-1.68c0.2-0.87,0.3-1.82,0.3-2.84c0-1.24-0.13-2.25-0.37-3.03
		c-0.5-1.44-1.43-2.17-2.8-2.17c-0.4,0-0.82,0.12-1.27,0.37c-0.1,0.07-0.2,0.11-0.3,0.11c-0.13,0-0.24-0.05-0.34-0.15l-1.72-1.94
		c-0.1-0.1-0.15-0.21-0.15-0.34c0-0.12,0.04-0.22,0.11-0.3l5.49-6.2c0.12-0.15,0.09-0.22-0.11-0.22h-8.4
		c-0.12,0-0.23-0.04-0.32-0.13c-0.09-0.09-0.13-0.19-0.13-0.32v-2.84c0-0.12,0.04-0.23,0.13-0.32c0.09-0.09,0.19-0.13,0.32-0.13
		h13.52c0.12,0,0.23,0.04,0.32,0.13c0.09,0.09,0.13,0.19,0.13,0.32v2.99c0,0.22-0.06,0.4-0.19,0.52l-4.93,5.86
		c-0.07,0.13-0.05,0.2,0.07,0.22c1.05,0.15,1.95,0.54,2.71,1.18c0.76,0.63,1.34,1.46,1.74,2.48C89.58,60.79,89.83,62.2,89.83,63.79z
		"/>
</g>
</svg>
